<ttFont>
<head>
    <!-- Most of this table will be recalculated by the compiler -->
    <tableVersion value="1.0"/>
    <fontRevision value="0.79999"/>
    <checkSumAdjustment value="0x80815340"/>
    <magicNumber value="0x5f0f3cf5"/>
    <flags value="00000000 00001011"/>
    <unitsPerEm value="1024"/>
    <created value="Sat May  3 09:56:08 2014"/>
    <modified value="Sat May  3 10:10:16 2014"/>
    <xMin value="-184"/>
    <yMin value="-243"/>
    <xMax value="1050"/>
    <yMax value="1049"/>
    <macStyle value="00000000 00000001"/>
    <lowestRecPPEM value="8"/>
    <fontDirectionHint value="2"/>
    <indexToLocFormat value="0"/>
    <glyphDataFormat value="0"/>
  </head>
    <TTGlyph name=".notdef" xMin="34" yMin="0" xMax="306" yMax="682">
      <contour>
        <pt x="34" y="0" on="1"/>
        <pt x="34" y="682" on="1"/>
        <pt x="306" y="682" on="1"/>
        <pt x="306" y="0" on="1"/>
      </contour>
      <contour>
        <pt x="68" y="34" on="1"/>
        <pt x="272" y="34" on="1"/>
        <pt x="272" y="648" on="1"/>
        <pt x="68" y="648" on="1"/>
      </contour>
    </TTGlyph>
    <TTGlyph name="A" xMin="-12" yMin="-4" xMax="657" yMax="662">
      <contour>
        <pt x="95" y="136" on="1"/>
        <pt x="268" y="551" on="0"/>
        <pt x="298" y="629" on="1"/>
        <pt x="303" y="640" on="0"/>
        <pt x="328" y="662" on="0"/>
        <pt x="335" y="662" on="1"/>
        <pt x="345" y="662" on="0"/>
        <pt x="349" y="658" on="1"/>
        <pt x="553" y="137" on="1"/>
        <pt x="561" y="117" on="0"/>
        <pt x="578" y="72" on="0"/>
        <pt x="580" y="68" on="1"/>
        <pt x="589" y="48" on="0"/>
        <pt x="638" y="30" on="0"/>
        <pt x="653" y="30" on="1"/>
        <pt x="656" y="25" on="0"/>
        <pt x="657" y="-2" on="0"/>
        <pt x="655" y="-4" on="1"/>
        <pt x="646" y="-4" on="0"/>
        <pt x="559" y="3" on="0"/>
        <pt x="533" y="3" on="1"/>
        <pt x="506" y="3" on="0"/>
        <pt x="405" y="-4" on="0"/>
        <pt x="400" y="-4" on="1"/>
        <pt x="396" y="0" on="0"/>
        <pt x="396" y="28" on="0"/>
        <pt x="400" y="30" on="1"/>
        <pt x="440" y="30" on="0"/>
        <pt x="458" y="45" on="1"/>
        <pt x="464" y="51" on="0"/>
        <pt x="464" y="69" on="0"/>
        <pt x="432" y="156" on="0"/>
        <pt x="416" y="195" on="1"/>
        <pt x="401" y="234" on="1"/>
        <pt x="398" y="238" on="0"/>
        <pt x="395" y="238" on="1"/>
        <pt x="296" y="238" on="1"/>
        <pt x="232" y="238" on="0"/>
        <pt x="192" y="236" on="1"/>
        <pt x="186" y="236" on="0"/>
        <pt x="186" y="232" on="1"/>
        <pt x="159" y="168" on="0"/>
        <pt x="145" y="130" on="1"/>
        <pt x="127" y="81" on="0"/>
        <pt x="127" y="60" on="1"/>
        <pt x="127" y="44" on="0"/>
        <pt x="182" y="30" on="0"/>
        <pt x="199" y="30" on="1"/>
        <pt x="202" y="27" on="0"/>
        <pt x="202" y="0" on="0"/>
        <pt x="200" y="-4" on="1"/>
        <pt x="111" y="3" on="0"/>
        <pt x="98" y="3" on="1"/>
        <pt x="84" y="3" on="0"/>
        <pt x="-9" y="-4" on="1"/>
        <pt x="-12" y="-1" on="0"/>
        <pt x="-12" y="22" on="0"/>
        <pt x="-10" y="29" on="1"/>
        <pt x="1" y="29" on="0"/>
        <pt x="47" y="45" on="0"/>
        <pt x="54" y="54" on="1"/>
        <pt x="74" y="84" on="0"/>
      </contour>
      <contour>
        <pt x="295" y="506" on="1"/>
        <pt x="207" y="290" on="1"/>
        <pt x="207" y="286" on="0"/>
        <pt x="209" y="286" on="1"/>
        <pt x="244" y="283" on="0"/>
        <pt x="294" y="283" on="1"/>
        <pt x="330" y="283" on="0"/>
        <pt x="376" y="286" on="1"/>
        <pt x="379" y="291" on="1"/>
      </contour>
    </TTGlyph>
    <TTGlyph name="AE" xMin="-27" yMin="-3" xMax="863" yMax="664">
      <contour>
        <pt x="408" y="286" on="1"/>
        <pt x="408" y="541" on="1"/>
        <pt x="408" y="541" on="0"/>
        <pt x="252" y="290" on="1"/>
        <pt x="251" y="286" on="0"/>
        <pt x="253" y="286" on="1"/>
        <pt x="276" y="284" on="0"/>
        <pt x="330" y="284" on="1"/>
        <pt x="385" y="284" on="0"/>
      </contour>
      <contour>
        <pt x="466" y="656" on="1"/>
        <pt x="498" y="656" on="0"/>
        <pt x="745" y="664" on="0"/>
        <pt x="789" y="664" on="1"/>
        <pt x="793" y="635" on="0"/>
        <pt x="817" y="532" on="0"/>
        <pt x="819" y="522" on="1"/>
        <pt x="814" y="517" on="0"/>
        <pt x="798" y="517" on="1"/>
        <pt x="786" y="517" on="0"/>
        <pt x="783" y="524" on="1"/>
        <pt x="767" y="575" on="0"/>
        <pt x="714" y="620" on="0"/>
        <pt x="671" y="620" on="1"/>
        <pt x="586" y="620" on="1"/>
        <pt x="531" y="620" on="0"/>
        <pt x="527" y="609" on="1"/>
        <pt x="521" y="592" on="0"/>
        <pt x="521" y="543" on="1"/>
        <pt x="521" y="362" on="1"/>
        <pt x="521" y="353" on="0"/>
        <pt x="565" y="353" on="1"/>
        <pt x="618" y="353" on="1"/>
        <pt x="675" y="353" on="0"/>
        <pt x="705" y="376" on="0"/>
        <pt x="717" y="424" on="1"/>
        <pt x="719" y="432" on="0"/>
        <pt x="730" y="432" on="1"/>
        <pt x="743" y="432" on="0"/>
        <pt x="749" y="426" on="1"/>
        <pt x="749" y="236" on="1"/>
        <pt x="745" y="232" on="0"/>
        <pt x="731" y="232" on="1"/>
        <pt x="719" y="232" on="0"/>
        <pt x="716" y="240" on="1"/>
        <pt x="701" y="295" on="0"/>
        <pt x="685" y="304" on="1"/>
        <pt x="671" y="311" on="0"/>
        <pt x="594" y="311" on="1"/>
        <pt x="521" y="311" on="0"/>
        <pt x="521" y="300" on="1"/>
        <pt x="521" y="128" on="1"/>
        <pt x="521" y="68" on="0"/>
        <pt x="529" y="54" on="1"/>
        <pt x="541" y="40" on="0"/>
        <pt x="597" y="40" on="1"/>
        <pt x="654" y="40" on="1"/>
        <pt x="725" y="40" on="0"/>
        <pt x="763" y="68" on="1"/>
        <pt x="800" y="97" on="0"/>
        <pt x="822" y="166" on="1"/>
        <pt x="824" y="172" on="0"/>
        <pt x="836" y="172" on="1"/>
        <pt x="857" y="172" on="0"/>
        <pt x="863" y="166" on="1"/>
        <pt x="860" y="157" on="0"/>
        <pt x="837" y="93" on="0"/>
        <pt x="825" y="60" on="0"/>
        <pt x="811" y="12" on="0"/>
        <pt x="809" y="-3" on="1"/>
        <pt x="770" y="-3" on="0"/>
        <pt x="426" y="0" on="0"/>
        <pt x="395" y="0" on="1"/>
        <pt x="385" y="1" on="0"/>
        <pt x="365" y="4" on="0"/>
        <pt x="351" y="8" on="0"/>
        <pt x="340" y="11" on="0"/>
        <pt x="335" y="15" on="0"/>
        <pt x="337" y="17" on="0"/>
        <pt x="352" y="26" on="0"/>
        <pt x="366" y="35" on="0"/>
        <pt x="368" y="38" on="1"/>
        <pt x="403" y="73" on="0"/>
        <pt x="405" y="97" on="1"/>
        <pt x="409" y="113" on="0"/>
        <pt x="409" y="180" on="1"/>
        <pt x="400" y="180" on="0"/>
        <pt x="373" y="240" on="0"/>
        <pt x="369" y="240" on="1"/>
        <pt x="276" y="240" on="1"/>
        <pt x="266" y="240" on="0"/>
        <pt x="251" y="238" on="0"/>
        <pt x="231" y="236" on="0"/>
        <pt x="222" y="235" on="1"/>
        <pt x="218" y="235" on="0"/>
        <pt x="192" y="190" on="1"/>
        <pt x="175" y="164" on="0"/>
        <pt x="137" y="98" on="1"/>
        <pt x="127" y="75" on="0"/>
        <pt x="149" y="42" on="1"/>
        <pt x="150" y="36" on="0"/>
        <pt x="160" y="25" on="0"/>
        <pt x="171" y="18" on="0"/>
        <pt x="176" y="14" on="1"/>
        <pt x="182" y="11" on="1"/>
        <pt x="173" y="11" on="0"/>
        <pt x="137" y="1" on="0"/>
        <pt x="127" y="0" on="1"/>
        <pt x="70" y="1" on="0"/>
        <pt x="24" y="-1" on="1"/>
        <pt x="10" y="0" on="0"/>
        <pt x="-19" y="12" on="0"/>
        <pt x="-27" y="14" on="1"/>
        <pt x="0" y="28" on="0"/>
        <pt x="12" y="45" on="1"/>
        <pt x="61" y="85" on="0"/>
        <pt x="65" y="90" on="1"/>
        <pt x="80" y="100" on="0"/>
        <pt x="249" y="370" on="1"/>
        <pt x="387" y="596" on="1"/>
        <pt x="386" y="600" on="0"/>
        <pt x="375" y="607" on="0"/>
        <pt x="361" y="613" on="0"/>
        <pt x="359" y="614" on="1"/>
        <pt x="357" y="629" on="0"/>
        <pt x="336" y="644" on="1"/>
        <pt x="339" y="644" on="0"/>
        <pt x="389" y="651" on="0"/>
        <pt x="442" y="656" on="0"/>
      </contour>
    </TTGlyph>
    <TTGlyph name="AEacute" xMin="-27" yMin="-3" xMax="894" yMax="865">
      <component glyphName="acutecomb.cap" x="675" y="2" flags="0x1004"/>
      <component glyphName="AE" x="0" y="0" flags="0x1204"/>
    </TTGlyph>
    <TTGlyph name="Aacute" xMin="-10" yMin="-4" xMax="655" yMax="865">
      <component glyphName="acutecomb.cap" x="278" y="2" flags="0x1004"/>
      <component glyphName="A" x="0" y="0" flags="0x1204"/>
    </TTGlyph>
    <TTGlyph name="Abreve" xMin="-10" yMin="-4" xMax="655" yMax="831">
      <component glyphName="uni0306.cap" x="210" y="113" flags="0x1004"/>
      <component glyphName="A" x="0" y="0" flags="0x1204"/>
    </TTGlyph>
    <TTGlyph name="Acircumflex" xMin="-10" yMin="-4" xMax="655" yMax="864">
      <component glyphName="uni0302.cap" x="171" y="13" flags="0x1004"/>
      <component glyphName="A" x="0" y="0" flags="0x1204"/>
    </TTGlyph>
    <TTGlyph name="Adieresis" xMin="-10" yMin="-4" xMax="655" yMax="844">
      <component glyphName="uni0308.cap" x="141" y="-14" flags="0x1004"/>
      <component glyphName="A" x="0" y="0" flags="0x1204"/>
    </TTGlyph>
    <TTGlyph name="Agrave" xMin="-10" yMin="-4" xMax="655" yMax="865">
      <component glyphName="gravecomb.cap" x="159" y="2" flags="0x1004"/>
      <component glyphName="A" x="0" y="0" flags="0x1204"/>
    </TTGlyph>
    <TTGlyph name="Amacron" xMin="-10" yMin="-4" xMax="655" yMax="776">
      <component glyphName="uni0304.cap" x="131" y="81" flags="0x1004"/>
      <component glyphName="A" x="0" y="0" flags="0x1204"/>
    </TTGlyph>
    <TTGlyph name="Aogonek" xMin="-12" yMin="-221" xMax="657" yMax="662">
      <contour>
        <pt x="295" y="506" on="1"/>
        <pt x="207" y="290" on="1"/>
        <pt x="207" y="286" on="0"/>
        <pt x="209" y="286" on="1"/>
        <pt x="244" y="283" on="0"/>
        <pt x="294" y="283" on="1"/>
        <pt x="330" y="283" on="0"/>
        <pt x="376" y="286" on="1"/>
        <pt x="376" y="286" on="0"/>
        <pt x="379" y="291" on="1"/>
      </contour>
      <contour>
        <pt x="655" y="-4" on="1"/>
        <pt x="655" y="-4" on="0"/>
        <pt x="640" y="-3" on="1"/>
        <pt x="625" y="-2" on="0"/>
        <pt x="616" y="-1" on="1"/>
        <pt x="569" y="3" on="0"/>
        <pt x="483" y="-76" on="0"/>
        <pt x="483" y="-112" on="1"/>
        <pt x="483" y="-129" on="0"/>
        <pt x="504" y="-157" on="0"/>
        <pt x="528" y="-157" on="1"/>
        <pt x="546" y="-157" on="0"/>
        <pt x="580" y="-140" on="0"/>
        <pt x="605" y="-118" on="0"/>
        <pt x="606" y="-118" on="1"/>
        <pt x="611" y="-118" on="0"/>
        <pt x="611" y="-130" on="1"/>
        <pt x="611" y="-144" on="0"/>
        <pt x="605" y="-152" on="1"/>
        <pt x="587" y="-177" on="0"/>
        <pt x="524" y="-221" on="0"/>
        <pt x="491" y="-221" on="1"/>
        <pt x="459" y="-221" on="0"/>
        <pt x="419" y="-175" on="0"/>
        <pt x="419" y="-144" on="1"/>
        <pt x="419" y="-107" on="0"/>
        <pt x="494" y="-21" on="0"/>
        <pt x="538" y="3" on="1"/>
        <pt x="533" y="3" on="1"/>
        <pt x="506" y="3" on="0"/>
        <pt x="405" y="-4" on="0"/>
        <pt x="400" y="-4" on="1"/>
        <pt x="396" y="0" on="0"/>
        <pt x="396" y="28" on="0"/>
        <pt x="400" y="30" on="1"/>
        <pt x="440" y="30" on="0"/>
        <pt x="458" y="45" on="1"/>
        <pt x="464" y="51" on="0"/>
        <pt x="464" y="69" on="0"/>
        <pt x="432" y="156" on="0"/>
        <pt x="416" y="195" on="1"/>
        <pt x="401" y="234" on="1"/>
        <pt x="398" y="238" on="0"/>
        <pt x="395" y="238" on="1"/>
        <pt x="296" y="238" on="1"/>
        <pt x="232" y="238" on="0"/>
        <pt x="192" y="236" on="1"/>
        <pt x="186" y="236" on="0"/>
        <pt x="186" y="232" on="1"/>
        <pt x="159" y="168" on="0"/>
        <pt x="145" y="130" on="1"/>
        <pt x="127" y="81" on="0"/>
        <pt x="127" y="60" on="1"/>
        <pt x="127" y="44" on="0"/>
        <pt x="182" y="30" on="0"/>
        <pt x="199" y="30" on="1"/>
        <pt x="202" y="27" on="0"/>
        <pt x="202" y="0" on="0"/>
        <pt x="200" y="-4" on="1"/>
        <pt x="111" y="3" on="0"/>
        <pt x="98" y="3" on="1"/>
        <pt x="84" y="3" on="0"/>
        <pt x="-9" y="-4" on="1"/>
        <pt x="-12" y="-1" on="0"/>
        <pt x="-12" y="22" on="0"/>
        <pt x="-10" y="29" on="1"/>
        <pt x="1" y="29" on="0"/>
        <pt x="47" y="45" on="0"/>
        <pt x="54" y="54" on="1"/>
        <pt x="74" y="84" on="0"/>
        <pt x="95" y="136" on="1"/>
        <pt x="268" y="551" on="0"/>
        <pt x="298" y="629" on="1"/>
        <pt x="303" y="640" on="0"/>
        <pt x="328" y="662" on="0"/>
        <pt x="335" y="662" on="1"/>
        <pt x="345" y="662" on="0"/>
        <pt x="349" y="658" on="1"/>
        <pt x="553" y="137" on="1"/>
        <pt x="572" y="86" on="0"/>
        <pt x="580" y="68" on="1"/>
        <pt x="589" y="48" on="0"/>
        <pt x="638" y="30" on="0"/>
        <pt x="653" y="30" on="1"/>
        <pt x="656" y="25" on="0"/>
        <pt x="657" y="-2" on="0"/>
      </contour>
    </TTGlyph>
    <TTGlyph name="Aring" xMin="-10" yMin="-4" xMax="655" yMax="849">
      <component glyphName="uni030A.cap" x="156" y="80" flags="0x1004"/>
      <component glyphName="A" x="0" y="0" flags="0x1204"/>
    </TTGlyph>
    <TTGlyph name="Aringacute" xMin="40" yMin="-4" xMax="705" yMax="1031">
      <component glyphName="acutecomb.cap" x="364" y="168" flags="0x1004"/>
      <component glyphName="Aring" x="50" y="0" flags="0x1204"/>
    </TTGlyph>
    <TTGlyph name="Atilde" xMin="-10" yMin="-4" xMax="655" yMax="833">
      <component glyphName="tildecomb.cap" x="52" y="-3" flags="0x1004"/>
      <component glyphName="A" x="0" y="0" flags="0x1204"/>
    </TTGlyph>
    <TTGlyph name="B" xMin="40" yMin="-3" xMax="569" yMax="661">
      <contour>
        <pt x="230" y="333" on="1"/>
        <pt x="230" y="114" on="1"/>
        <pt x="230" y="60" on="0"/>
        <pt x="238" y="50" on="1"/>
        <pt x="251" y="35" on="0"/>
        <pt x="309" y="35" on="1"/>
        <pt x="363" y="35" on="0"/>
        <pt x="441" y="100" on="0"/>
        <pt x="441" y="176" on="1"/>
        <pt x="441" y="243" on="0"/>
        <pt x="371" y="333" on="0"/>
        <pt x="286" y="333" on="1"/>
      </contour>
      <contour>
        <pt x="230" y="371" on="1"/>
        <pt x="306" y="371" on="1"/>
        <pt x="351" y="371" on="0"/>
        <pt x="403" y="436" on="0"/>
        <pt x="403" y="487" on="1"/>
        <pt x="403" y="554" on="0"/>
        <pt x="340" y="622" on="0"/>
        <pt x="284" y="622" on="1"/>
        <pt x="238" y="622" on="0"/>
        <pt x="234" y="611" on="1"/>
        <pt x="230" y="601" on="0"/>
        <pt x="230" y="543" on="1"/>
      </contour>
      <contour>
        <pt x="321" y="660" on="1"/>
        <pt x="371" y="660" on="0"/>
        <pt x="458" y="633" on="0"/>
        <pt x="523" y="560" on="0"/>
        <pt x="523" y="506" on="1"/>
        <pt x="523" y="455" on="0"/>
        <pt x="452" y="381" on="0"/>
        <pt x="418" y="368" on="1"/>
        <pt x="410" y="365" on="0"/>
        <pt x="415" y="362" on="1"/>
        <pt x="462" y="358" on="0"/>
        <pt x="569" y="265" on="0"/>
        <pt x="569" y="196" on="1"/>
        <pt x="569" y="150" on="0"/>
        <pt x="518" y="64" on="0"/>
        <pt x="477" y="38" on="1"/>
        <pt x="414" y="-3" on="0"/>
        <pt x="274" y="-3" on="1"/>
        <pt x="43" y="-3" on="1"/>
        <pt x="40" y="2" on="0"/>
        <pt x="40" y="26" on="0"/>
        <pt x="43" y="30" on="1"/>
        <pt x="59" y="30" on="0"/>
        <pt x="106" y="38" on="0"/>
        <pt x="109" y="46" on="1"/>
        <pt x="116" y="67" on="0"/>
        <pt x="116" y="130" on="1"/>
        <pt x="116" y="528" on="1"/>
        <pt x="116" y="591" on="0"/>
        <pt x="109" y="612" on="1"/>
        <pt x="106" y="620" on="0"/>
        <pt x="59" y="628" on="0"/>
        <pt x="43" y="628" on="1"/>
        <pt x="40" y="632" on="0"/>
        <pt x="40" y="656" on="0"/>
        <pt x="43" y="661" on="1"/>
        <pt x="129" y="657" on="0"/>
        <pt x="173" y="657" on="1"/>
        <pt x="191" y="657" on="0"/>
        <pt x="290" y="660" on="0"/>
      </contour>
    </TTGlyph>
    <TTGlyph name="C" xMin="45" yMin="-6" xMax="640" yMax="667">
      <contour>
        <pt x="387" y="667" on="1"/>
        <pt x="503" y="667" on="0"/>
        <pt x="597" y="647" on="1"/>
        <pt x="597" y="646" on="0"/>
        <pt x="612" y="574" on="0"/>
        <pt x="626" y="503" on="0"/>
        <pt x="626" y="498" on="1"/>
        <pt x="626" y="492" on="0"/>
        <pt x="610" y="482" on="0"/>
        <pt x="602" y="482" on="1"/>
        <pt x="592" y="482" on="0"/>
        <pt x="588" y="487" on="1"/>
        <pt x="584" y="507" on="0"/>
        <pt x="567" y="543" on="0"/>
        <pt x="527" y="595" on="0"/>
        <pt x="448" y="627" on="0"/>
        <pt x="394" y="627" on="1"/>
        <pt x="292" y="627" on="0"/>
        <pt x="175" y="461" on="0"/>
        <pt x="175" y="348" on="1"/>
        <pt x="175" y="266" on="0"/>
        <pt x="224" y="128" on="0"/>
        <pt x="335" y="34" on="0"/>
        <pt x="412" y="34" on="1"/>
        <pt x="491" y="34" on="0"/>
        <pt x="540" y="78" on="1"/>
        <pt x="567" y="102" on="0"/>
        <pt x="601" y="175" on="0"/>
        <pt x="606" y="198" on="1"/>
        <pt x="630" y="198" on="0"/>
        <pt x="640" y="188" on="1"/>
        <pt x="640" y="172" on="0"/>
        <pt x="610" y="46" on="0"/>
        <pt x="601" y="40" on="1"/>
        <pt x="500" y="-6" on="0"/>
        <pt x="384" y="-6" on="1"/>
        <pt x="240" y="-6" on="0"/>
        <pt x="45" y="184" on="0"/>
        <pt x="45" y="322" on="1"/>
        <pt x="45" y="465" on="0"/>
        <pt x="242" y="667" on="0"/>
      </contour>
    </TTGlyph>
    <TTGlyph name="Cacute" xMin="45" yMin="-6" xMax="640" yMax="865">
      <component glyphName="acutecomb.cap" x="348" y="2" flags="0x1004"/>
      <component glyphName="C" x="0" y="0" flags="0x1204"/>
    </TTGlyph>
    <TTGlyph name="Ccaron" xMin="45" yMin="-6" xMax="640" yMax="884">
      <component glyphName="uni030C.cap" x="16" y="21" flags="0x1004"/>
      <component glyphName="C" x="0" y="0" flags="0x1204"/>
    </TTGlyph>
    <TTGlyph name="Ccedilla" xMin="45" yMin="-170" xMax="640" yMax="667">
      <component glyphName="uni0327.cap" x="156" y="0" flags="0x1004"/>
      <component glyphName="C" x="0" y="0" flags="0x1204"/>
    </TTGlyph>
    <TTGlyph name="Ccircumflex" xMin="45" yMin="-6" xMax="640" yMax="864">
      <component glyphName="uni0302.cap" x="239" y="13" flags="0x1004"/>
      <component glyphName="C" x="0" y="0" flags="0x1204"/>
    </TTGlyph>
    <TTGlyph name="Cdotaccent" xMin="45" yMin="-6" xMax="640" yMax="846">
      <component glyphName="uni0307.cap" x="220" y="12" flags="0x1004"/>
      <component glyphName="C" x="0" y="0" flags="0x1204"/>
    </TTGlyph>
    <TTGlyph name="D" xMin="40" yMin="-3" xMax="690" yMax="661">
      <contour>
        <pt x="230" y="543" on="1"/>
        <pt x="230" y="130" on="1"/>
        <pt x="230" y="69" on="0"/>
        <pt x="237" y="54" on="1"/>
        <pt x="248" y="35" on="0"/>
        <pt x="309" y="35" on="1"/>
        <pt x="427" y="35" on="0"/>
        <pt x="561" y="177" on="0"/>
        <pt x="561" y="319" on="1"/>
        <pt x="561" y="469" on="0"/>
        <pt x="411" y="622" on="0"/>
        <pt x="294" y="622" on="1"/>
        <pt x="240" y="622" on="0"/>
        <pt x="235" y="610" on="1"/>
        <pt x="230" y="596" on="0"/>
      </contour>
      <contour>
        <pt x="322" y="659" on="1"/>
        <pt x="490" y="659" on="0"/>
        <pt x="690" y="482" on="0"/>
        <pt x="690" y="335" on="1"/>
        <pt x="690" y="180" on="0"/>
        <pt x="495" y="-3" on="0"/>
        <pt x="312" y="-3" on="1"/>
        <pt x="43" y="-3" on="1"/>
        <pt x="40" y="2" on="0"/>
        <pt x="40" y="26" on="0"/>
        <pt x="43" y="30" on="1"/>
        <pt x="59" y="30" on="0"/>
        <pt x="106" y="38" on="0"/>
        <pt x="109" y="46" on="1"/>
        <pt x="116" y="67" on="0"/>
        <pt x="116" y="130" on="1"/>
        <pt x="116" y="528" on="1"/>
        <pt x="116" y="591" on="0"/>
        <pt x="109" y="612" on="1"/>
        <pt x="106" y="620" on="0"/>
        <pt x="59" y="628" on="0"/>
        <pt x="43" y="628" on="1"/>
        <pt x="40" y="632" on="0"/>
        <pt x="40" y="656" on="0"/>
        <pt x="43" y="661" on="1"/>
        <pt x="129" y="657" on="0"/>
        <pt x="173" y="657" on="1"/>
        <pt x="192" y="657" on="0"/>
        <pt x="294" y="659" on="0"/>
      </contour>
    </TTGlyph>
    <TTGlyph name="Dcaron" xMin="43" yMin="-3" xMax="690" yMax="884">
      <component glyphName="uni030C.cap" x="-60" y="21" flags="0x1004"/>
      <component glyphName="D" x="0" y="0" flags="0x1204"/>
    </TTGlyph>
    <TTGlyph name="Dcroat" xMin="42" yMin="-3" xMax="693" yMax="661">
      <component glyphName="Eth" x="0" y="0" flags="0x1004"/>
    </TTGlyph>
    <TTGlyph name="E" xMin="40" yMin="-3" xMax="571" yMax="664">
      <contour>
        <pt x="173" y="656" on="1"/>
        <pt x="205" y="656" on="0"/>
        <pt x="453" y="664" on="0"/>
        <pt x="497" y="664" on="1"/>
        <pt x="501" y="634" on="0"/>
        <pt x="525" y="527" on="0"/>
        <pt x="526" y="522" on="1"/>
        <pt x="521" y="517" on="0"/>
        <pt x="505" y="517" on="1"/>
        <pt x="493" y="517" on="0"/>
        <pt x="490" y="524" on="1"/>
        <pt x="474" y="575" on="0"/>
        <pt x="421" y="620" on="0"/>
        <pt x="378" y="620" on="1"/>
        <pt x="294" y="620" on="1"/>
        <pt x="238" y="620" on="0"/>
        <pt x="230" y="598" on="0"/>
        <pt x="230" y="543" on="1"/>
        <pt x="230" y="362" on="1"/>
        <pt x="230" y="353" on="0"/>
        <pt x="272" y="353" on="1"/>
        <pt x="325" y="353" on="1"/>
        <pt x="382" y="353" on="0"/>
        <pt x="412" y="376" on="0"/>
        <pt x="424" y="424" on="1"/>
        <pt x="426" y="432" on="0"/>
        <pt x="450" y="432" on="0"/>
        <pt x="456" y="426" on="1"/>
        <pt x="456" y="236" on="1"/>
        <pt x="452" y="232" on="0"/>
        <pt x="439" y="232" on="1"/>
        <pt x="427" y="232" on="0"/>
        <pt x="424" y="240" on="1"/>
        <pt x="409" y="294" on="0"/>
        <pt x="392" y="304" on="1"/>
        <pt x="378" y="311" on="0"/>
        <pt x="301" y="311" on="1"/>
        <pt x="230" y="311" on="0"/>
        <pt x="230" y="300" on="1"/>
        <pt x="230" y="130" on="1"/>
        <pt x="230" y="64" on="0"/>
        <pt x="236" y="54" on="1"/>
        <pt x="248" y="40" on="0"/>
        <pt x="304" y="40" on="1"/>
        <pt x="366" y="40" on="1"/>
        <pt x="436" y="40" on="0"/>
        <pt x="471" y="68" on="1"/>
        <pt x="507" y="97" on="0"/>
        <pt x="529" y="166" on="1"/>
        <pt x="530" y="172" on="0"/>
        <pt x="543" y="172" on="1"/>
        <pt x="565" y="172" on="0"/>
        <pt x="571" y="166" on="1"/>
        <pt x="568" y="157" on="0"/>
        <pt x="545" y="93" on="0"/>
        <pt x="533" y="60" on="0"/>
        <pt x="519" y="12" on="0"/>
        <pt x="517" y="-3" on="1"/>
        <pt x="491" y="-3" on="0"/>
        <pt x="249" y="-1" on="0"/>
        <pt x="174" y="-1" on="1"/>
        <pt x="140" y="-1" on="0"/>
        <pt x="52" y="-3" on="0"/>
        <pt x="43" y="-3" on="1"/>
        <pt x="40" y="2" on="0"/>
        <pt x="40" y="26" on="0"/>
        <pt x="43" y="30" on="1"/>
        <pt x="59" y="30" on="0"/>
        <pt x="106" y="38" on="0"/>
        <pt x="109" y="46" on="1"/>
        <pt x="116" y="67" on="0"/>
        <pt x="116" y="130" on="1"/>
        <pt x="116" y="528" on="1"/>
        <pt x="116" y="591" on="0"/>
        <pt x="109" y="612" on="1"/>
        <pt x="106" y="620" on="0"/>
        <pt x="58" y="629" on="0"/>
        <pt x="43" y="629" on="1"/>
        <pt x="40" y="634" on="0"/>
        <pt x="40" y="658" on="0"/>
        <pt x="43" y="662" on="1"/>
        <pt x="123" y="656" on="0"/>
      </contour>
    </TTGlyph>
    <TTGlyph name="Eacute" xMin="43" yMin="-3" xMax="571" yMax="865">
      <component glyphName="acutecomb.cap" x="220" y="2" flags="0x1004"/>
      <component glyphName="E" x="0" y="0" flags="0x1204"/>
    </TTGlyph>
    <TTGlyph name="Ebreve" xMin="43" yMin="-3" xMax="571" yMax="831">
      <component glyphName="uni0306.cap" x="173" y="113" flags="0x1004"/>
      <component glyphName="E" x="0" y="0" flags="0x1204"/>
    </TTGlyph>
    <TTGlyph name="Ecaron" xMin="43" yMin="-3" xMax="571" yMax="863">
      <component glyphName="uni030C.cap" x="-80" y="0" flags="0x1004"/>
      <component glyphName="E" x="0" y="0" flags="0x1204"/>
    </TTGlyph>
    <TTGlyph name="Ecircumflex" xMin="43" yMin="-3" xMax="571" yMax="864">
      <component glyphName="uni0302.cap" x="145" y="13" flags="0x1004"/>
      <component glyphName="E" x="0" y="0" flags="0x1204"/>
    </TTGlyph>
    <TTGlyph name="Edieresis" xMin="43" yMin="-3" xMax="571" yMax="844">
      <component glyphName="uni0308.cap" x="101" y="-14" flags="0x1004"/>
      <component glyphName="E" x="0" y="0" flags="0x1204"/>
    </TTGlyph>
    <TTGlyph name="Edotaccent" xMin="43" yMin="-3" xMax="571" yMax="846">
      <component glyphName="uni0307.cap" x="143" y="12" flags="0x1004"/>
      <component glyphName="E" x="0" y="0" flags="0x1204"/>
    </TTGlyph>
    <TTGlyph name="Egrave" xMin="43" yMin="-3" xMax="571" yMax="865">
      <component glyphName="gravecomb.cap" x="138" y="2" flags="0x1004"/>
      <component glyphName="E" x="0" y="0" flags="0x1204"/>
    </TTGlyph>
    <TTGlyph name="Emacron" xMin="43" yMin="-3" xMax="571" yMax="771">
      <component glyphName="uni0304.cap" x="88" y="76" flags="0x1004"/>
      <component glyphName="E" x="0" y="0" flags="0x1204"/>
    </TTGlyph>
    <TTGlyph name="Eng" xMin="33" yMin="-222" xMax="744" yMax="663">
      <contour>
        <pt x="652" y="130" on="1"/>
        <pt x="652" y="-33" on="0"/>
        <pt x="510" y="-222" on="0"/>
        <pt x="387" y="-222" on="1"/>
        <pt x="350" y="-222" on="0"/>
        <pt x="327" y="-204" on="1"/>
        <pt x="315" y="-188" on="0"/>
        <pt x="315" y="-172" on="1"/>
        <pt x="315" y="-147" on="0"/>
        <pt x="347" y="-110" on="0"/>
        <pt x="370" y="-110" on="1"/>
        <pt x="391" y="-110" on="0"/>
        <pt x="422" y="-141" on="1"/>
        <pt x="449" y="-168" on="0"/>
        <pt x="466" y="-168" on="1"/>
        <pt x="501" y="-168" on="0"/>
        <pt x="564" y="-46" on="0"/>
        <pt x="572" y="56" on="1"/>
        <pt x="181" y="544" on="1"/>
        <pt x="181" y="136" on="1"/>
        <pt x="181" y="72" on="0"/>
        <pt x="191" y="53" on="1"/>
        <pt x="195" y="44" on="0"/>
        <pt x="256" y="30" on="0"/>
        <pt x="270" y="30" on="1"/>
        <pt x="279" y="18" on="0"/>
        <pt x="272" y="-4" on="1"/>
        <pt x="263" y="-4" on="0"/>
        <pt x="178" y="3" on="0"/>
        <pt x="126" y="3" on="0"/>
        <pt x="53" y="-3" on="0"/>
        <pt x="36" y="-4" on="1"/>
        <pt x="33" y="1" on="0"/>
        <pt x="33" y="24" on="0"/>
        <pt x="36" y="29" on="1"/>
        <pt x="51" y="29" on="0"/>
        <pt x="110" y="42" on="0"/>
        <pt x="115" y="52" on="1"/>
        <pt x="126" y="73" on="0"/>
        <pt x="126" y="137" on="1"/>
        <pt x="126" y="531" on="1"/>
        <pt x="126" y="588" on="0"/>
        <pt x="112" y="610" on="1"/>
        <pt x="107" y="618" on="0"/>
        <pt x="53" y="630" on="0"/>
        <pt x="40" y="630" on="1"/>
        <pt x="36" y="634" on="0"/>
        <pt x="36" y="659" on="0"/>
        <pt x="39" y="663" on="1"/>
        <pt x="134" y="658" on="0"/>
        <pt x="148" y="658" on="1"/>
        <pt x="194" y="658" on="0"/>
        <pt x="240" y="662" on="1"/>
        <pt x="259" y="627" on="0"/>
        <pt x="383" y="472" on="0"/>
        <pt x="552" y="266" on="0"/>
        <pt x="597" y="207" on="1"/>
        <pt x="598" y="211" on="0"/>
        <pt x="598" y="256" on="1"/>
        <pt x="598" y="510" on="1"/>
        <pt x="598" y="587" on="0"/>
        <pt x="587" y="609" on="1"/>
        <pt x="582" y="618" on="0"/>
        <pt x="525" y="630" on="0"/>
        <pt x="509" y="630" on="1"/>
        <pt x="506" y="633" on="0"/>
        <pt x="505" y="657" on="0"/>
        <pt x="508" y="663" on="1"/>
        <pt x="522" y="662" on="0"/>
        <pt x="600" y="656" on="0"/>
        <pt x="652" y="656" on="0"/>
        <pt x="730" y="662" on="0"/>
        <pt x="744" y="663" on="1"/>
        <pt x="751" y="643" on="0"/>
        <pt x="743" y="630" on="1"/>
        <pt x="727" y="630" on="0"/>
        <pt x="667" y="618" on="0"/>
        <pt x="662" y="608" on="1"/>
        <pt x="652" y="588" on="0"/>
        <pt x="652" y="512" on="1"/>
      </contour>
    </TTGlyph>
    <TTGlyph name="Eogonek" xMin="40" yMin="-221" xMax="571" yMax="664">
      <contour>
        <pt x="173" y="656" on="1"/>
        <pt x="205" y="656" on="0"/>
        <pt x="453" y="664" on="0"/>
        <pt x="497" y="664" on="1"/>
        <pt x="501" y="634" on="0"/>
        <pt x="525" y="527" on="0"/>
        <pt x="526" y="522" on="1"/>
        <pt x="521" y="517" on="0"/>
        <pt x="505" y="517" on="1"/>
        <pt x="493" y="517" on="0"/>
        <pt x="490" y="524" on="1"/>
        <pt x="474" y="575" on="0"/>
        <pt x="421" y="620" on="0"/>
        <pt x="378" y="620" on="1"/>
        <pt x="294" y="620" on="1"/>
        <pt x="238" y="620" on="0"/>
        <pt x="230" y="598" on="0"/>
        <pt x="230" y="543" on="1"/>
        <pt x="230" y="362" on="1"/>
        <pt x="230" y="353" on="0"/>
        <pt x="272" y="353" on="1"/>
        <pt x="325" y="353" on="1"/>
        <pt x="382" y="353" on="0"/>
        <pt x="412" y="376" on="0"/>
        <pt x="424" y="424" on="1"/>
        <pt x="426" y="432" on="0"/>
        <pt x="450" y="432" on="0"/>
        <pt x="456" y="426" on="1"/>
        <pt x="456" y="236" on="1"/>
        <pt x="452" y="232" on="0"/>
        <pt x="439" y="232" on="1"/>
        <pt x="427" y="232" on="0"/>
        <pt x="424" y="240" on="1"/>
        <pt x="409" y="294" on="0"/>
        <pt x="392" y="304" on="1"/>
        <pt x="378" y="311" on="0"/>
        <pt x="301" y="311" on="1"/>
        <pt x="230" y="311" on="0"/>
        <pt x="230" y="300" on="1"/>
        <pt x="230" y="128" on="1"/>
        <pt x="230" y="64" on="0"/>
        <pt x="236" y="54" on="1"/>
        <pt x="248" y="40" on="0"/>
        <pt x="304" y="40" on="1"/>
        <pt x="361" y="40" on="1"/>
        <pt x="435" y="40" on="0"/>
        <pt x="471" y="68" on="1"/>
        <pt x="502" y="92" on="0"/>
        <pt x="529" y="166" on="1"/>
        <pt x="530" y="172" on="0"/>
        <pt x="543" y="172" on="1"/>
        <pt x="565" y="172" on="0"/>
        <pt x="571" y="166" on="1"/>
        <pt x="568" y="157" on="0"/>
        <pt x="545" y="93" on="0"/>
        <pt x="533" y="60" on="0"/>
        <pt x="519" y="12" on="0"/>
        <pt x="517" y="-3" on="1"/>
        <pt x="476" y="-8" on="0"/>
        <pt x="393" y="-79" on="0"/>
        <pt x="393" y="-112" on="1"/>
        <pt x="393" y="-129" on="0"/>
        <pt x="414" y="-157" on="0"/>
        <pt x="438" y="-157" on="1"/>
        <pt x="456" y="-157" on="0"/>
        <pt x="490" y="-140" on="0"/>
        <pt x="515" y="-118" on="0"/>
        <pt x="516" y="-118" on="1"/>
        <pt x="521" y="-118" on="0"/>
        <pt x="521" y="-130" on="1"/>
        <pt x="521" y="-144" on="0"/>
        <pt x="515" y="-152" on="1"/>
        <pt x="497" y="-177" on="0"/>
        <pt x="434" y="-221" on="0"/>
        <pt x="401" y="-221" on="1"/>
        <pt x="369" y="-221" on="0"/>
        <pt x="329" y="-175" on="0"/>
        <pt x="329" y="-144" on="1"/>
        <pt x="329" y="-106" on="0"/>
        <pt x="399" y="-26" on="0"/>
        <pt x="444" y="-3" on="1"/>
        <pt x="286" y="-1" on="0"/>
        <pt x="167" y="-1" on="1"/>
        <pt x="135" y="-1" on="0"/>
        <pt x="52" y="-3" on="0"/>
        <pt x="43" y="-3" on="1"/>
        <pt x="40" y="2" on="0"/>
        <pt x="40" y="26" on="0"/>
        <pt x="43" y="30" on="1"/>
        <pt x="59" y="30" on="0"/>
        <pt x="106" y="38" on="0"/>
        <pt x="109" y="46" on="1"/>
        <pt x="116" y="67" on="0"/>
        <pt x="116" y="130" on="1"/>
        <pt x="116" y="528" on="1"/>
        <pt x="116" y="591" on="0"/>
        <pt x="109" y="612" on="1"/>
        <pt x="106" y="620" on="0"/>
        <pt x="59" y="628" on="0"/>
        <pt x="43" y="628" on="1"/>
        <pt x="40" y="632" on="0"/>
        <pt x="40" y="656" on="0"/>
        <pt x="43" y="661" on="1"/>
        <pt x="150" y="656" on="0"/>
      </contour>
    </TTGlyph>
    <TTGlyph name="Eth" xMin="39" yMin="-3" xMax="693" yMax="661">
      <contour>
        <pt x="375" y="310" on="1"/>
        <pt x="375" y="310" on="0"/>
        <pt x="42" y="310" on="1"/>
        <pt x="40" y="310" on="0"/>
        <pt x="38" y="325" on="0"/>
        <pt x="40" y="344" on="0"/>
        <pt x="43" y="348" on="1"/>
        <pt x="375" y="348" on="1"/>
        <pt x="378" y="348" on="0"/>
        <pt x="378" y="317" on="0"/>
      </contour>
      <contour>
        <pt x="233" y="543" on="1"/>
        <pt x="233" y="130" on="1"/>
        <pt x="233" y="69" on="0"/>
        <pt x="240" y="54" on="1"/>
        <pt x="251" y="35" on="0"/>
        <pt x="312" y="35" on="1"/>
        <pt x="430" y="35" on="0"/>
        <pt x="564" y="177" on="0"/>
        <pt x="564" y="319" on="1"/>
        <pt x="564" y="469" on="0"/>
        <pt x="414" y="622" on="0"/>
        <pt x="297" y="622" on="1"/>
        <pt x="243" y="622" on="0"/>
        <pt x="238" y="610" on="1"/>
        <pt x="233" y="596" on="0"/>
      </contour>
      <contour>
        <pt x="325" y="659" on="1"/>
        <pt x="493" y="659" on="0"/>
        <pt x="693" y="482" on="0"/>
        <pt x="693" y="335" on="1"/>
        <pt x="693" y="180" on="0"/>
        <pt x="498" y="-3" on="0"/>
        <pt x="315" y="-3" on="1"/>
        <pt x="46" y="-3" on="1"/>
        <pt x="43" y="2" on="0"/>
        <pt x="43" y="26" on="0"/>
        <pt x="46" y="30" on="1"/>
        <pt x="62" y="30" on="0"/>
        <pt x="109" y="38" on="0"/>
        <pt x="112" y="46" on="1"/>
        <pt x="119" y="67" on="0"/>
        <pt x="119" y="130" on="1"/>
        <pt x="119" y="528" on="1"/>
        <pt x="119" y="591" on="0"/>
        <pt x="112" y="612" on="1"/>
        <pt x="109" y="620" on="0"/>
        <pt x="62" y="628" on="0"/>
        <pt x="46" y="628" on="1"/>
        <pt x="43" y="632" on="0"/>
        <pt x="43" y="656" on="0"/>
        <pt x="46" y="661" on="1"/>
        <pt x="132" y="657" on="0"/>
        <pt x="176" y="657" on="1"/>
        <pt x="194" y="657" on="0"/>
        <pt x="298" y="659" on="0"/>
      </contour>
    </TTGlyph>
    <TTGlyph name="Euro" xMin="8" yMin="-6" xMax="626" yMax="641">
      <contour>
        <pt x="383" y="641" on="1"/>
        <pt x="496" y="641" on="0"/>
        <pt x="585" y="623" on="1"/>
        <pt x="585" y="622" on="0"/>
        <pt x="600" y="552" on="0"/>
        <pt x="613" y="484" on="0"/>
        <pt x="613" y="479" on="1"/>
        <pt x="613" y="473" on="0"/>
        <pt x="598" y="464" on="0"/>
        <pt x="590" y="464" on="1"/>
        <pt x="580" y="464" on="0"/>
        <pt x="576" y="469" on="1"/>
        <pt x="544" y="603" on="0"/>
        <pt x="390" y="603" on="1"/>
        <pt x="303" y="603" on="0"/>
        <pt x="195" y="478" on="0"/>
        <pt x="182" y="385" on="1"/>
        <pt x="386" y="385" on="1"/>
        <pt x="394" y="375" on="0"/>
        <pt x="383" y="347" on="0"/>
        <pt x="376" y="342" on="1"/>
        <pt x="179" y="342" on="1"/>
        <pt x="179" y="339" on="0"/>
        <pt x="179" y="335" on="1"/>
        <pt x="179" y="311" on="0"/>
        <pt x="181" y="287" on="1"/>
        <pt x="386" y="287" on="1"/>
        <pt x="394" y="277" on="0"/>
        <pt x="383" y="249" on="0"/>
        <pt x="376" y="244" on="1"/>
        <pt x="188" y="244" on="1"/>
        <pt x="207" y="151" on="0"/>
        <pt x="319" y="32" on="0"/>
        <pt x="407" y="32" on="1"/>
        <pt x="482" y="32" on="0"/>
        <pt x="530" y="75" on="1"/>
        <pt x="556" y="98" on="0"/>
        <pt x="589" y="168" on="0"/>
        <pt x="594" y="190" on="1"/>
        <pt x="617" y="190" on="0"/>
        <pt x="626" y="181" on="1"/>
        <pt x="626" y="166" on="0"/>
        <pt x="598" y="44" on="0"/>
        <pt x="589" y="38" on="1"/>
        <pt x="493" y="-6" on="0"/>
        <pt x="380" y="-6" on="1"/>
        <pt x="260" y="-6" on="0"/>
        <pt x="84" y="135" on="0"/>
        <pt x="61" y="244" on="1"/>
        <pt x="8" y="244" on="1"/>
        <pt x="3" y="249" on="0"/>
        <pt x="21" y="287" on="0"/>
        <pt x="28" y="287" on="1"/>
        <pt x="55" y="287" on="1"/>
        <pt x="54" y="298" on="0"/>
        <pt x="54" y="310" on="1"/>
        <pt x="54" y="326" on="0"/>
        <pt x="55" y="342" on="1"/>
        <pt x="8" y="342" on="1"/>
        <pt x="3" y="347" on="0"/>
        <pt x="21" y="385" on="0"/>
        <pt x="28" y="385" on="1"/>
        <pt x="62" y="385" on="1"/>
        <pt x="87" y="497" on="0"/>
        <pt x="264" y="641" on="0"/>
      </contour>
    </TTGlyph>
    <TTGlyph name="F" xMin="40" yMin="-4" xMax="526" yMax="664">
      <contour>
        <pt x="173" y="656" on="1"/>
        <pt x="205" y="656" on="0"/>
        <pt x="453" y="664" on="0"/>
        <pt x="497" y="664" on="1"/>
        <pt x="501" y="634" on="0"/>
        <pt x="525" y="527" on="0"/>
        <pt x="526" y="522" on="1"/>
        <pt x="521" y="517" on="0"/>
        <pt x="505" y="517" on="1"/>
        <pt x="493" y="517" on="0"/>
        <pt x="490" y="524" on="1"/>
        <pt x="474" y="575" on="0"/>
        <pt x="421" y="620" on="0"/>
        <pt x="378" y="620" on="1"/>
        <pt x="294" y="620" on="1"/>
        <pt x="238" y="620" on="0"/>
        <pt x="230" y="598" on="0"/>
        <pt x="230" y="543" on="1"/>
        <pt x="230" y="360" on="1"/>
        <pt x="230" y="351" on="0"/>
        <pt x="272" y="351" on="1"/>
        <pt x="325" y="351" on="1"/>
        <pt x="382" y="351" on="0"/>
        <pt x="412" y="374" on="0"/>
        <pt x="424" y="422" on="1"/>
        <pt x="426" y="430" on="0"/>
        <pt x="450" y="430" on="0"/>
        <pt x="456" y="424" on="1"/>
        <pt x="456" y="234" on="1"/>
        <pt x="452" y="230" on="0"/>
        <pt x="439" y="230" on="1"/>
        <pt x="427" y="230" on="0"/>
        <pt x="424" y="238" on="1"/>
        <pt x="409" y="292" on="0"/>
        <pt x="392" y="302" on="1"/>
        <pt x="378" y="309" on="0"/>
        <pt x="301" y="309" on="1"/>
        <pt x="230" y="309" on="0"/>
        <pt x="230" y="298" on="1"/>
        <pt x="230" y="130" on="1"/>
        <pt x="230" y="64" on="0"/>
        <pt x="236" y="46" on="1"/>
        <pt x="239" y="38" on="0"/>
        <pt x="296" y="29" on="0"/>
        <pt x="312" y="29" on="1"/>
        <pt x="315" y="24" on="0"/>
        <pt x="315" y="0" on="0"/>
        <pt x="312" y="-4" on="1"/>
        <pt x="232" y="2" on="0"/>
        <pt x="172" y="2" on="1"/>
        <pt x="160" y="2" on="0"/>
        <pt x="43" y="-4" on="1"/>
        <pt x="40" y="0" on="0"/>
        <pt x="40" y="24" on="0"/>
        <pt x="43" y="29" on="1"/>
        <pt x="58" y="29" on="0"/>
        <pt x="106" y="38" on="0"/>
        <pt x="109" y="46" on="1"/>
        <pt x="116" y="67" on="0"/>
        <pt x="116" y="130" on="1"/>
        <pt x="116" y="528" on="1"/>
        <pt x="116" y="591" on="0"/>
        <pt x="109" y="612" on="1"/>
        <pt x="106" y="620" on="0"/>
        <pt x="59" y="628" on="0"/>
        <pt x="43" y="628" on="1"/>
        <pt x="40" y="632" on="0"/>
        <pt x="40" y="656" on="0"/>
        <pt x="43" y="661" on="1"/>
        <pt x="150" y="656" on="0"/>
      </contour>
    </TTGlyph>
    <TTGlyph name="G" xMin="44" yMin="-6" xMax="700" yMax="667">
      <contour>
        <pt x="517" y="179" on="1"/>
        <pt x="517" y="226" on="0"/>
        <pt x="512" y="242" on="1"/>
        <pt x="506" y="263" on="0"/>
        <pt x="442" y="263" on="1"/>
        <pt x="439" y="265" on="0"/>
        <pt x="437" y="292" on="0"/>
        <pt x="441" y="296" on="1"/>
        <pt x="579" y="290" on="1"/>
        <pt x="597" y="290" on="0"/>
        <pt x="636" y="292" on="0"/>
        <pt x="683" y="295" on="0"/>
        <pt x="697" y="296" on="1"/>
        <pt x="700" y="289" on="0"/>
        <pt x="700" y="264" on="0"/>
        <pt x="697" y="263" on="1"/>
        <pt x="686" y="263" on="0"/>
        <pt x="642" y="254" on="0"/>
        <pt x="637" y="248" on="1"/>
        <pt x="629" y="235" on="0"/>
        <pt x="629" y="190" on="1"/>
        <pt x="629" y="101" on="1"/>
        <pt x="629" y="93" on="0"/>
        <pt x="637" y="69" on="0"/>
        <pt x="637" y="66" on="1"/>
        <pt x="637" y="57" on="0"/>
        <pt x="609" y="44" on="1"/>
        <pt x="499" y="-6" on="0"/>
        <pt x="383" y="-6" on="1"/>
        <pt x="238" y="-6" on="0"/>
        <pt x="44" y="184" on="0"/>
        <pt x="44" y="322" on="1"/>
        <pt x="44" y="464" on="0"/>
        <pt x="242" y="667" on="0"/>
        <pt x="386" y="667" on="1"/>
        <pt x="502" y="667" on="0"/>
        <pt x="596" y="647" on="1"/>
        <pt x="596" y="646" on="0"/>
        <pt x="611" y="574" on="0"/>
        <pt x="624" y="503" on="0"/>
        <pt x="624" y="498" on="1"/>
        <pt x="624" y="492" on="0"/>
        <pt x="609" y="482" on="0"/>
        <pt x="601" y="482" on="1"/>
        <pt x="591" y="482" on="0"/>
        <pt x="587" y="487" on="1"/>
        <pt x="582" y="507" on="0"/>
        <pt x="566" y="543" on="0"/>
        <pt x="526" y="595" on="0"/>
        <pt x="448" y="627" on="0"/>
        <pt x="394" y="627" on="1"/>
        <pt x="323" y="627" on="0"/>
        <pt x="221" y="543" on="0"/>
        <pt x="174" y="418" on="0"/>
        <pt x="174" y="345" on="1"/>
        <pt x="174" y="264" on="0"/>
        <pt x="224" y="126" on="0"/>
        <pt x="334" y="34" on="0"/>
        <pt x="409" y="34" on="1"/>
        <pt x="465" y="34" on="0"/>
        <pt x="509" y="56" on="1"/>
        <pt x="517" y="59" on="0"/>
        <pt x="517" y="70" on="1"/>
      </contour>
    </TTGlyph>
    <TTGlyph name="Gbreve" xMin="44" yMin="-6" xMax="697" yMax="831">
      <component glyphName="uni0306.cap" x="261" y="113" flags="0x1004"/>
      <component glyphName="G" x="0" y="0" flags="0x1204"/>
    </TTGlyph>
    <TTGlyph name="Gcaron" xMin="44" yMin="-6" xMax="697" yMax="864">
      <component glyphName="uni030C.cap" x="13" y="1" flags="0x1004"/>
      <component glyphName="G" x="0" y="0" flags="0x1204"/>
    </TTGlyph>
    <TTGlyph name="Gcircumflex" xMin="44" yMin="-6" xMax="697" yMax="864">
      <component glyphName="uni0302.cap" x="240" y="13" flags="0x1004"/>
      <component glyphName="G" x="0" y="0" flags="0x1204"/>
    </TTGlyph>
    <TTGlyph name="Gcommaaccent" xMin="44" yMin="-243" xMax="697" yMax="667">
      <component glyphName="uni0326" x="296" y="-23" flags="0x1004"/>
      <component glyphName="G" x="0" y="0" flags="0x1204"/>
    </TTGlyph>
    <TTGlyph name="Gdotaccent" xMin="44" yMin="-6" xMax="697" yMax="846">
      <component glyphName="uni0307.cap" x="233" y="12" flags="0x1004"/>
      <component glyphName="G" x="0" y="0" flags="0x1204"/>
    </TTGlyph>
    <TTGlyph name="H" xMin="40" yMin="-4" xMax="696" yMax="662">
      <contour>
        <pt x="173" y="656" on="1"/>
        <pt x="222" y="656" on="0"/>
        <pt x="302" y="662" on="1"/>
        <pt x="305" y="658" on="0"/>
        <pt x="305" y="632" on="0"/>
        <pt x="302" y="628" on="1"/>
        <pt x="288" y="628" on="0"/>
        <pt x="239" y="618" on="0"/>
        <pt x="236" y="610" on="1"/>
        <pt x="230" y="592" on="0"/>
        <pt x="230" y="526" on="1"/>
        <pt x="230" y="368" on="1"/>
        <pt x="231" y="365" on="1"/>
        <pt x="363" y="362" on="0"/>
        <pt x="370" y="362" on="1"/>
        <pt x="385" y="362" on="0"/>
        <pt x="505" y="365" on="1"/>
        <pt x="507" y="367" on="0"/>
        <pt x="507" y="369" on="1"/>
        <pt x="507" y="526" on="1"/>
        <pt x="507" y="589" on="0"/>
        <pt x="500" y="610" on="1"/>
        <pt x="497" y="618" on="0"/>
        <pt x="448" y="628" on="0"/>
        <pt x="434" y="628" on="1"/>
        <pt x="431" y="632" on="0"/>
        <pt x="431" y="658" on="0"/>
        <pt x="434" y="662" on="1"/>
        <pt x="514" y="656" on="0"/>
        <pt x="564" y="656" on="1"/>
        <pt x="613" y="656" on="0"/>
        <pt x="693" y="662" on="1"/>
        <pt x="696" y="658" on="0"/>
        <pt x="696" y="632" on="0"/>
        <pt x="693" y="628" on="1"/>
        <pt x="679" y="628" on="0"/>
        <pt x="630" y="618" on="0"/>
        <pt x="627" y="610" on="1"/>
        <pt x="621" y="592" on="0"/>
        <pt x="621" y="526" on="1"/>
        <pt x="621" y="132" on="1"/>
        <pt x="621" y="66" on="0"/>
        <pt x="627" y="48" on="1"/>
        <pt x="630" y="40" on="0"/>
        <pt x="679" y="30" on="0"/>
        <pt x="693" y="30" on="1"/>
        <pt x="696" y="26" on="0"/>
        <pt x="696" y="0" on="0"/>
        <pt x="693" y="-4" on="1"/>
        <pt x="613" y="2" on="0"/>
        <pt x="563" y="2" on="1"/>
        <pt x="514" y="2" on="0"/>
        <pt x="434" y="-4" on="1"/>
        <pt x="431" y="0" on="0"/>
        <pt x="431" y="26" on="0"/>
        <pt x="434" y="30" on="1"/>
        <pt x="448" y="30" on="0"/>
        <pt x="497" y="40" on="0"/>
        <pt x="500" y="48" on="1"/>
        <pt x="507" y="69" on="0"/>
        <pt x="507" y="132" on="1"/>
        <pt x="507" y="314" on="1"/>
        <pt x="505" y="318" on="1"/>
        <pt x="379" y="321" on="0"/>
        <pt x="370" y="321" on="1"/>
        <pt x="240" y="321" on="0"/>
        <pt x="230" y="316" on="1"/>
        <pt x="230" y="313" on="1"/>
        <pt x="230" y="132" on="1"/>
        <pt x="230" y="66" on="0"/>
        <pt x="236" y="48" on="1"/>
        <pt x="239" y="40" on="0"/>
        <pt x="288" y="30" on="0"/>
        <pt x="302" y="30" on="1"/>
        <pt x="305" y="26" on="0"/>
        <pt x="305" y="0" on="0"/>
        <pt x="302" y="-4" on="1"/>
        <pt x="222" y="2" on="0"/>
        <pt x="172" y="2" on="1"/>
        <pt x="123" y="2" on="0"/>
        <pt x="43" y="-4" on="1"/>
        <pt x="40" y="0" on="0"/>
        <pt x="40" y="26" on="0"/>
        <pt x="43" y="30" on="1"/>
        <pt x="57" y="30" on="0"/>
        <pt x="106" y="40" on="0"/>
        <pt x="109" y="48" on="1"/>
        <pt x="116" y="69" on="0"/>
        <pt x="116" y="132" on="1"/>
        <pt x="116" y="526" on="1"/>
        <pt x="116" y="589" on="0"/>
        <pt x="109" y="610" on="1"/>
        <pt x="106" y="618" on="0"/>
        <pt x="57" y="628" on="0"/>
        <pt x="43" y="628" on="1"/>
        <pt x="40" y="632" on="0"/>
        <pt x="40" y="658" on="0"/>
        <pt x="43" y="662" on="1"/>
        <pt x="123" y="656" on="0"/>
      </contour>
    </TTGlyph>
    <TTGlyph name="Hbar" xMin="40" yMin="-4" xMax="696" yMax="662">
      <contour>
        <pt x="676" y="488" on="1"/>
        <pt x="676" y="488" on="0"/>
        <pt x="48" y="488" on="1"/>
        <pt x="46" y="488" on="0"/>
        <pt x="44" y="503" on="0"/>
        <pt x="46" y="522" on="0"/>
        <pt x="49" y="526" on="1"/>
        <pt x="676" y="526" on="1"/>
        <pt x="679" y="526" on="0"/>
        <pt x="679" y="495" on="0"/>
      </contour>
      <contour>
        <pt x="173" y="656" on="1"/>
        <pt x="222" y="656" on="0"/>
        <pt x="302" y="662" on="1"/>
        <pt x="305" y="658" on="0"/>
        <pt x="305" y="632" on="0"/>
        <pt x="302" y="628" on="1"/>
        <pt x="288" y="628" on="0"/>
        <pt x="239" y="618" on="0"/>
        <pt x="236" y="610" on="1"/>
        <pt x="230" y="592" on="0"/>
        <pt x="230" y="526" on="1"/>
        <pt x="230" y="368" on="1"/>
        <pt x="231" y="365" on="1"/>
        <pt x="363" y="362" on="0"/>
        <pt x="370" y="362" on="1"/>
        <pt x="385" y="362" on="0"/>
        <pt x="505" y="365" on="1"/>
        <pt x="507" y="367" on="0"/>
        <pt x="507" y="369" on="1"/>
        <pt x="507" y="526" on="1"/>
        <pt x="507" y="589" on="0"/>
        <pt x="500" y="610" on="1"/>
        <pt x="497" y="618" on="0"/>
        <pt x="448" y="628" on="0"/>
        <pt x="434" y="628" on="1"/>
        <pt x="431" y="632" on="0"/>
        <pt x="431" y="658" on="0"/>
        <pt x="434" y="662" on="1"/>
        <pt x="514" y="656" on="0"/>
        <pt x="564" y="656" on="1"/>
        <pt x="613" y="656" on="0"/>
        <pt x="693" y="662" on="1"/>
        <pt x="696" y="658" on="0"/>
        <pt x="696" y="632" on="0"/>
        <pt x="693" y="628" on="1"/>
        <pt x="679" y="628" on="0"/>
        <pt x="630" y="618" on="0"/>
        <pt x="627" y="610" on="1"/>
        <pt x="621" y="592" on="0"/>
        <pt x="621" y="526" on="1"/>
        <pt x="621" y="132" on="1"/>
        <pt x="621" y="66" on="0"/>
        <pt x="627" y="48" on="1"/>
        <pt x="630" y="40" on="0"/>
        <pt x="679" y="30" on="0"/>
        <pt x="693" y="30" on="1"/>
        <pt x="696" y="26" on="0"/>
        <pt x="696" y="0" on="0"/>
        <pt x="693" y="-4" on="1"/>
        <pt x="613" y="2" on="0"/>
        <pt x="563" y="2" on="1"/>
        <pt x="514" y="2" on="0"/>
        <pt x="434" y="-4" on="1"/>
        <pt x="431" y="0" on="0"/>
        <pt x="431" y="26" on="0"/>
        <pt x="434" y="30" on="1"/>
        <pt x="448" y="30" on="0"/>
        <pt x="497" y="40" on="0"/>
        <pt x="500" y="48" on="1"/>
        <pt x="507" y="69" on="0"/>
        <pt x="507" y="132" on="1"/>
        <pt x="507" y="314" on="1"/>
        <pt x="505" y="318" on="1"/>
        <pt x="379" y="321" on="0"/>
        <pt x="370" y="321" on="1"/>
        <pt x="240" y="321" on="0"/>
        <pt x="230" y="316" on="1"/>
        <pt x="230" y="313" on="1"/>
        <pt x="230" y="132" on="1"/>
        <pt x="230" y="66" on="0"/>
        <pt x="236" y="48" on="1"/>
        <pt x="239" y="40" on="0"/>
        <pt x="288" y="30" on="0"/>
        <pt x="302" y="30" on="1"/>
        <pt x="305" y="26" on="0"/>
        <pt x="305" y="0" on="0"/>
        <pt x="302" y="-4" on="1"/>
        <pt x="222" y="2" on="0"/>
        <pt x="172" y="2" on="1"/>
        <pt x="123" y="2" on="0"/>
        <pt x="43" y="-4" on="1"/>
        <pt x="40" y="0" on="0"/>
        <pt x="40" y="26" on="0"/>
        <pt x="43" y="30" on="1"/>
        <pt x="57" y="30" on="0"/>
        <pt x="106" y="40" on="0"/>
        <pt x="109" y="48" on="1"/>
        <pt x="116" y="69" on="0"/>
        <pt x="116" y="132" on="1"/>
        <pt x="116" y="526" on="1"/>
        <pt x="116" y="589" on="0"/>
        <pt x="109" y="610" on="1"/>
        <pt x="106" y="618" on="0"/>
        <pt x="57" y="628" on="0"/>
        <pt x="43" y="628" on="1"/>
        <pt x="40" y="632" on="0"/>
        <pt x="40" y="658" on="0"/>
        <pt x="43" y="662" on="1"/>
        <pt x="123" y="656" on="0"/>
      </contour>
    </TTGlyph>
    <TTGlyph name="Hcircumflex" xMin="43" yMin="-4" xMax="693" yMax="864">
      <component glyphName="uni0302.cap" x="220" y="13" flags="0x1004"/>
      <component glyphName="H" x="0" y="0" flags="0x1204"/>
    </TTGlyph>
    <TTGlyph name="I" xMin="40" yMin="-4" xMax="305" yMax="662">
      <contour>
        <pt x="173" y="656" on="1"/>
        <pt x="222" y="656" on="0"/>
        <pt x="302" y="662" on="1"/>
        <pt x="305" y="658" on="0"/>
        <pt x="305" y="634" on="0"/>
        <pt x="302" y="629" on="1"/>
        <pt x="287" y="629" on="0"/>
        <pt x="239" y="620" on="0"/>
        <pt x="236" y="612" on="1"/>
        <pt x="230" y="594" on="0"/>
        <pt x="230" y="528" on="1"/>
        <pt x="230" y="130" on="1"/>
        <pt x="230" y="64" on="0"/>
        <pt x="236" y="46" on="1"/>
        <pt x="239" y="38" on="0"/>
        <pt x="287" y="29" on="0"/>
        <pt x="302" y="29" on="1"/>
        <pt x="305" y="24" on="0"/>
        <pt x="305" y="0" on="0"/>
        <pt x="302" y="-4" on="1"/>
        <pt x="222" y="2" on="0"/>
        <pt x="172" y="2" on="1"/>
        <pt x="123" y="2" on="0"/>
        <pt x="43" y="-4" on="1"/>
        <pt x="40" y="0" on="0"/>
        <pt x="40" y="24" on="0"/>
        <pt x="43" y="29" on="1"/>
        <pt x="58" y="29" on="0"/>
        <pt x="106" y="38" on="0"/>
        <pt x="109" y="46" on="1"/>
        <pt x="116" y="67" on="0"/>
        <pt x="116" y="130" on="1"/>
        <pt x="116" y="528" on="1"/>
        <pt x="116" y="591" on="0"/>
        <pt x="109" y="612" on="1"/>
        <pt x="106" y="620" on="0"/>
        <pt x="58" y="629" on="0"/>
        <pt x="43" y="629" on="1"/>
        <pt x="40" y="634" on="0"/>
        <pt x="40" y="658" on="0"/>
        <pt x="43" y="662" on="1"/>
        <pt x="123" y="656" on="0"/>
      </contour>
    </TTGlyph>
    <TTGlyph name="IJ" xMin="43" yMin="-222" xMax="606" yMax="662">
      <component glyphName="J" x="311" y="0" flags="0x1004"/>
      <component glyphName="I" x="0" y="0" flags="0x1004"/>
    </TTGlyph>
    <TTGlyph name="Iacute" xMin="43" yMin="-4" xMax="302" yMax="865">
      <component glyphName="acutecomb.cap" x="78" y="2" flags="0x1004"/>
      <component glyphName="I" x="0" y="0" flags="0x1204"/>
    </TTGlyph>
    <TTGlyph name="Ibreve" xMin="43" yMin="-4" xMax="302" yMax="831">
      <component glyphName="uni0306.cap" x="47" y="113" flags="0x1004"/>
      <component glyphName="I" x="0" y="0" flags="0x1204"/>
    </TTGlyph>
    <TTGlyph name="Icircumflex" xMin="43" yMin="-4" xMax="302" yMax="864">
      <component glyphName="uni0302.cap" x="19" y="13" flags="0x1004"/>
      <component glyphName="I" x="0" y="0" flags="0x1204"/>
    </TTGlyph>
    <TTGlyph name="Idieresis" xMin="7" yMin="-4" xMax="338" yMax="844">
      <component glyphName="uni0308.cap" x="-22" y="-14" flags="0x1004"/>
      <component glyphName="I" x="0" y="0" flags="0x1204"/>
    </TTGlyph>
    <TTGlyph name="Idotaccent" xMin="43" yMin="-4" xMax="302" yMax="846">
      <component glyphName="uni0307.cap" x="9" y="12" flags="0x1004"/>
      <component glyphName="I" x="0" y="0" flags="0x1204"/>
    </TTGlyph>
    <TTGlyph name="Igrave" xMin="43" yMin="-4" xMax="302" yMax="865">
      <component glyphName="gravecomb.cap" x="26" y="2" flags="0x1004"/>
      <component glyphName="I" x="0" y="0" flags="0x1204"/>
    </TTGlyph>
    <TTGlyph name="Imacron" xMin="31" yMin="-4" xMax="317" yMax="776">
      <component glyphName="uni0304.cap" x="-31" y="81" flags="0x1004"/>
      <component glyphName="I" x="0" y="0" flags="0x1204"/>
    </TTGlyph>
    <TTGlyph name="Iogonek" xMin="40" yMin="-221" xMax="305" yMax="662">
      <contour>
        <pt x="173" y="656" on="1"/>
        <pt x="222" y="656" on="0"/>
        <pt x="302" y="662" on="1"/>
        <pt x="305" y="658" on="0"/>
        <pt x="305" y="634" on="0"/>
        <pt x="302" y="629" on="1"/>
        <pt x="287" y="629" on="0"/>
        <pt x="239" y="620" on="0"/>
        <pt x="236" y="612" on="1"/>
        <pt x="230" y="594" on="0"/>
        <pt x="230" y="528" on="1"/>
        <pt x="230" y="130" on="1"/>
        <pt x="230" y="64" on="0"/>
        <pt x="236" y="46" on="1"/>
        <pt x="239" y="38" on="0"/>
        <pt x="287" y="29" on="0"/>
        <pt x="302" y="29" on="1"/>
        <pt x="305" y="24" on="0"/>
        <pt x="305" y="0" on="0"/>
        <pt x="302" y="-4" on="1"/>
        <pt x="225" y="2" on="0"/>
        <pt x="210" y="2" on="1"/>
        <pt x="150" y="-56" on="0"/>
        <pt x="150" y="-112" on="1"/>
        <pt x="150" y="-129" on="0"/>
        <pt x="171" y="-157" on="0"/>
        <pt x="195" y="-157" on="1"/>
        <pt x="213" y="-157" on="0"/>
        <pt x="247" y="-140" on="0"/>
        <pt x="272" y="-118" on="0"/>
        <pt x="273" y="-118" on="1"/>
        <pt x="278" y="-118" on="0"/>
        <pt x="278" y="-130" on="1"/>
        <pt x="278" y="-144" on="0"/>
        <pt x="272" y="-152" on="1"/>
        <pt x="254" y="-177" on="0"/>
        <pt x="191" y="-221" on="0"/>
        <pt x="158" y="-221" on="1"/>
        <pt x="126" y="-221" on="0"/>
        <pt x="86" y="-175" on="0"/>
        <pt x="86" y="-113" on="0"/>
        <pt x="134" y="-28" on="0"/>
        <pt x="163" y="2" on="1"/>
        <pt x="117" y="2" on="0"/>
        <pt x="43" y="-4" on="1"/>
        <pt x="40" y="0" on="0"/>
        <pt x="40" y="24" on="0"/>
        <pt x="43" y="29" on="1"/>
        <pt x="58" y="29" on="0"/>
        <pt x="106" y="38" on="0"/>
        <pt x="109" y="46" on="1"/>
        <pt x="116" y="67" on="0"/>
        <pt x="116" y="130" on="1"/>
        <pt x="116" y="528" on="1"/>
        <pt x="116" y="591" on="0"/>
        <pt x="109" y="612" on="1"/>
        <pt x="106" y="620" on="0"/>
        <pt x="58" y="629" on="0"/>
        <pt x="43" y="629" on="1"/>
        <pt x="40" y="634" on="0"/>
        <pt x="40" y="658" on="0"/>
        <pt x="43" y="662" on="1"/>
        <pt x="123" y="656" on="0"/>
      </contour>
    </TTGlyph>
    <TTGlyph name="Itilde" xMin="8" yMin="-4" xMax="339" yMax="833">
      <component glyphName="tildecomb.cap" x="-110" y="-3" flags="0x1004"/>
      <component glyphName="I" x="0" y="0" flags="0x1204"/>
    </TTGlyph>
    <TTGlyph name="J" xMin="-115" yMin="-222" xMax="298" yMax="662">
      <contour>
        <pt x="167" y="656" on="1"/>
        <pt x="215" y="656" on="0"/>
        <pt x="295" y="662" on="1"/>
        <pt x="298" y="658" on="0"/>
        <pt x="298" y="634" on="0"/>
        <pt x="295" y="629" on="1"/>
        <pt x="280" y="629" on="0"/>
        <pt x="232" y="620" on="0"/>
        <pt x="229" y="612" on="1"/>
        <pt x="223" y="594" on="0"/>
        <pt x="223" y="528" on="1"/>
        <pt x="223" y="130" on="1"/>
        <pt x="223" y="-33" on="0"/>
        <pt x="80" y="-222" on="0"/>
        <pt x="-43" y="-222" on="1"/>
        <pt x="-80" y="-222" on="0"/>
        <pt x="-103" y="-204" on="1"/>
        <pt x="-115" y="-188" on="0"/>
        <pt x="-115" y="-172" on="1"/>
        <pt x="-115" y="-147" on="0"/>
        <pt x="-82" y="-110" on="0"/>
        <pt x="-59" y="-110" on="1"/>
        <pt x="-38" y="-110" on="0"/>
        <pt x="-7" y="-141" on="1"/>
        <pt x="20" y="-168" on="0"/>
        <pt x="37" y="-168" on="1"/>
        <pt x="109" y="-168" on="0"/>
        <pt x="109" y="126" on="1"/>
        <pt x="109" y="528" on="1"/>
        <pt x="109" y="594" on="0"/>
        <pt x="103" y="612" on="1"/>
        <pt x="100" y="620" on="0"/>
        <pt x="51" y="629" on="0"/>
        <pt x="36" y="629" on="1"/>
        <pt x="33" y="634" on="0"/>
        <pt x="33" y="658" on="0"/>
        <pt x="36" y="662" on="1"/>
        <pt x="116" y="656" on="0"/>
      </contour>
    </TTGlyph>
    <TTGlyph name="Jcircumflex" xMin="-115" yMin="-222" xMax="295" yMax="864">
      <component glyphName="uni0302.cap" x="10" y="13" flags="0x1004"/>
      <component glyphName="J" x="0" y="0" flags="0x1204"/>
    </TTGlyph>
    <TTGlyph name="K" xMin="40" yMin="-4" xMax="698" yMax="662">
      <contour>
        <pt x="173" y="656" on="1"/>
        <pt x="222" y="656" on="0"/>
        <pt x="302" y="662" on="1"/>
        <pt x="305" y="658" on="0"/>
        <pt x="305" y="632" on="0"/>
        <pt x="302" y="628" on="1"/>
        <pt x="288" y="628" on="0"/>
        <pt x="239" y="618" on="0"/>
        <pt x="236" y="610" on="1"/>
        <pt x="230" y="592" on="0"/>
        <pt x="230" y="526" on="1"/>
        <pt x="230" y="340" on="1"/>
        <pt x="282" y="379" on="0"/>
        <pt x="338" y="435" on="1"/>
        <pt x="350" y="447" on="0"/>
        <pt x="386" y="483" on="0"/>
        <pt x="399" y="496" on="0"/>
        <pt x="422" y="520" on="0"/>
        <pt x="436" y="536" on="0"/>
        <pt x="455" y="559" on="0"/>
        <pt x="466" y="574" on="1"/>
        <pt x="478" y="589" on="0"/>
        <pt x="478" y="606" on="1"/>
        <pt x="478" y="628" on="0"/>
        <pt x="422" y="628" on="1"/>
        <pt x="419" y="633" on="0"/>
        <pt x="419" y="655" on="0"/>
        <pt x="421" y="662" on="1"/>
        <pt x="532" y="656" on="0"/>
        <pt x="544" y="656" on="1"/>
        <pt x="584" y="656" on="0"/>
        <pt x="660" y="662" on="1"/>
        <pt x="662" y="658" on="0"/>
        <pt x="661" y="631" on="0"/>
        <pt x="658" y="629" on="1"/>
        <pt x="584" y="621" on="0"/>
        <pt x="552" y="588" on="1"/>
        <pt x="533" y="567" on="0"/>
        <pt x="467" y="501" on="0"/>
        <pt x="374" y="409" on="0"/>
        <pt x="343" y="378" on="1"/>
        <pt x="336" y="371" on="0"/>
        <pt x="343" y="362" on="1"/>
        <pt x="529" y="129" on="0"/>
        <pt x="559" y="101" on="1"/>
        <pt x="616" y="35" on="0"/>
        <pt x="696" y="30" on="1"/>
        <pt x="699" y="24" on="0"/>
        <pt x="697" y="-1" on="0"/>
        <pt x="696" y="-4" on="1"/>
        <pt x="603" y="-6" on="0"/>
        <pt x="559" y="0" on="1"/>
        <pt x="496" y="3" on="0"/>
        <pt x="449" y="59" on="1"/>
        <pt x="439" y="71" on="0"/>
        <pt x="374" y="150" on="0"/>
        <pt x="280" y="264" on="0"/>
        <pt x="248" y="303" on="1"/>
        <pt x="246" y="306" on="0"/>
        <pt x="239" y="306" on="1"/>
        <pt x="234" y="306" on="0"/>
        <pt x="230" y="302" on="1"/>
        <pt x="230" y="132" on="1"/>
        <pt x="230" y="66" on="0"/>
        <pt x="236" y="48" on="1"/>
        <pt x="239" y="40" on="0"/>
        <pt x="288" y="30" on="0"/>
        <pt x="302" y="30" on="1"/>
        <pt x="305" y="26" on="0"/>
        <pt x="305" y="0" on="0"/>
        <pt x="302" y="-4" on="1"/>
        <pt x="222" y="2" on="0"/>
        <pt x="172" y="2" on="1"/>
        <pt x="123" y="2" on="0"/>
        <pt x="43" y="-4" on="1"/>
        <pt x="40" y="0" on="0"/>
        <pt x="40" y="26" on="0"/>
        <pt x="43" y="30" on="1"/>
        <pt x="57" y="30" on="0"/>
        <pt x="106" y="40" on="0"/>
        <pt x="109" y="48" on="1"/>
        <pt x="116" y="69" on="0"/>
        <pt x="116" y="132" on="1"/>
        <pt x="116" y="526" on="1"/>
        <pt x="116" y="589" on="0"/>
        <pt x="109" y="610" on="1"/>
        <pt x="106" y="618" on="0"/>
        <pt x="57" y="628" on="0"/>
        <pt x="43" y="628" on="1"/>
        <pt x="40" y="632" on="0"/>
        <pt x="40" y="658" on="0"/>
        <pt x="43" y="662" on="1"/>
        <pt x="123" y="656" on="0"/>
      </contour>
    </TTGlyph>
    <TTGlyph name="Kcommaaccent" xMin="43" yMin="-236" xMax="696" yMax="662">
      <component glyphName="uni0326" x="277" y="-16" flags="0x1004"/>
      <component glyphName="K" x="0" y="0" flags="0x1204"/>
    </TTGlyph>
    <TTGlyph name="L" xMin="40" yMin="-3" xMax="571" yMax="662">
      <contour>
        <pt x="230" y="130" on="1"/>
        <pt x="230" y="64" on="0"/>
        <pt x="236" y="54" on="1"/>
        <pt x="248" y="40" on="0"/>
        <pt x="304" y="40" on="1"/>
        <pt x="366" y="40" on="1"/>
        <pt x="436" y="40" on="0"/>
        <pt x="471" y="68" on="1"/>
        <pt x="507" y="97" on="0"/>
        <pt x="529" y="166" on="1"/>
        <pt x="530" y="172" on="0"/>
        <pt x="543" y="172" on="1"/>
        <pt x="565" y="172" on="0"/>
        <pt x="571" y="166" on="1"/>
        <pt x="568" y="157" on="0"/>
        <pt x="545" y="93" on="0"/>
        <pt x="533" y="60" on="0"/>
        <pt x="519" y="12" on="0"/>
        <pt x="517" y="-3" on="1"/>
        <pt x="491" y="-3" on="0"/>
        <pt x="249" y="-1" on="0"/>
        <pt x="174" y="-1" on="1"/>
        <pt x="140" y="-1" on="0"/>
        <pt x="52" y="-3" on="0"/>
        <pt x="43" y="-3" on="1"/>
        <pt x="40" y="2" on="0"/>
        <pt x="40" y="26" on="0"/>
        <pt x="43" y="30" on="1"/>
        <pt x="59" y="30" on="0"/>
        <pt x="106" y="38" on="0"/>
        <pt x="109" y="46" on="1"/>
        <pt x="116" y="67" on="0"/>
        <pt x="116" y="130" on="1"/>
        <pt x="116" y="528" on="1"/>
        <pt x="116" y="591" on="0"/>
        <pt x="109" y="612" on="1"/>
        <pt x="106" y="620" on="0"/>
        <pt x="58" y="629" on="0"/>
        <pt x="43" y="629" on="1"/>
        <pt x="40" y="634" on="0"/>
        <pt x="40" y="658" on="0"/>
        <pt x="43" y="662" on="1"/>
        <pt x="123" y="656" on="0"/>
        <pt x="173" y="656" on="1"/>
        <pt x="222" y="656" on="0"/>
        <pt x="302" y="662" on="1"/>
        <pt x="305" y="658" on="0"/>
        <pt x="305" y="634" on="0"/>
        <pt x="302" y="629" on="1"/>
        <pt x="287" y="629" on="0"/>
        <pt x="239" y="620" on="0"/>
        <pt x="236" y="612" on="1"/>
        <pt x="230" y="594" on="0"/>
        <pt x="230" y="528" on="1"/>
      </contour>
    </TTGlyph>
    <TTGlyph name="Lacute" xMin="43" yMin="-3" xMax="571" yMax="865">
      <component glyphName="acutecomb.cap" x="97" y="2" flags="0x1004"/>
      <component glyphName="L" x="0" y="0" flags="0x1204"/>
    </TTGlyph>
    <TTGlyph name="Lcaron" xMin="43" yMin="-3" xMax="571" yMax="684">
      <component glyphName="uni0315" x="382" y="14" flags="0x1004"/>
      <component glyphName="L" x="0" y="0" flags="0x1004"/>
    </TTGlyph>
    <TTGlyph name="Lcommaaccent" xMin="43" yMin="-235" xMax="571" yMax="662">
      <component glyphName="uni0326" x="205" y="-15" flags="0x1004"/>
      <component glyphName="L" x="0" y="0" flags="0x1204"/>
    </TTGlyph>
    <TTGlyph name="Ldot" xMin="43" yMin="-3" xMax="571" yMax="662">
      <component glyphName="periodcentered" x="344" y="68" flags="0x1004"/>
      <component glyphName="L" x="0" y="0" flags="0x1204"/>
    </TTGlyph>
    <TTGlyph name="Lslash" xMin="35" yMin="-3" xMax="575" yMax="662">
      <contour>
        <pt x="52" y="177" on="1"/>
        <pt x="46" y="183" on="0"/>
        <pt x="32" y="204" on="0"/>
        <pt x="35" y="207" on="1"/>
        <pt x="396" y="461" on="1"/>
        <pt x="420" y="438" on="0"/>
        <pt x="414" y="432" on="1"/>
      </contour>
      <contour>
        <pt x="234" y="130" on="1"/>
        <pt x="234" y="64" on="0"/>
        <pt x="240" y="54" on="1"/>
        <pt x="252" y="40" on="0"/>
        <pt x="308" y="40" on="1"/>
        <pt x="370" y="40" on="1"/>
        <pt x="440" y="40" on="0"/>
        <pt x="475" y="68" on="1"/>
        <pt x="511" y="97" on="0"/>
        <pt x="533" y="166" on="1"/>
        <pt x="534" y="172" on="0"/>
        <pt x="547" y="172" on="1"/>
        <pt x="569" y="172" on="0"/>
        <pt x="575" y="166" on="1"/>
        <pt x="572" y="157" on="0"/>
        <pt x="549" y="93" on="0"/>
        <pt x="537" y="60" on="0"/>
        <pt x="523" y="12" on="0"/>
        <pt x="521" y="-3" on="1"/>
        <pt x="495" y="-3" on="0"/>
        <pt x="253" y="-1" on="0"/>
        <pt x="178" y="-1" on="1"/>
        <pt x="144" y="-1" on="0"/>
        <pt x="56" y="-3" on="0"/>
        <pt x="47" y="-3" on="1"/>
        <pt x="44" y="2" on="0"/>
        <pt x="44" y="26" on="0"/>
        <pt x="47" y="30" on="1"/>
        <pt x="63" y="30" on="0"/>
        <pt x="110" y="38" on="0"/>
        <pt x="113" y="46" on="1"/>
        <pt x="120" y="67" on="0"/>
        <pt x="120" y="130" on="1"/>
        <pt x="120" y="528" on="1"/>
        <pt x="120" y="591" on="0"/>
        <pt x="113" y="612" on="1"/>
        <pt x="110" y="620" on="0"/>
        <pt x="62" y="629" on="0"/>
        <pt x="47" y="629" on="1"/>
        <pt x="44" y="634" on="0"/>
        <pt x="44" y="658" on="0"/>
        <pt x="47" y="662" on="1"/>
        <pt x="127" y="656" on="0"/>
        <pt x="177" y="656" on="1"/>
        <pt x="226" y="656" on="0"/>
        <pt x="306" y="662" on="1"/>
        <pt x="309" y="658" on="0"/>
        <pt x="309" y="634" on="0"/>
        <pt x="306" y="629" on="1"/>
        <pt x="291" y="629" on="0"/>
        <pt x="243" y="620" on="0"/>
        <pt x="240" y="612" on="1"/>
        <pt x="234" y="594" on="0"/>
        <pt x="234" y="528" on="1"/>
      </contour>
    </TTGlyph>
    <TTGlyph name="M" xMin="21" yMin="-4" xMax="880" yMax="662">
      <contour>
        <pt x="168" y="656" on="1"/>
        <pt x="168" y="656" on="0"/>
        <pt x="261" y="662" on="1"/>
        <pt x="271" y="634" on="0"/>
        <pt x="338" y="480" on="0"/>
        <pt x="432" y="261" on="0"/>
        <pt x="461" y="192" on="1"/>
        <pt x="461" y="190" on="0"/>
        <pt x="465" y="190" on="1"/>
        <pt x="466" y="190" on="0"/>
        <pt x="470" y="194" on="0"/>
        <pt x="470" y="195" on="1"/>
        <pt x="531" y="349" on="0"/>
        <pt x="605" y="544" on="1"/>
        <pt x="644" y="660" on="1"/>
        <pt x="684" y="656" on="0"/>
        <pt x="737" y="656" on="1"/>
        <pt x="756" y="656" on="0"/>
        <pt x="852" y="662" on="1"/>
        <pt x="854" y="659" on="0"/>
        <pt x="856" y="631" on="0"/>
        <pt x="855" y="628" on="1"/>
        <pt x="844" y="628" on="0"/>
        <pt x="799" y="619" on="0"/>
        <pt x="794" y="614" on="1"/>
        <pt x="785" y="604" on="0"/>
        <pt x="785" y="574" on="1"/>
        <pt x="786" y="553" on="0"/>
        <pt x="790" y="382" on="0"/>
        <pt x="795" y="203" on="0"/>
        <pt x="797" y="146" on="1"/>
        <pt x="801" y="67" on="0"/>
        <pt x="809" y="47" on="1"/>
        <pt x="813" y="38" on="0"/>
        <pt x="861" y="30" on="0"/>
        <pt x="876" y="30" on="1"/>
        <pt x="879" y="24" on="0"/>
        <pt x="880" y="0" on="0"/>
        <pt x="878" y="-4" on="1"/>
        <pt x="872" y="-4" on="0"/>
        <pt x="776" y="3" on="0"/>
        <pt x="750" y="3" on="1"/>
        <pt x="723" y="3" on="0"/>
        <pt x="624" y="-4" on="0"/>
        <pt x="612" y="-4" on="1"/>
        <pt x="610" y="-2" on="0"/>
        <pt x="608" y="24" on="0"/>
        <pt x="611" y="30" on="1"/>
        <pt x="664" y="30" on="0"/>
        <pt x="678" y="44" on="1"/>
        <pt x="687" y="53" on="0"/>
        <pt x="687" y="83" on="1"/>
        <pt x="687" y="88" on="0"/>
        <pt x="685" y="134" on="0"/>
        <pt x="685" y="142" on="1"/>
        <pt x="675" y="510" on="0"/>
        <pt x="674" y="531" on="1"/>
        <pt x="674" y="554" on="0"/>
        <pt x="666" y="554" on="1"/>
        <pt x="664" y="554" on="0"/>
        <pt x="661" y="547" on="1"/>
        <pt x="639" y="493" on="0"/>
        <pt x="485" y="89" on="0"/>
        <pt x="467" y="44" on="1"/>
        <pt x="462" y="33" on="0"/>
        <pt x="436" y="-1" on="0"/>
        <pt x="427" y="-2" on="1"/>
        <pt x="424" y="-2" on="0"/>
        <pt x="418" y="0" on="1"/>
        <pt x="184" y="554" on="1"/>
        <pt x="173" y="147" on="0"/>
        <pt x="171" y="104" on="1"/>
        <pt x="171" y="70" on="0"/>
        <pt x="175" y="54" on="1"/>
        <pt x="179" y="43" on="0"/>
        <pt x="242" y="30" on="0"/>
        <pt x="258" y="30" on="1"/>
        <pt x="261" y="26" on="0"/>
        <pt x="262" y="0" on="0"/>
        <pt x="260" y="-4" on="1"/>
        <pt x="249" y="-3" on="0"/>
        <pt x="171" y="3" on="0"/>
        <pt x="119" y="3" on="0"/>
        <pt x="40" y="-3" on="0"/>
        <pt x="24" y="-4" on="1"/>
        <pt x="22" y="-1" on="0"/>
        <pt x="21" y="21" on="0"/>
        <pt x="24" y="28" on="1"/>
        <pt x="40" y="28" on="0"/>
        <pt x="101" y="43" on="0"/>
        <pt x="107" y="56" on="1"/>
        <pt x="116" y="74" on="0"/>
        <pt x="119" y="125" on="1"/>
        <pt x="122" y="191" on="0"/>
        <pt x="134" y="576" on="1"/>
        <pt x="134" y="601" on="0"/>
        <pt x="130" y="608" on="1"/>
        <pt x="126" y="616" on="0"/>
        <pt x="76" y="629" on="0"/>
        <pt x="62" y="629" on="1"/>
        <pt x="59" y="632" on="0"/>
        <pt x="60" y="660" on="0"/>
        <pt x="62" y="662" on="1"/>
        <pt x="79" y="661" on="0"/>
        <pt x="142" y="656" on="0"/>
      </contour>
    </TTGlyph>
    <TTGlyph name="N" xMin="33" yMin="-5" xMax="744" yMax="663">
      <contour>
        <pt x="148" y="658" on="1"/>
        <pt x="194" y="658" on="0"/>
        <pt x="240" y="662" on="1"/>
        <pt x="259" y="627" on="0"/>
        <pt x="383" y="472" on="0"/>
        <pt x="552" y="266" on="0"/>
        <pt x="597" y="207" on="1"/>
        <pt x="598" y="211" on="0"/>
        <pt x="598" y="256" on="1"/>
        <pt x="598" y="510" on="1"/>
        <pt x="598" y="587" on="0"/>
        <pt x="587" y="609" on="1"/>
        <pt x="582" y="618" on="0"/>
        <pt x="525" y="630" on="0"/>
        <pt x="509" y="630" on="1"/>
        <pt x="506" y="633" on="0"/>
        <pt x="505" y="657" on="0"/>
        <pt x="508" y="663" on="1"/>
        <pt x="522" y="662" on="0"/>
        <pt x="600" y="656" on="0"/>
        <pt x="652" y="656" on="0"/>
        <pt x="730" y="662" on="0"/>
        <pt x="744" y="663" on="1"/>
        <pt x="751" y="643" on="0"/>
        <pt x="743" y="630" on="1"/>
        <pt x="727" y="630" on="0"/>
        <pt x="667" y="618" on="0"/>
        <pt x="662" y="608" on="1"/>
        <pt x="652" y="588" on="0"/>
        <pt x="652" y="512" on="1"/>
        <pt x="652" y="139" on="1"/>
        <pt x="652" y="103" on="0"/>
        <pt x="656" y="-1" on="1"/>
        <pt x="652" y="-5" on="0"/>
        <pt x="634" y="-5" on="1"/>
        <pt x="618" y="-5" on="0"/>
        <pt x="602" y="18" on="1"/>
        <pt x="181" y="544" on="1"/>
        <pt x="181" y="136" on="1"/>
        <pt x="181" y="72" on="0"/>
        <pt x="191" y="53" on="1"/>
        <pt x="195" y="44" on="0"/>
        <pt x="256" y="30" on="0"/>
        <pt x="270" y="30" on="1"/>
        <pt x="279" y="18" on="0"/>
        <pt x="272" y="-4" on="1"/>
        <pt x="263" y="-4" on="0"/>
        <pt x="178" y="3" on="0"/>
        <pt x="126" y="3" on="0"/>
        <pt x="53" y="-3" on="0"/>
        <pt x="36" y="-4" on="1"/>
        <pt x="33" y="1" on="0"/>
        <pt x="33" y="24" on="0"/>
        <pt x="36" y="29" on="1"/>
        <pt x="51" y="29" on="0"/>
        <pt x="110" y="42" on="0"/>
        <pt x="115" y="52" on="1"/>
        <pt x="126" y="73" on="0"/>
        <pt x="126" y="137" on="1"/>
        <pt x="126" y="531" on="1"/>
        <pt x="126" y="588" on="0"/>
        <pt x="112" y="610" on="1"/>
        <pt x="107" y="618" on="0"/>
        <pt x="53" y="630" on="0"/>
        <pt x="40" y="630" on="1"/>
        <pt x="36" y="634" on="0"/>
        <pt x="36" y="659" on="0"/>
        <pt x="39" y="663" on="1"/>
        <pt x="134" y="658" on="0"/>
      </contour>
    </TTGlyph>
    <TTGlyph name="Nacute" xMin="36" yMin="-5" xMax="744" yMax="865">
      <component glyphName="acutecomb.cap" x="318" y="2" flags="0x1004"/>
      <component glyphName="N" x="0" y="0" flags="0x1204"/>
    </TTGlyph>
    <TTGlyph name="Ncaron" xMin="36" yMin="-5" xMax="744" yMax="863">
      <component glyphName="uni030C.cap" x="-6" y="0" flags="0x1004"/>
      <component glyphName="N" x="0" y="0" flags="0x1204"/>
    </TTGlyph>
    <TTGlyph name="Ncommaaccent" xMin="35" yMin="-237" xMax="743" yMax="663">
      <component glyphName="uni0326" x="311" y="-17" flags="0x1004"/>
      <component glyphName="N" x="-1" y="0" flags="0x1204"/>
    </TTGlyph>
    <TTGlyph name="Ntilde" xMin="36" yMin="-5" xMax="744" yMax="833">
      <component glyphName="tildecomb.cap" x="108" y="-3" flags="0x1004"/>
      <component glyphName="N" x="0" y="0" flags="0x1204"/>
    </TTGlyph>
    <TTGlyph name="O" xMin="44" yMin="-10" xMax="709" yMax="667">
      <contour>
        <pt x="357" y="627" on="1"/>
        <pt x="309" y="627" on="0"/>
        <pt x="236" y="579" on="0"/>
        <pt x="194" y="499" on="0"/>
        <pt x="174" y="407" on="0"/>
        <pt x="174" y="356" on="1"/>
        <pt x="174" y="275" on="0"/>
        <pt x="219" y="131" on="0"/>
        <pt x="323" y="30" on="0"/>
        <pt x="395" y="30" on="1"/>
        <pt x="458" y="30" on="0"/>
        <pt x="545" y="114" on="0"/>
        <pt x="579" y="231" on="0"/>
        <pt x="579" y="300" on="1"/>
        <pt x="579" y="381" on="0"/>
        <pt x="533" y="526" on="0"/>
        <pt x="429" y="627" on="0"/>
      </contour>
      <contour>
        <pt x="376" y="667" on="1"/>
        <pt x="510" y="667" on="0"/>
        <pt x="709" y="470" on="0"/>
        <pt x="709" y="328" on="1"/>
        <pt x="709" y="189" on="0"/>
        <pt x="509" y="-10" on="0"/>
        <pt x="376" y="-10" on="1"/>
        <pt x="242" y="-10" on="0"/>
        <pt x="44" y="186" on="0"/>
        <pt x="44" y="328" on="1"/>
        <pt x="44" y="467" on="0"/>
        <pt x="243" y="667" on="0"/>
      </contour>
    </TTGlyph>
    <TTGlyph name="OE" xMin="45" yMin="-5" xMax="991" yMax="665">
      <contour>
        <pt x="593" y="656" on="1"/>
        <pt x="625" y="656" on="0"/>
        <pt x="873" y="664" on="0"/>
        <pt x="917" y="664" on="1"/>
        <pt x="921" y="635" on="0"/>
        <pt x="945" y="532" on="0"/>
        <pt x="947" y="522" on="1"/>
        <pt x="942" y="517" on="0"/>
        <pt x="925" y="517" on="1"/>
        <pt x="914" y="517" on="0"/>
        <pt x="911" y="524" on="1"/>
        <pt x="895" y="575" on="0"/>
        <pt x="842" y="620" on="0"/>
        <pt x="799" y="620" on="1"/>
        <pt x="714" y="620" on="1"/>
        <pt x="659" y="620" on="0"/>
        <pt x="655" y="609" on="1"/>
        <pt x="650" y="595" on="0"/>
        <pt x="650" y="543" on="1"/>
        <pt x="650" y="362" on="1"/>
        <pt x="650" y="353" on="0"/>
        <pt x="693" y="353" on="1"/>
        <pt x="745" y="353" on="1"/>
        <pt x="802" y="353" on="0"/>
        <pt x="833" y="376" on="0"/>
        <pt x="845" y="424" on="1"/>
        <pt x="847" y="432" on="0"/>
        <pt x="858" y="432" on="1"/>
        <pt x="871" y="432" on="0"/>
        <pt x="877" y="426" on="1"/>
        <pt x="877" y="236" on="1"/>
        <pt x="873" y="232" on="0"/>
        <pt x="859" y="232" on="1"/>
        <pt x="847" y="232" on="0"/>
        <pt x="844" y="240" on="1"/>
        <pt x="829" y="295" on="0"/>
        <pt x="813" y="304" on="1"/>
        <pt x="799" y="311" on="0"/>
        <pt x="721" y="311" on="1"/>
        <pt x="650" y="311" on="0"/>
        <pt x="650" y="300" on="1"/>
        <pt x="650" y="128" on="1"/>
        <pt x="650" y="66" on="0"/>
        <pt x="657" y="54" on="1"/>
        <pt x="670" y="39" on="0"/>
        <pt x="725" y="39" on="1"/>
        <pt x="781" y="39" on="1"/>
        <pt x="851" y="39" on="0"/>
        <pt x="891" y="68" on="1"/>
        <pt x="926" y="96" on="0"/>
        <pt x="949" y="166" on="1"/>
        <pt x="950" y="172" on="0"/>
        <pt x="963" y="172" on="1"/>
        <pt x="985" y="172" on="0"/>
        <pt x="991" y="166" on="1"/>
        <pt x="988" y="157" on="0"/>
        <pt x="965" y="93" on="0"/>
        <pt x="953" y="60" on="0"/>
        <pt x="939" y="12" on="0"/>
        <pt x="937" y="-3" on="1"/>
        <pt x="911" y="-3" on="0"/>
        <pt x="666" y="-1" on="0"/>
        <pt x="591" y="-1" on="1"/>
        <pt x="505" y="-1" on="0"/>
        <pt x="463" y="-3" on="1"/>
        <pt x="458" y="-3" on="0"/>
        <pt x="452" y="-4" on="0"/>
        <pt x="444" y="-4" on="0"/>
        <pt x="405" y="-5" on="0"/>
        <pt x="371" y="-5" on="1"/>
        <pt x="238" y="-5" on="0"/>
        <pt x="45" y="189" on="0"/>
        <pt x="45" y="467" on="0"/>
        <pt x="242" y="665" on="0"/>
        <pt x="373" y="665" on="1"/>
        <pt x="405" y="665" on="0"/>
        <pt x="567" y="656" on="0"/>
      </contour>
      <contour>
        <pt x="354" y="626" on="1"/>
        <pt x="292" y="626" on="0"/>
        <pt x="205" y="542" on="0"/>
        <pt x="170" y="425" on="0"/>
        <pt x="170" y="356" on="1"/>
        <pt x="170" y="275" on="0"/>
        <pt x="216" y="132" on="0"/>
        <pt x="321" y="32" on="0"/>
        <pt x="393" y="32" on="1"/>
        <pt x="487" y="32" on="0"/>
        <pt x="513" y="68" on="1"/>
        <pt x="536" y="99" on="0"/>
        <pt x="536" y="170" on="1"/>
        <pt x="536" y="484" on="1"/>
        <pt x="536" y="553" on="0"/>
        <pt x="502" y="584" on="1"/>
        <pt x="458" y="626" on="0"/>
      </contour>
    </TTGlyph>
    <TTGlyph name="Oacute" xMin="44" yMin="-10" xMax="709" yMax="865">
      <component glyphName="acutecomb.cap" x="300" y="2" flags="0x1004"/>
      <component glyphName="O" x="0" y="0" flags="0x1204"/>
    </TTGlyph>
    <TTGlyph name="Obreve" xMin="44" yMin="-10" xMax="709" yMax="831">
      <component glyphName="uni0306.cap" x="251" y="113" flags="0x1004"/>
      <component glyphName="O" x="0" y="0" flags="0x1204"/>
    </TTGlyph>
    <TTGlyph name="Ocircumflex" xMin="44" yMin="-10" xMax="709" yMax="864">
      <component glyphName="uni0302.cap" x="220" y="13" flags="0x1004"/>
      <component glyphName="O" x="0" y="0" flags="0x1204"/>
    </TTGlyph>
    <TTGlyph name="Odieresis" xMin="44" yMin="-10" xMax="709" yMax="844">
      <component glyphName="uni0308.cap" x="182" y="-14" flags="0x1004"/>
      <component glyphName="O" x="0" y="0" flags="0x1204"/>
    </TTGlyph>
    <TTGlyph name="Ograve" xMin="44" yMin="-10" xMax="709" yMax="865">
      <component glyphName="gravecomb.cap" x="207" y="2" flags="0x1004"/>
      <component glyphName="O" x="0" y="0" flags="0x1204"/>
    </TTGlyph>
    <TTGlyph name="Ohungarumlaut" xMin="44" yMin="-10" xMax="709" yMax="864">
      <component glyphName="uni030B.cap" x="246" y="26" flags="0x1004"/>
      <component glyphName="O" x="0" y="0" flags="0x1204"/>
    </TTGlyph>
    <TTGlyph name="Omacron" xMin="44" yMin="-10" xMax="709" yMax="776">
      <component glyphName="uni0304.cap" x="172" y="81" flags="0x1004"/>
      <component glyphName="O" x="0" y="0" flags="0x1204"/>
    </TTGlyph>
    <TTGlyph name="Oslash" xMin="44" yMin="-16" xMax="709" yMax="672">
      <contour>
        <pt x="554" y="672" on="1"/>
        <pt x="562" y="670" on="0"/>
        <pt x="589" y="654" on="0"/>
        <pt x="587" y="650" on="1"/>
        <pt x="190" y="-16" on="1"/>
        <pt x="185" y="-14" on="0"/>
        <pt x="169" y="-6" on="0"/>
        <pt x="155" y="4" on="0"/>
        <pt x="156" y="7" on="1"/>
      </contour>
      <contour>
        <pt x="357" y="627" on="1"/>
        <pt x="309" y="627" on="0"/>
        <pt x="236" y="579" on="0"/>
        <pt x="194" y="499" on="0"/>
        <pt x="174" y="407" on="0"/>
        <pt x="174" y="356" on="1"/>
        <pt x="174" y="275" on="0"/>
        <pt x="219" y="131" on="0"/>
        <pt x="323" y="30" on="0"/>
        <pt x="395" y="30" on="1"/>
        <pt x="458" y="30" on="0"/>
        <pt x="545" y="114" on="0"/>
        <pt x="579" y="231" on="0"/>
        <pt x="579" y="300" on="1"/>
        <pt x="579" y="381" on="0"/>
        <pt x="533" y="526" on="0"/>
        <pt x="429" y="627" on="0"/>
      </contour>
      <contour>
        <pt x="376" y="667" on="1"/>
        <pt x="510" y="667" on="0"/>
        <pt x="709" y="470" on="0"/>
        <pt x="709" y="328" on="1"/>
        <pt x="709" y="189" on="0"/>
        <pt x="509" y="-10" on="0"/>
        <pt x="376" y="-10" on="1"/>
        <pt x="242" y="-10" on="0"/>
        <pt x="44" y="186" on="0"/>
        <pt x="44" y="328" on="1"/>
        <pt x="44" y="467" on="0"/>
        <pt x="243" y="667" on="0"/>
      </contour>
    </TTGlyph>
    <TTGlyph name="Oslashacute" xMin="44" yMin="-16" xMax="709" yMax="865">
      <component glyphName="acutecomb.cap" x="310" y="2" flags="0x1004"/>
      <component glyphName="Oslash" x="0" y="0" flags="0x1204"/>
    </TTGlyph>
    <TTGlyph name="Otilde" xMin="44" yMin="-10" xMax="709" yMax="833">
      <component glyphName="tildecomb.cap" x="95" y="-3" flags="0x1004"/>
      <component glyphName="O" x="0" y="0" flags="0x1204"/>
    </TTGlyph>
    <TTGlyph name="P" xMin="40" yMin="-4" xMax="542" yMax="661">
      <contour>
        <pt x="542" y="484" on="1"/>
        <pt x="542" y="392" on="0"/>
        <pt x="423" y="280" on="0"/>
        <pt x="334" y="280" on="1"/>
        <pt x="298" y="280" on="0"/>
        <pt x="277" y="296" on="1"/>
        <pt x="265" y="308" on="0"/>
        <pt x="265" y="320" on="1"/>
        <pt x="265" y="328" on="0"/>
        <pt x="269" y="328" on="1"/>
        <pt x="282" y="324" on="0"/>
        <pt x="308" y="324" on="1"/>
        <pt x="357" y="324" on="0"/>
        <pt x="422" y="401" on="0"/>
        <pt x="422" y="465" on="1"/>
        <pt x="422" y="534" on="0"/>
        <pt x="349" y="622" on="0"/>
        <pt x="284" y="622" on="1"/>
        <pt x="238" y="622" on="0"/>
        <pt x="234" y="611" on="1"/>
        <pt x="230" y="601" on="0"/>
        <pt x="230" y="543" on="1"/>
        <pt x="230" y="130" on="1"/>
        <pt x="230" y="64" on="0"/>
        <pt x="236" y="46" on="1"/>
        <pt x="239" y="38" on="0"/>
        <pt x="287" y="29" on="0"/>
        <pt x="302" y="29" on="1"/>
        <pt x="305" y="24" on="0"/>
        <pt x="305" y="0" on="0"/>
        <pt x="302" y="-4" on="1"/>
        <pt x="222" y="2" on="0"/>
        <pt x="172" y="2" on="1"/>
        <pt x="123" y="2" on="0"/>
        <pt x="43" y="-4" on="1"/>
        <pt x="40" y="0" on="0"/>
        <pt x="40" y="24" on="0"/>
        <pt x="43" y="29" on="1"/>
        <pt x="58" y="29" on="0"/>
        <pt x="106" y="38" on="0"/>
        <pt x="109" y="46" on="1"/>
        <pt x="116" y="67" on="0"/>
        <pt x="116" y="130" on="1"/>
        <pt x="116" y="528" on="1"/>
        <pt x="116" y="591" on="0"/>
        <pt x="109" y="612" on="1"/>
        <pt x="106" y="620" on="0"/>
        <pt x="59" y="628" on="0"/>
        <pt x="43" y="628" on="1"/>
        <pt x="40" y="632" on="0"/>
        <pt x="40" y="656" on="0"/>
        <pt x="43" y="661" on="1"/>
        <pt x="129" y="657" on="0"/>
        <pt x="175" y="657" on="1"/>
        <pt x="193" y="657" on="0"/>
        <pt x="291" y="660" on="0"/>
        <pt x="323" y="660" on="1"/>
        <pt x="410" y="660" on="0"/>
        <pt x="542" y="565" on="0"/>
      </contour>
    </TTGlyph>
    <TTGlyph name="Q" xMin="44" yMin="-140" xMax="787" yMax="667">
      <contour>
        <pt x="376" y="667" on="1"/>
        <pt x="510" y="667" on="0"/>
        <pt x="709" y="470" on="0"/>
        <pt x="709" y="328" on="1"/>
        <pt x="709" y="217" on="0"/>
        <pt x="575" y="39" on="0"/>
        <pt x="473" y="6" on="1"/>
        <pt x="499" y="-7" on="0"/>
        <pt x="565" y="-45" on="0"/>
        <pt x="600" y="-63" on="0"/>
        <pt x="659" y="-78" on="0"/>
        <pt x="695" y="-78" on="1"/>
        <pt x="709" y="-78" on="0"/>
        <pt x="765" y="-70" on="1"/>
        <pt x="779" y="-70" on="0"/>
        <pt x="786" y="-80" on="1"/>
        <pt x="787" y="-82" on="0"/>
        <pt x="787" y="-84" on="1"/>
        <pt x="681" y="-140" on="0"/>
        <pt x="602" y="-140" on="1"/>
        <pt x="556" y="-140" on="0"/>
        <pt x="456" y="-85" on="0"/>
        <pt x="344" y="-13" on="0"/>
        <pt x="297" y="0" on="1"/>
        <pt x="188" y="28" on="0"/>
        <pt x="44" y="209" on="0"/>
        <pt x="44" y="328" on="1"/>
        <pt x="44" y="467" on="0"/>
        <pt x="243" y="667" on="0"/>
      </contour>
      <contour>
        <pt x="357" y="627" on="1"/>
        <pt x="309" y="627" on="0"/>
        <pt x="236" y="579" on="0"/>
        <pt x="194" y="499" on="0"/>
        <pt x="174" y="407" on="0"/>
        <pt x="174" y="356" on="1"/>
        <pt x="174" y="275" on="0"/>
        <pt x="219" y="131" on="0"/>
        <pt x="323" y="30" on="0"/>
        <pt x="395" y="30" on="1"/>
        <pt x="458" y="30" on="0"/>
        <pt x="545" y="114" on="0"/>
        <pt x="579" y="231" on="0"/>
        <pt x="579" y="300" on="1"/>
        <pt x="579" y="381" on="0"/>
        <pt x="533" y="526" on="0"/>
        <pt x="429" y="627" on="0"/>
      </contour>
    </TTGlyph>
    <TTGlyph name="R" xMin="40" yMin="-4" xMax="691" yMax="661">
      <contour>
        <pt x="323" y="660" on="1"/>
        <pt x="409" y="660" on="0"/>
        <pt x="532" y="566" on="0"/>
        <pt x="532" y="482" on="1"/>
        <pt x="532" y="428" on="0"/>
        <pt x="444" y="335" on="0"/>
        <pt x="395" y="320" on="1"/>
        <pt x="442" y="251" on="0"/>
        <pt x="549" y="108" on="1"/>
        <pt x="607" y="34" on="0"/>
        <pt x="689" y="29" on="1"/>
        <pt x="692" y="23" on="0"/>
        <pt x="690" y="-1" on="0"/>
        <pt x="688" y="-4" on="1"/>
        <pt x="601" y="-6" on="0"/>
        <pt x="557" y="0" on="1"/>
        <pt x="491" y="3" on="0"/>
        <pt x="448" y="60" on="1"/>
        <pt x="440" y="71" on="0"/>
        <pt x="308" y="255" on="0"/>
        <pt x="287" y="287" on="1"/>
        <pt x="277" y="300" on="0"/>
        <pt x="263" y="300" on="1"/>
        <pt x="230" y="300" on="1"/>
        <pt x="230" y="130" on="1"/>
        <pt x="230" y="64" on="0"/>
        <pt x="236" y="46" on="1"/>
        <pt x="239" y="38" on="0"/>
        <pt x="287" y="29" on="0"/>
        <pt x="302" y="29" on="1"/>
        <pt x="305" y="24" on="0"/>
        <pt x="305" y="0" on="0"/>
        <pt x="302" y="-4" on="1"/>
        <pt x="222" y="2" on="0"/>
        <pt x="172" y="2" on="1"/>
        <pt x="123" y="2" on="0"/>
        <pt x="43" y="-4" on="1"/>
        <pt x="40" y="0" on="0"/>
        <pt x="40" y="24" on="0"/>
        <pt x="43" y="29" on="1"/>
        <pt x="58" y="29" on="0"/>
        <pt x="106" y="38" on="0"/>
        <pt x="109" y="46" on="1"/>
        <pt x="116" y="67" on="0"/>
        <pt x="116" y="130" on="1"/>
        <pt x="116" y="528" on="1"/>
        <pt x="116" y="591" on="0"/>
        <pt x="109" y="612" on="1"/>
        <pt x="106" y="620" on="0"/>
        <pt x="59" y="628" on="0"/>
        <pt x="43" y="628" on="1"/>
        <pt x="40" y="632" on="0"/>
        <pt x="40" y="656" on="0"/>
        <pt x="43" y="661" on="1"/>
        <pt x="129" y="657" on="0"/>
        <pt x="175" y="657" on="1"/>
        <pt x="193" y="657" on="0"/>
        <pt x="291" y="660" on="0"/>
      </contour>
      <contour>
        <pt x="412" y="465" on="1"/>
        <pt x="412" y="535" on="0"/>
        <pt x="351" y="622" on="0"/>
        <pt x="284" y="622" on="1"/>
        <pt x="238" y="622" on="0"/>
        <pt x="234" y="611" on="1"/>
        <pt x="230" y="601" on="0"/>
        <pt x="230" y="543" on="1"/>
        <pt x="230" y="335" on="1"/>
        <pt x="279" y="335" on="1"/>
        <pt x="334" y="335" on="0"/>
        <pt x="412" y="409" on="0"/>
      </contour>
    </TTGlyph>
    <TTGlyph name="Racute" xMin="43" yMin="-4" xMax="689" yMax="865">
      <component glyphName="acutecomb.cap" x="218" y="2" flags="0x1004"/>
      <component glyphName="R" x="0" y="0" flags="0x1204"/>
    </TTGlyph>
    <TTGlyph name="Rcaron" xMin="43" yMin="-4" xMax="689" yMax="884">
      <component glyphName="uni030C.cap" x="-106" y="21" flags="0x1004"/>
      <component glyphName="R" x="0" y="0" flags="0x1204"/>
    </TTGlyph>
    <TTGlyph name="Rcommaaccent" xMin="42" yMin="-236" xMax="688" yMax="661">
      <component glyphName="uni0326" x="253" y="-16" flags="0x1004"/>
      <component glyphName="R" x="-1" y="0" flags="0x1204"/>
    </TTGlyph>
    <TTGlyph name="S" xMin="48" yMin="-10" xMax="469" yMax="668">
      <contour>
        <pt x="264" y="668" on="1"/>
        <pt x="285" y="668" on="0"/>
        <pt x="328" y="663" on="0"/>
        <pt x="355" y="656" on="0"/>
        <pt x="408" y="644" on="0"/>
        <pt x="424" y="640" on="1"/>
        <pt x="431" y="583" on="0"/>
        <pt x="435" y="486" on="1"/>
        <pt x="434" y="479" on="0"/>
        <pt x="424" y="479" on="1"/>
        <pt x="398" y="479" on="0"/>
        <pt x="396" y="488" on="1"/>
        <pt x="390" y="536" on="0"/>
        <pt x="316" y="628" on="0"/>
        <pt x="263" y="628" on="1"/>
        <pt x="216" y="628" on="0"/>
        <pt x="166" y="576" on="0"/>
        <pt x="166" y="531" on="1"/>
        <pt x="166" y="519" on="0"/>
        <pt x="171" y="498" on="0"/>
        <pt x="183" y="476" on="0"/>
        <pt x="193" y="460" on="0"/>
        <pt x="216" y="439" on="0"/>
        <pt x="228" y="428" on="0"/>
        <pt x="259" y="407" on="0"/>
        <pt x="269" y="399" on="0"/>
        <pt x="304" y="376" on="0"/>
        <pt x="308" y="374" on="1"/>
        <pt x="313" y="371" on="0"/>
        <pt x="353" y="345" on="0"/>
        <pt x="370" y="334" on="0"/>
        <pt x="405" y="308" on="0"/>
        <pt x="422" y="289" on="0"/>
        <pt x="448" y="259" on="0"/>
        <pt x="460" y="231" on="0"/>
        <pt x="469" y="194" on="0"/>
        <pt x="469" y="174" on="1"/>
        <pt x="469" y="94" on="0"/>
        <pt x="340" y="-10" on="0"/>
        <pt x="256" y="-10" on="1"/>
        <pt x="196" y="-10" on="0"/>
        <pt x="70" y="18" on="1"/>
        <pt x="52" y="104" on="0"/>
        <pt x="48" y="180" on="1"/>
        <pt x="50" y="184" on="0"/>
        <pt x="71" y="193" on="0"/>
        <pt x="76" y="193" on="1"/>
        <pt x="86" y="193" on="0"/>
        <pt x="88" y="184" on="1"/>
        <pt x="92" y="164" on="0"/>
        <pt x="112" y="116" on="0"/>
        <pt x="149" y="64" on="0"/>
        <pt x="213" y="30" on="0"/>
        <pt x="252" y="30" on="1"/>
        <pt x="297" y="30" on="0"/>
        <pt x="360" y="86" on="0"/>
        <pt x="360" y="138" on="1"/>
        <pt x="360" y="154" on="0"/>
        <pt x="352" y="183" on="0"/>
        <pt x="332" y="210" on="0"/>
        <pt x="318" y="227" on="0"/>
        <pt x="281" y="253" on="0"/>
        <pt x="268" y="262" on="0"/>
        <pt x="224" y="289" on="0"/>
        <pt x="220" y="291" on="1"/>
        <pt x="179" y="317" on="0"/>
        <pt x="143" y="342" on="0"/>
        <pt x="85" y="395" on="0"/>
        <pt x="60" y="454" on="0"/>
        <pt x="60" y="490" on="1"/>
        <pt x="60" y="566" on="0"/>
        <pt x="184" y="668" on="0"/>
      </contour>
    </TTGlyph>
    <TTGlyph name="Sacute" xMin="48" yMin="-10" xMax="469" yMax="865">
      <component glyphName="acutecomb.cap" x="209" y="2" flags="0x1004"/>
      <component glyphName="S" x="0" y="0" flags="0x1204"/>
    </TTGlyph>
    <TTGlyph name="Scaron" xMin="48" yMin="-10" xMax="469" yMax="885">
      <component glyphName="uni030C.cap" x="-117" y="22" flags="0x1004"/>
      <component glyphName="S" x="0" y="0" flags="0x1204"/>
    </TTGlyph>
    <TTGlyph name="Scedilla" xMin="48" yMin="-173" xMax="469" yMax="668">
      <component glyphName="uni0327.cap" x="17" y="-3" flags="0x1004"/>
      <component glyphName="S" x="0" y="0" flags="0x1204"/>
    </TTGlyph>
    <TTGlyph name="Scircumflex" xMin="48" yMin="-10" xMax="469" yMax="865">
      <component glyphName="uni0302.cap" x="108" y="14" flags="0x1004"/>
      <component glyphName="S" x="0" y="0" flags="0x1204"/>
    </TTGlyph>
    <TTGlyph name="Scommaaccent" xMin="48" yMin="-220" xMax="469" yMax="668">
      <component glyphName="S" x="0" y="0" flags="0x1204"/>
      <component glyphName="uni0326" x="171" y="0" flags="0x1004"/>
    </TTGlyph>
    <TTGlyph name="T" xMin="10" yMin="-4" xMax="619" yMax="676">
      <contour>
        <pt x="495" y="658" on="1"/>
        <pt x="515" y="658" on="0"/>
        <pt x="548" y="665" on="0"/>
        <pt x="573" y="675" on="0"/>
        <pt x="577" y="676" on="1"/>
        <pt x="587" y="678" on="0"/>
        <pt x="593" y="676" on="1"/>
        <pt x="614" y="521" on="0"/>
        <pt x="619" y="498" on="1"/>
        <pt x="611" y="490" on="0"/>
        <pt x="595" y="490" on="1"/>
        <pt x="586" y="490" on="0"/>
        <pt x="583" y="496" on="1"/>
        <pt x="574" y="549" on="0"/>
        <pt x="519" y="618" on="0"/>
        <pt x="482" y="618" on="1"/>
        <pt x="373" y="618" on="1"/>
        <pt x="373" y="130" on="1"/>
        <pt x="373" y="64" on="0"/>
        <pt x="379" y="46" on="1"/>
        <pt x="382" y="38" on="0"/>
        <pt x="430" y="29" on="0"/>
        <pt x="445" y="29" on="1"/>
        <pt x="448" y="24" on="0"/>
        <pt x="448" y="0" on="0"/>
        <pt x="445" y="-4" on="1"/>
        <pt x="365" y="2" on="0"/>
        <pt x="265" y="2" on="0"/>
        <pt x="185" y="-4" on="1"/>
        <pt x="182" y="0" on="0"/>
        <pt x="182" y="24" on="0"/>
        <pt x="185" y="29" on="1"/>
        <pt x="200" y="29" on="0"/>
        <pt x="249" y="38" on="0"/>
        <pt x="252" y="46" on="1"/>
        <pt x="259" y="67" on="0"/>
        <pt x="259" y="130" on="1"/>
        <pt x="259" y="618" on="1"/>
        <pt x="147" y="618" on="1"/>
        <pt x="110" y="618" on="0"/>
        <pt x="55" y="549" on="0"/>
        <pt x="46" y="496" on="1"/>
        <pt x="43" y="490" on="0"/>
        <pt x="35" y="490" on="1"/>
        <pt x="18" y="490" on="0"/>
        <pt x="10" y="498" on="1"/>
        <pt x="18" y="532" on="0"/>
        <pt x="37" y="676" on="1"/>
        <pt x="44" y="679" on="0"/>
        <pt x="54" y="676" on="1"/>
        <pt x="58" y="675" on="0"/>
        <pt x="82" y="665" on="0"/>
        <pt x="114" y="658" on="0"/>
        <pt x="134" y="658" on="1"/>
      </contour>
    </TTGlyph>
    <TTGlyph name="Tbar" xMin="10" yMin="-4" xMax="619" yMax="676">
      <contour>
        <pt x="480" y="310" on="1"/>
        <pt x="480" y="310" on="0"/>
        <pt x="147" y="310" on="1"/>
        <pt x="145" y="310" on="0"/>
        <pt x="143" y="325" on="0"/>
        <pt x="145" y="344" on="0"/>
        <pt x="148" y="348" on="1"/>
        <pt x="480" y="348" on="1"/>
        <pt x="483" y="348" on="0"/>
        <pt x="483" y="317" on="0"/>
      </contour>
      <contour>
        <pt x="495" y="658" on="1"/>
        <pt x="515" y="658" on="0"/>
        <pt x="548" y="665" on="0"/>
        <pt x="573" y="675" on="0"/>
        <pt x="577" y="676" on="1"/>
        <pt x="587" y="678" on="0"/>
        <pt x="593" y="676" on="1"/>
        <pt x="614" y="521" on="0"/>
        <pt x="619" y="498" on="1"/>
        <pt x="611" y="490" on="0"/>
        <pt x="595" y="490" on="1"/>
        <pt x="586" y="490" on="0"/>
        <pt x="583" y="496" on="1"/>
        <pt x="574" y="549" on="0"/>
        <pt x="519" y="618" on="0"/>
        <pt x="482" y="618" on="1"/>
        <pt x="373" y="618" on="1"/>
        <pt x="373" y="130" on="1"/>
        <pt x="373" y="64" on="0"/>
        <pt x="379" y="46" on="1"/>
        <pt x="382" y="38" on="0"/>
        <pt x="430" y="29" on="0"/>
        <pt x="445" y="29" on="1"/>
        <pt x="448" y="24" on="0"/>
        <pt x="448" y="0" on="0"/>
        <pt x="445" y="-4" on="1"/>
        <pt x="365" y="2" on="0"/>
        <pt x="265" y="2" on="0"/>
        <pt x="185" y="-4" on="1"/>
        <pt x="182" y="0" on="0"/>
        <pt x="182" y="24" on="0"/>
        <pt x="185" y="29" on="1"/>
        <pt x="200" y="29" on="0"/>
        <pt x="249" y="38" on="0"/>
        <pt x="252" y="46" on="1"/>
        <pt x="259" y="67" on="0"/>
        <pt x="259" y="130" on="1"/>
        <pt x="259" y="618" on="1"/>
        <pt x="147" y="618" on="1"/>
        <pt x="110" y="618" on="0"/>
        <pt x="55" y="549" on="0"/>
        <pt x="46" y="496" on="1"/>
        <pt x="43" y="490" on="0"/>
        <pt x="35" y="490" on="1"/>
        <pt x="18" y="490" on="0"/>
        <pt x="10" y="498" on="1"/>
        <pt x="18" y="532" on="0"/>
        <pt x="37" y="676" on="1"/>
        <pt x="44" y="679" on="0"/>
        <pt x="54" y="676" on="1"/>
        <pt x="58" y="675" on="0"/>
        <pt x="82" y="665" on="0"/>
        <pt x="114" y="658" on="0"/>
        <pt x="134" y="658" on="1"/>
      </contour>
    </TTGlyph>
    <TTGlyph name="Tcaron" xMin="10" yMin="-4" xMax="619" yMax="874">
      <component glyphName="uni030C.cap" x="-64" y="11" flags="0x1004"/>
      <component glyphName="T" x="0" y="0" flags="0x1204"/>
    </TTGlyph>
    <TTGlyph name="Tcommaaccent" xMin="10" yMin="-167" xMax="619" yMax="676">
      <component glyphName="uni0327.cap" x="77" y="3" flags="0x1004"/>
      <component glyphName="T" x="0" y="0" flags="0x1204"/>
    </TTGlyph>
    <TTGlyph name="Thorn" xMin="40" yMin="-4" xMax="532" yMax="662">
      <contour>
        <pt x="173" y="656" on="1"/>
        <pt x="222" y="656" on="0"/>
        <pt x="302" y="662" on="1"/>
        <pt x="305" y="658" on="0"/>
        <pt x="305" y="634" on="0"/>
        <pt x="302" y="629" on="1"/>
        <pt x="287" y="629" on="0"/>
        <pt x="239" y="620" on="0"/>
        <pt x="236" y="612" on="1"/>
        <pt x="229" y="593" on="0"/>
        <pt x="229" y="541" on="1"/>
        <pt x="229" y="540" on="0"/>
        <pt x="230" y="511" on="0"/>
        <pt x="230" y="509" on="1"/>
        <pt x="258" y="515" on="0"/>
        <pt x="311" y="515" on="1"/>
        <pt x="402" y="515" on="0"/>
        <pt x="532" y="413" on="0"/>
        <pt x="532" y="334" on="1"/>
        <pt x="532" y="250" on="0"/>
        <pt x="415" y="135" on="0"/>
        <pt x="328" y="135" on="1"/>
        <pt x="294" y="135" on="0"/>
        <pt x="271" y="152" on="1"/>
        <pt x="259" y="164" on="0"/>
        <pt x="259" y="175" on="1"/>
        <pt x="259" y="182" on="0"/>
        <pt x="263" y="182" on="1"/>
        <pt x="273" y="179" on="0"/>
        <pt x="302" y="179" on="1"/>
        <pt x="351" y="179" on="0"/>
        <pt x="415" y="255" on="0"/>
        <pt x="415" y="316" on="1"/>
        <pt x="415" y="384" on="0"/>
        <pt x="344" y="477" on="0"/>
        <pt x="281" y="477" on="1"/>
        <pt x="239" y="477" on="0"/>
        <pt x="234" y="464" on="1"/>
        <pt x="230" y="454" on="0"/>
        <pt x="230" y="396" on="1"/>
        <pt x="230" y="130" on="1"/>
        <pt x="230" y="64" on="0"/>
        <pt x="236" y="46" on="1"/>
        <pt x="239" y="38" on="0"/>
        <pt x="287" y="29" on="0"/>
        <pt x="302" y="29" on="1"/>
        <pt x="305" y="24" on="0"/>
        <pt x="305" y="0" on="0"/>
        <pt x="302" y="-4" on="1"/>
        <pt x="222" y="2" on="0"/>
        <pt x="172" y="2" on="1"/>
        <pt x="123" y="2" on="0"/>
        <pt x="43" y="-4" on="1"/>
        <pt x="40" y="0" on="0"/>
        <pt x="40" y="24" on="0"/>
        <pt x="43" y="29" on="1"/>
        <pt x="58" y="29" on="0"/>
        <pt x="106" y="38" on="0"/>
        <pt x="109" y="46" on="1"/>
        <pt x="116" y="67" on="0"/>
        <pt x="116" y="130" on="1"/>
        <pt x="116" y="528" on="1"/>
        <pt x="116" y="591" on="0"/>
        <pt x="109" y="612" on="1"/>
        <pt x="106" y="620" on="0"/>
        <pt x="58" y="629" on="0"/>
        <pt x="43" y="629" on="1"/>
        <pt x="40" y="634" on="0"/>
        <pt x="40" y="658" on="0"/>
        <pt x="43" y="662" on="1"/>
        <pt x="123" y="656" on="0"/>
      </contour>
    </TTGlyph>
    <TTGlyph name="U" xMin="24" yMin="-6" xMax="722" yMax="662">
      <contour>
        <pt x="158" y="656" on="1"/>
        <pt x="207" y="656" on="0"/>
        <pt x="287" y="662" on="1"/>
        <pt x="290" y="658" on="0"/>
        <pt x="290" y="634" on="0"/>
        <pt x="287" y="629" on="1"/>
        <pt x="272" y="629" on="0"/>
        <pt x="223" y="620" on="0"/>
        <pt x="220" y="612" on="1"/>
        <pt x="214" y="594" on="0"/>
        <pt x="214" y="528" on="1"/>
        <pt x="214" y="313" on="1"/>
        <pt x="214" y="197" on="0"/>
        <pt x="251" y="136" on="1"/>
        <pt x="293" y="59" on="0"/>
        <pt x="395" y="59" on="1"/>
        <pt x="472" y="59" on="0"/>
        <pt x="572" y="170" on="0"/>
        <pt x="573" y="292" on="1"/>
        <pt x="573" y="512" on="1"/>
        <pt x="573" y="584" on="0"/>
        <pt x="561" y="608" on="1"/>
        <pt x="556" y="617" on="0"/>
        <pt x="503" y="630" on="0"/>
        <pt x="488" y="630" on="1"/>
        <pt x="484" y="635" on="0"/>
        <pt x="484" y="657" on="0"/>
        <pt x="487" y="662" on="1"/>
        <pt x="575" y="656" on="0"/>
        <pt x="605" y="656" on="1"/>
        <pt x="631" y="656" on="0"/>
        <pt x="705" y="661" on="0"/>
        <pt x="718" y="662" on="1"/>
        <pt x="721" y="657" on="0"/>
        <pt x="722" y="637" on="0"/>
        <pt x="718" y="630" on="1"/>
        <pt x="702" y="630" on="0"/>
        <pt x="645" y="618" on="0"/>
        <pt x="640" y="608" on="1"/>
        <pt x="628" y="581" on="0"/>
        <pt x="628" y="513" on="1"/>
        <pt x="628" y="281" on="1"/>
        <pt x="628" y="137" on="0"/>
        <pt x="480" y="-6" on="0"/>
        <pt x="360" y="-6" on="1"/>
        <pt x="234" y="-6" on="0"/>
        <pt x="165" y="70" on="1"/>
        <pt x="100" y="141" on="0"/>
        <pt x="100" y="276" on="1"/>
        <pt x="100" y="528" on="1"/>
        <pt x="100" y="597" on="0"/>
        <pt x="94" y="612" on="1"/>
        <pt x="91" y="620" on="0"/>
        <pt x="42" y="629" on="0"/>
        <pt x="27" y="629" on="1"/>
        <pt x="24" y="634" on="0"/>
        <pt x="24" y="658" on="0"/>
        <pt x="27" y="662" on="1"/>
        <pt x="107" y="656" on="0"/>
      </contour>
    </TTGlyph>
    <TTGlyph name="Uacute" xMin="27" yMin="-6" xMax="718" yMax="865">
      <component glyphName="acutecomb.cap" x="349" y="2" flags="0x1004"/>
      <component glyphName="U" x="0" y="0" flags="0x1204"/>
    </TTGlyph>
    <TTGlyph name="Ubreve" xMin="27" yMin="-6" xMax="718" yMax="831">
      <component glyphName="uni0306.cap" x="257" y="113" flags="0x1004"/>
      <component glyphName="U" x="0" y="0" flags="0x1204"/>
    </TTGlyph>
    <TTGlyph name="Ucircumflex" xMin="27" yMin="-6" xMax="718" yMax="864">
      <component glyphName="uni0302.cap" x="233" y="13" flags="0x1004"/>
      <component glyphName="U" x="0" y="0" flags="0x1204"/>
    </TTGlyph>
    <TTGlyph name="Udieresis" xMin="27" yMin="-6" xMax="718" yMax="844">
      <component glyphName="uni0308.cap" x="198" y="-14" flags="0x1004"/>
      <component glyphName="U" x="0" y="0" flags="0x1204"/>
    </TTGlyph>
    <TTGlyph name="Ugrave" xMin="27" yMin="-6" xMax="718" yMax="865">
      <component glyphName="gravecomb.cap" x="202" y="2" flags="0x1004"/>
      <component glyphName="U" x="0" y="0" flags="0x1204"/>
    </TTGlyph>
    <TTGlyph name="Uhungarumlaut" xMin="27" yMin="-6" xMax="718" yMax="908">
      <component glyphName="uni030B.cap" x="246" y="70" flags="0x1004"/>
      <component glyphName="U" x="0" y="0" flags="0x1204"/>
    </TTGlyph>
    <TTGlyph name="Umacron" xMin="27" yMin="-6" xMax="718" yMax="776">
      <component glyphName="uni0304.cap" x="184" y="81" flags="0x1004"/>
      <component glyphName="U" x="0" y="0" flags="0x1204"/>
    </TTGlyph>
    <TTGlyph name="Uogonek" xMin="24" yMin="-221" xMax="722" yMax="662">
      <contour>
        <pt x="422" y="-112" on="1"/>
        <pt x="422" y="-129" on="0"/>
        <pt x="443" y="-157" on="0"/>
        <pt x="467" y="-157" on="1"/>
        <pt x="485" y="-157" on="0"/>
        <pt x="519" y="-140" on="0"/>
        <pt x="544" y="-118" on="0"/>
        <pt x="545" y="-118" on="1"/>
        <pt x="550" y="-118" on="0"/>
        <pt x="550" y="-130" on="1"/>
        <pt x="550" y="-144" on="0"/>
        <pt x="544" y="-152" on="1"/>
        <pt x="526" y="-177" on="0"/>
        <pt x="463" y="-221" on="0"/>
        <pt x="430" y="-221" on="1"/>
        <pt x="398" y="-221" on="0"/>
        <pt x="358" y="-175" on="0"/>
        <pt x="358" y="-113" on="0"/>
        <pt x="405" y="-29" on="0"/>
        <pt x="434" y="1" on="1"/>
        <pt x="400" y="-6" on="0"/>
        <pt x="360" y="-6" on="1"/>
        <pt x="234" y="-6" on="0"/>
        <pt x="165" y="70" on="1"/>
        <pt x="100" y="143" on="0"/>
        <pt x="100" y="276" on="1"/>
        <pt x="100" y="528" on="1"/>
        <pt x="100" y="597" on="0"/>
        <pt x="94" y="612" on="1"/>
        <pt x="91" y="620" on="0"/>
        <pt x="42" y="629" on="0"/>
        <pt x="27" y="629" on="1"/>
        <pt x="24" y="634" on="0"/>
        <pt x="24" y="658" on="0"/>
        <pt x="27" y="662" on="1"/>
        <pt x="107" y="656" on="0"/>
        <pt x="158" y="656" on="1"/>
        <pt x="207" y="656" on="0"/>
        <pt x="287" y="662" on="1"/>
        <pt x="290" y="658" on="0"/>
        <pt x="290" y="634" on="0"/>
        <pt x="287" y="629" on="1"/>
        <pt x="272" y="629" on="0"/>
        <pt x="223" y="620" on="0"/>
        <pt x="220" y="612" on="1"/>
        <pt x="214" y="594" on="0"/>
        <pt x="214" y="528" on="1"/>
        <pt x="214" y="313" on="1"/>
        <pt x="214" y="197" on="0"/>
        <pt x="251" y="136" on="1"/>
        <pt x="293" y="59" on="0"/>
        <pt x="395" y="59" on="1"/>
        <pt x="472" y="59" on="0"/>
        <pt x="572" y="170" on="0"/>
        <pt x="573" y="292" on="1"/>
        <pt x="573" y="512" on="1"/>
        <pt x="573" y="584" on="0"/>
        <pt x="561" y="608" on="1"/>
        <pt x="556" y="617" on="0"/>
        <pt x="503" y="630" on="0"/>
        <pt x="488" y="630" on="1"/>
        <pt x="484" y="635" on="0"/>
        <pt x="484" y="657" on="0"/>
        <pt x="487" y="662" on="1"/>
        <pt x="575" y="656" on="0"/>
        <pt x="605" y="656" on="1"/>
        <pt x="631" y="656" on="0"/>
        <pt x="705" y="661" on="0"/>
        <pt x="718" y="662" on="1"/>
        <pt x="721" y="657" on="0"/>
        <pt x="722" y="637" on="0"/>
        <pt x="718" y="630" on="1"/>
        <pt x="702" y="630" on="0"/>
        <pt x="645" y="618" on="0"/>
        <pt x="640" y="608" on="1"/>
        <pt x="628" y="581" on="0"/>
        <pt x="628" y="513" on="1"/>
        <pt x="628" y="281" on="1"/>
        <pt x="628" y="116" on="0"/>
        <pt x="521" y="38" on="1"/>
        <pt x="487" y="13" on="0"/>
        <pt x="422" y="-77" on="0"/>
      </contour>
    </TTGlyph>
    <TTGlyph name="Uring" xMin="27" yMin="-6" xMax="718" yMax="916">
      <component glyphName="uni030A.cap" x="205" y="147" flags="0x1004"/>
      <component glyphName="U" x="0" y="0" flags="0x1204"/>
    </TTGlyph>
    <TTGlyph name="Utilde" xMin="27" yMin="-6" xMax="718" yMax="833">
      <component glyphName="tildecomb.cap" x="99" y="-3" flags="0x1004"/>
      <component glyphName="U" x="0" y="0" flags="0x1204"/>
    </TTGlyph>
    <TTGlyph name="V" xMin="-5" yMin="-6" xMax="679" yMax="662">
      <contour>
        <pt x="126" y="656" on="1"/>
        <pt x="179" y="656" on="0"/>
        <pt x="259" y="662" on="1"/>
        <pt x="261" y="658" on="0"/>
        <pt x="261" y="632" on="0"/>
        <pt x="258" y="629" on="1"/>
        <pt x="249" y="629" on="0"/>
        <pt x="225" y="625" on="0"/>
        <pt x="197" y="611" on="0"/>
        <pt x="197" y="599" on="1"/>
        <pt x="197" y="582" on="0"/>
        <pt x="218" y="528" on="1"/>
        <pt x="237" y="481" on="0"/>
        <pt x="311" y="294" on="0"/>
        <pt x="364" y="161" on="0"/>
        <pt x="365" y="159" on="1"/>
        <pt x="437" y="327" on="0"/>
        <pt x="512" y="522" on="1"/>
        <pt x="532" y="575" on="0"/>
        <pt x="532" y="598" on="1"/>
        <pt x="532" y="614" on="0"/>
        <pt x="478" y="629" on="0"/>
        <pt x="459" y="629" on="1"/>
        <pt x="455" y="632" on="0"/>
        <pt x="456" y="657" on="0"/>
        <pt x="459" y="662" on="1"/>
        <pt x="543" y="656" on="0"/>
        <pt x="571" y="656" on="1"/>
        <pt x="597" y="656" on="0"/>
        <pt x="666" y="662" on="0"/>
        <pt x="676" y="662" on="1"/>
        <pt x="679" y="657" on="0"/>
        <pt x="678" y="632" on="0"/>
        <pt x="675" y="629" on="1"/>
        <pt x="625" y="629" on="0"/>
        <pt x="608" y="607" on="1"/>
        <pt x="591" y="586" on="0"/>
        <pt x="563" y="515" on="1"/>
        <pt x="502" y="365" on="0"/>
        <pt x="362" y="31" on="1"/>
        <pt x="355" y="15" on="0"/>
        <pt x="329" y="-6" on="0"/>
        <pt x="319" y="-6" on="1"/>
        <pt x="316" y="-6" on="0"/>
        <pt x="307" y="8" on="1"/>
        <pt x="288" y="58" on="0"/>
        <pt x="117" y="475" on="0"/>
        <pt x="103" y="512" on="1"/>
        <pt x="75" y="579" on="0"/>
        <pt x="63" y="601" on="1"/>
        <pt x="55" y="615" on="0"/>
        <pt x="11" y="629" on="0"/>
        <pt x="-3" y="629" on="1"/>
        <pt x="-5" y="632" on="0"/>
        <pt x="-5" y="659" on="0"/>
        <pt x="-3" y="662" on="1"/>
        <pt x="81" y="656" on="0"/>
      </contour>
    </TTGlyph>
    <TTGlyph name="W" xMin="-4" yMin="-6" xMax="939" yMax="662">
      <contour>
        <pt x="131" y="656" on="1"/>
        <pt x="176" y="656" on="0"/>
        <pt x="256" y="662" on="1"/>
        <pt x="258" y="658" on="0"/>
        <pt x="258" y="632" on="0"/>
        <pt x="255" y="629" on="1"/>
        <pt x="246" y="629" on="0"/>
        <pt x="222" y="625" on="0"/>
        <pt x="194" y="611" on="0"/>
        <pt x="194" y="599" on="1"/>
        <pt x="194" y="593" on="0"/>
        <pt x="214" y="529" on="1"/>
        <pt x="225" y="494" on="0"/>
        <pt x="274" y="346" on="0"/>
        <pt x="310" y="233" on="0"/>
        <pt x="319" y="202" on="1"/>
        <pt x="330" y="237" on="0"/>
        <pt x="385" y="405" on="0"/>
        <pt x="452" y="606" on="0"/>
        <pt x="459" y="627" on="1"/>
        <pt x="463" y="641" on="0"/>
        <pt x="484" y="662" on="0"/>
        <pt x="492" y="662" on="1"/>
        <pt x="498" y="662" on="0"/>
        <pt x="504" y="646" on="1"/>
        <pt x="613" y="357" on="0"/>
        <pt x="673" y="182" on="1"/>
        <pt x="682" y="212" on="0"/>
        <pt x="762" y="474" on="0"/>
        <pt x="775" y="522" on="1"/>
        <pt x="791" y="579" on="0"/>
        <pt x="791" y="598" on="1"/>
        <pt x="791" y="614" on="0"/>
        <pt x="737" y="629" on="0"/>
        <pt x="718" y="629" on="1"/>
        <pt x="714" y="632" on="0"/>
        <pt x="715" y="657" on="0"/>
        <pt x="718" y="662" on="1"/>
        <pt x="802" y="656" on="0"/>
        <pt x="831" y="656" on="1"/>
        <pt x="857" y="656" on="0"/>
        <pt x="926" y="662" on="0"/>
        <pt x="936" y="662" on="1"/>
        <pt x="939" y="657" on="0"/>
        <pt x="938" y="632" on="0"/>
        <pt x="935" y="629" on="1"/>
        <pt x="923" y="629" on="0"/>
        <pt x="878" y="617" on="0"/>
        <pt x="868" y="607" on="1"/>
        <pt x="848" y="584" on="0"/>
        <pt x="830" y="528" on="1"/>
        <pt x="783" y="376" on="0"/>
        <pt x="675" y="36" on="1"/>
        <pt x="670" y="20" on="0"/>
        <pt x="645" y="-6" on="0"/>
        <pt x="636" y="-6" on="1"/>
        <pt x="628" y="-6" on="0"/>
        <pt x="621" y="8" on="1"/>
        <pt x="604" y="57" on="0"/>
        <pt x="471" y="413" on="0"/>
        <pt x="455" y="460" on="1"/>
        <pt x="440" y="411" on="0"/>
        <pt x="341" y="111" on="0"/>
        <pt x="318" y="38" on="1"/>
        <pt x="315" y="26" on="0"/>
        <pt x="290" y="-6" on="0"/>
        <pt x="274" y="-6" on="0"/>
        <pt x="267" y="8" on="1"/>
        <pt x="253" y="54" on="0"/>
        <pt x="113" y="472" on="0"/>
        <pt x="97" y="521" on="1"/>
        <pt x="79" y="579" on="0"/>
        <pt x="62" y="602" on="1"/>
        <pt x="53" y="615" on="0"/>
        <pt x="13" y="629" on="0"/>
        <pt x="-1" y="629" on="1"/>
        <pt x="-4" y="632" on="0"/>
        <pt x="-3" y="659" on="0"/>
        <pt x="-1" y="662" on="1"/>
        <pt x="85" y="656" on="0"/>
      </contour>
    </TTGlyph>
    <TTGlyph name="Wcircumflex" xMin="-1" yMin="-6" xMax="936" yMax="864">
      <component glyphName="uni0302.cap" x="334" y="13" flags="0x1004"/>
      <component glyphName="W" x="0" y="0" flags="0x1204"/>
    </TTGlyph>
    <TTGlyph name="X" xMin="-8" yMin="-4" xMax="692" yMax="662">
      <contour>
        <pt x="168" y="656" on="1"/>
        <pt x="184" y="656" on="0"/>
        <pt x="304" y="662" on="1"/>
        <pt x="306" y="658" on="0"/>
        <pt x="305" y="629" on="0"/>
        <pt x="302" y="629" on="1"/>
        <pt x="286" y="629" on="0"/>
        <pt x="245" y="615" on="0"/>
        <pt x="245" y="602" on="1"/>
        <pt x="245" y="591" on="0"/>
        <pt x="255" y="576" on="1"/>
        <pt x="369" y="403" on="1"/>
        <pt x="496" y="569" on="0"/>
        <pt x="505" y="588" on="1"/>
        <pt x="505" y="589" on="0"/>
        <pt x="509" y="599" on="0"/>
        <pt x="509" y="601" on="1"/>
        <pt x="509" y="611" on="0"/>
        <pt x="470" y="628" on="0"/>
        <pt x="438" y="628" on="1"/>
        <pt x="435" y="628" on="0"/>
        <pt x="433" y="658" on="0"/>
        <pt x="436" y="662" on="1"/>
        <pt x="493" y="656" on="0"/>
        <pt x="619" y="656" on="0"/>
        <pt x="671" y="662" on="1"/>
        <pt x="674" y="657" on="0"/>
        <pt x="674" y="631" on="0"/>
        <pt x="670" y="628" on="1"/>
        <pt x="608" y="628" on="0"/>
        <pt x="570" y="582" on="1"/>
        <pt x="556" y="565" on="0"/>
        <pt x="413" y="392" on="0"/>
        <pt x="393" y="365" on="1"/>
        <pt x="576" y="86" on="0"/>
        <pt x="591" y="71" on="1"/>
        <pt x="607" y="50" on="0"/>
        <pt x="666" y="29" on="0"/>
        <pt x="689" y="29" on="1"/>
        <pt x="692" y="24" on="0"/>
        <pt x="692" y="0" on="0"/>
        <pt x="690" y="-4" on="1"/>
        <pt x="570" y="2" on="0"/>
        <pt x="558" y="2" on="1"/>
        <pt x="525" y="2" on="0"/>
        <pt x="419" y="-4" on="0"/>
        <pt x="406" y="-4" on="1"/>
        <pt x="402" y="0" on="0"/>
        <pt x="403" y="29" on="0"/>
        <pt x="407" y="29" on="1"/>
        <pt x="420" y="29" on="0"/>
        <pt x="464" y="46" on="0"/>
        <pt x="464" y="58" on="1"/>
        <pt x="464" y="63" on="0"/>
        <pt x="460" y="69" on="1"/>
        <pt x="318" y="286" on="1"/>
        <pt x="199" y="130" on="0"/>
        <pt x="167" y="74" on="1"/>
        <pt x="160" y="60" on="0"/>
        <pt x="160" y="58" on="1"/>
        <pt x="160" y="47" on="0"/>
        <pt x="207" y="29" on="0"/>
        <pt x="239" y="29" on="1"/>
        <pt x="242" y="25" on="0"/>
        <pt x="244" y="1" on="0"/>
        <pt x="242" y="-4" on="1"/>
        <pt x="137" y="2" on="0"/>
        <pt x="119" y="2" on="1"/>
        <pt x="114" y="2" on="0"/>
        <pt x="-6" y="-4" on="1"/>
        <pt x="-9" y="1" on="0"/>
        <pt x="-7" y="25" on="0"/>
        <pt x="-5" y="29" on="1"/>
        <pt x="5" y="29" on="0"/>
        <pt x="35" y="33" on="0"/>
        <pt x="87" y="54" on="0"/>
        <pt x="100" y="72" on="1"/>
        <pt x="123" y="101" on="0"/>
        <pt x="289" y="326" on="0"/>
        <pt x="290" y="327" on="1"/>
        <pt x="149" y="542" on="1"/>
        <pt x="113" y="599" on="0"/>
        <pt x="65" y="629" on="0"/>
        <pt x="27" y="629" on="1"/>
        <pt x="23" y="629" on="0"/>
        <pt x="23" y="658" on="0"/>
        <pt x="27" y="662" on="1"/>
        <pt x="33" y="662" on="0"/>
        <pt x="139" y="656" on="0"/>
      </contour>
    </TTGlyph>
    <TTGlyph name="Y" xMin="-8" yMin="-4" xMax="621" yMax="662">
      <contour>
        <pt x="247" y="130" on="1"/>
        <pt x="247" y="276" on="1"/>
        <pt x="247" y="284" on="0"/>
        <pt x="240" y="300" on="1"/>
        <pt x="221" y="335" on="0"/>
        <pt x="170" y="430" on="0"/>
        <pt x="116" y="525" on="0"/>
        <pt x="107" y="542" on="1"/>
        <pt x="87" y="578" on="0"/>
        <pt x="58" y="604" on="1"/>
        <pt x="47" y="616" on="0"/>
        <pt x="8" y="629" on="0"/>
        <pt x="-4" y="629" on="1"/>
        <pt x="-8" y="632" on="0"/>
        <pt x="-7" y="657" on="0"/>
        <pt x="-4" y="662" on="1"/>
        <pt x="84" y="656" on="0"/>
        <pt x="130" y="656" on="1"/>
        <pt x="185" y="656" on="0"/>
        <pt x="265" y="662" on="1"/>
        <pt x="268" y="657" on="0"/>
        <pt x="268" y="632" on="0"/>
        <pt x="264" y="629" on="1"/>
        <pt x="203" y="629" on="0"/>
        <pt x="203" y="600" on="1"/>
        <pt x="203" y="593" on="0"/>
        <pt x="213" y="576" on="1"/>
        <pt x="341" y="348" on="1"/>
        <pt x="388" y="422" on="0"/>
        <pt x="470" y="585" on="1"/>
        <pt x="474" y="597" on="0"/>
        <pt x="474" y="604" on="1"/>
        <pt x="474" y="613" on="0"/>
        <pt x="427" y="628" on="0"/>
        <pt x="401" y="628" on="1"/>
        <pt x="398" y="631" on="0"/>
        <pt x="398" y="659" on="0"/>
        <pt x="400" y="662" on="1"/>
        <pt x="484" y="656" on="0"/>
        <pt x="508" y="656" on="1"/>
        <pt x="536" y="656" on="0"/>
        <pt x="612" y="662" on="0"/>
        <pt x="619" y="662" on="1"/>
        <pt x="621" y="658" on="0"/>
        <pt x="621" y="631" on="0"/>
        <pt x="618" y="628" on="1"/>
        <pt x="556" y="628" on="0"/>
        <pt x="537" y="596" on="1"/>
        <pt x="411" y="387" on="0"/>
        <pt x="366" y="300" on="1"/>
        <pt x="361" y="291" on="0"/>
        <pt x="361" y="274" on="1"/>
        <pt x="361" y="130" on="1"/>
        <pt x="361" y="64" on="0"/>
        <pt x="367" y="46" on="1"/>
        <pt x="370" y="38" on="0"/>
        <pt x="418" y="29" on="0"/>
        <pt x="433" y="29" on="1"/>
        <pt x="436" y="24" on="0"/>
        <pt x="436" y="0" on="0"/>
        <pt x="433" y="-4" on="1"/>
        <pt x="353" y="2" on="0"/>
        <pt x="303" y="2" on="1"/>
        <pt x="254" y="2" on="0"/>
        <pt x="174" y="-4" on="1"/>
        <pt x="171" y="0" on="0"/>
        <pt x="171" y="24" on="0"/>
        <pt x="174" y="29" on="1"/>
        <pt x="189" y="29" on="0"/>
        <pt x="237" y="38" on="0"/>
        <pt x="240" y="46" on="1"/>
        <pt x="247" y="67" on="0"/>
      </contour>
    </TTGlyph>
    <TTGlyph name="Yacute" xMin="-4" yMin="-4" xMax="619" yMax="865">
      <component glyphName="acutecomb.cap" x="273" y="2" flags="0x1004"/>
      <component glyphName="Y" x="0" y="0" flags="0x1204"/>
    </TTGlyph>
    <TTGlyph name="Ycircumflex" xMin="-4" yMin="-4" xMax="619" yMax="864">
      <component glyphName="uni0302.cap" x="171" y="13" flags="0x1004"/>
      <component glyphName="Y" x="0" y="0" flags="0x1204"/>
    </TTGlyph>
    <TTGlyph name="Ydieresis" xMin="-4" yMin="-4" xMax="619" yMax="847">
      <component glyphName="uni0308.cap" x="134" y="-11" flags="0x1004"/>
      <component glyphName="Y" x="0" y="0" flags="0x1204"/>
    </TTGlyph>
    <TTGlyph name="Z" xMin="27" yMin="0" xMax="607" yMax="668">
      <contour>
        <pt x="224" y="617" on="1"/>
        <pt x="165" y="617" on="0"/>
        <pt x="105" y="548" on="0"/>
        <pt x="84" y="483" on="1"/>
        <pt x="81" y="478" on="0"/>
        <pt x="71" y="478" on="1"/>
        <pt x="50" y="478" on="0"/>
        <pt x="44" y="484" on="1"/>
        <pt x="66" y="565" on="0"/>
        <pt x="78" y="666" on="1"/>
        <pt x="114" y="658" on="0"/>
        <pt x="185" y="658" on="1"/>
        <pt x="352" y="658" on="1"/>
        <pt x="433" y="658" on="0"/>
        <pt x="573" y="668" on="1"/>
        <pt x="576" y="667" on="0"/>
        <pt x="587" y="647" on="0"/>
        <pt x="587" y="641" on="1"/>
        <pt x="586" y="637" on="0"/>
        <pt x="383" y="338" on="0"/>
        <pt x="282" y="190" on="1"/>
        <pt x="181" y="42" on="1"/>
        <pt x="419" y="42" on="1"/>
        <pt x="478" y="42" on="0"/>
        <pt x="514" y="78" on="1"/>
        <pt x="541" y="105" on="0"/>
        <pt x="566" y="171" on="1"/>
        <pt x="568" y="176" on="0"/>
        <pt x="580" y="176" on="1"/>
        <pt x="599" y="176" on="0"/>
        <pt x="607" y="168" on="1"/>
        <pt x="600" y="145" on="0"/>
        <pt x="576" y="73" on="0"/>
        <pt x="560" y="21" on="0"/>
        <pt x="556" y="0" on="1"/>
        <pt x="49" y="0" on="1"/>
        <pt x="40" y="0" on="0"/>
        <pt x="25" y="14" on="0"/>
        <pt x="27" y="18" on="1"/>
        <pt x="437" y="617" on="1"/>
      </contour>
    </TTGlyph>
    <TTGlyph name="Zacute" xMin="27" yMin="0" xMax="607" yMax="866">
      <component glyphName="acutecomb.cap" x="262" y="3" flags="0x1004"/>
      <component glyphName="Z" x="0" y="0" flags="0x1204"/>
    </TTGlyph>
    <TTGlyph name="Zcaron" xMin="27" yMin="0" xMax="607" yMax="885">
      <component glyphName="uni030C.cap" x="-50" y="22" flags="0x1004"/>
      <component glyphName="Z" x="0" y="0" flags="0x1204"/>
    </TTGlyph>
    <TTGlyph name="Zdotaccent" xMin="27" yMin="0" xMax="607" yMax="848">
      <component glyphName="uni0307.cap" x="171" y="14" flags="0x1004"/>
      <component glyphName="Z" x="0" y="0" flags="0x1204"/>
    </TTGlyph>
    <TTGlyph name="a" xMin="33" yMin="-8" xMax="437" yMax="442">
      <contour>
        <pt x="207" y="54" on="1"/>
        <pt x="228" y="54" on="0"/>
        <pt x="271" y="78" on="0"/>
        <pt x="271" y="85" on="1"/>
        <pt x="271" y="223" on="1"/>
        <pt x="198" y="195" on="0"/>
        <pt x="191" y="192" on="1"/>
        <pt x="142" y="168" on="0"/>
        <pt x="142" y="120" on="1"/>
        <pt x="142" y="91" on="0"/>
        <pt x="182" y="54" on="0"/>
      </contour>
      <contour>
        <pt x="244" y="442" on="1"/>
        <pt x="298" y="442" on="0"/>
        <pt x="374" y="360" on="0"/>
        <pt x="374" y="298" on="1"/>
        <pt x="374" y="101" on="1"/>
        <pt x="374" y="57" on="0"/>
        <pt x="401" y="57" on="1"/>
        <pt x="410" y="57" on="0"/>
        <pt x="432" y="68" on="1"/>
        <pt x="437" y="67" on="0"/>
        <pt x="437" y="56" on="1"/>
        <pt x="437" y="46" on="0"/>
        <pt x="433" y="39" on="1"/>
        <pt x="418" y="25" on="0"/>
        <pt x="365" y="-6" on="0"/>
        <pt x="344" y="-6" on="1"/>
        <pt x="322" y="-6" on="0"/>
        <pt x="281" y="30" on="0"/>
        <pt x="275" y="52" on="1"/>
        <pt x="263" y="40" on="0"/>
        <pt x="180" y="-8" on="0"/>
        <pt x="157" y="-8" on="1"/>
        <pt x="105" y="-8" on="0"/>
        <pt x="33" y="63" on="0"/>
        <pt x="33" y="110" on="1"/>
        <pt x="33" y="138" on="0"/>
        <pt x="65" y="183" on="0"/>
        <pt x="85" y="190" on="1"/>
        <pt x="169" y="219" on="0"/>
        <pt x="265" y="257" on="1"/>
        <pt x="271" y="264" on="0"/>
        <pt x="271" y="280" on="1"/>
        <pt x="271" y="306" on="1"/>
        <pt x="271" y="343" on="0"/>
        <pt x="228" y="404" on="0"/>
        <pt x="198" y="404" on="1"/>
        <pt x="173" y="404" on="0"/>
        <pt x="148" y="367" on="0"/>
        <pt x="141" y="332" on="1"/>
        <pt x="131" y="286" on="0"/>
        <pt x="90" y="286" on="1"/>
        <pt x="72" y="286" on="0"/>
        <pt x="47" y="312" on="0"/>
        <pt x="47" y="330" on="1"/>
        <pt x="47" y="346" on="0"/>
        <pt x="57" y="363" on="1"/>
        <pt x="82" y="387" on="0"/>
        <pt x="192" y="442" on="0"/>
      </contour>
    </TTGlyph>
    <TTGlyph name="aacute" xMin="33" yMin="-8" xMax="437" yMax="666">
      <component glyphName="acutecomb" x="138" y="-19" flags="0x1004"/>
      <component glyphName="a" x="0" y="0" flags="0x1204"/>
    </TTGlyph>
    <TTGlyph name="abreve" xMin="33" yMin="-8" xMax="437" yMax="624">
      <component glyphName="breve" x="-185" y="-11" flags="0x1004"/>
      <component glyphName="a" x="0" y="0" flags="0x1204"/>
    </TTGlyph>
    <TTGlyph name="acircumflex" xMin="33" yMin="-8" xMax="437" yMax="662">
      <component glyphName="uni0302" x="73" y="12" flags="0x1004"/>
      <component glyphName="a" x="0" y="0" flags="0x1204"/>
    </TTGlyph>
    <TTGlyph name="acute" xMin="274" yMin="524" xMax="444" yMax="686">
      <contour>
        <pt x="402" y="686" on="1"/>
        <pt x="418" y="686" on="0"/>
        <pt x="438" y="675" on="0"/>
        <pt x="444" y="664" on="0"/>
        <pt x="444" y="660" on="1"/>
        <pt x="444" y="635" on="0"/>
        <pt x="302" y="524" on="0"/>
        <pt x="289" y="524" on="1"/>
        <pt x="284" y="524" on="0"/>
        <pt x="274" y="535" on="0"/>
        <pt x="274" y="545" on="0"/>
        <pt x="343" y="649" on="0"/>
        <pt x="368" y="678" on="1"/>
        <pt x="376" y="686" on="0"/>
      </contour>
    </TTGlyph>
    <TTGlyph name="acutecomb" xMin="38" yMin="523" xMax="208" yMax="685">
      <contour>
        <pt x="164" y="685" on="1"/>
        <pt x="180" y="685" on="0"/>
        <pt x="201" y="674" on="0"/>
        <pt x="208" y="663" on="0"/>
        <pt x="208" y="659" on="1"/>
        <pt x="208" y="634" on="0"/>
        <pt x="65" y="523" on="0"/>
        <pt x="52" y="523" on="1"/>
        <pt x="47" y="523" on="0"/>
        <pt x="38" y="533" on="0"/>
        <pt x="38" y="538" on="1"/>
        <pt x="38" y="541" on="0"/>
        <pt x="68" y="591" on="0"/>
        <pt x="113" y="657" on="0"/>
        <pt x="130" y="676" on="1"/>
        <pt x="139" y="685" on="0"/>
      </contour>
    </TTGlyph>
    <TTGlyph name="acutecomb.cap" xMin="27" yMin="726" xMax="219" yMax="863">
      <contour>
        <pt x="27" y="737" on="0"/>
        <pt x="27" y="749" on="0"/>
        <pt x="117" y="838" on="0"/>
        <pt x="146" y="860" on="1"/>
        <pt x="152" y="863" on="0"/>
        <pt x="164" y="863" on="1"/>
        <pt x="186" y="863" on="0"/>
        <pt x="219" y="844" on="0"/>
        <pt x="219" y="830" on="1"/>
        <pt x="219" y="806" on="0"/>
        <pt x="58" y="726" on="0"/>
        <pt x="39" y="726" on="1"/>
        <pt x="35" y="726" on="0"/>
      </contour>
    </TTGlyph>
    <TTGlyph name="adieresis" xMin="33" yMin="-8" xMax="437" yMax="620">
      <component glyphName="dieresis" x="26" y="47" flags="0x1004"/>
      <component glyphName="a" x="0" y="0" flags="0x1204"/>
    </TTGlyph>
    <TTGlyph name="ae" xMin="33" yMin="-8" xMax="638" yMax="442">
      <contour>
        <pt x="191" y="192" on="1"/>
        <pt x="142" y="168" on="0"/>
        <pt x="142" y="120" on="1"/>
        <pt x="142" y="91" on="0"/>
        <pt x="182" y="54" on="0"/>
        <pt x="207" y="54" on="1"/>
        <pt x="231" y="54" on="0"/>
        <pt x="287" y="86" on="0"/>
        <pt x="287" y="103" on="1"/>
        <pt x="274" y="137" on="0"/>
        <pt x="270" y="194" on="1"/>
        <pt x="270" y="222" on="1"/>
        <pt x="198" y="196" on="0"/>
      </contour>
      <contour>
        <pt x="461" y="404" on="1"/>
        <pt x="436" y="404" on="0"/>
        <pt x="397" y="372" on="0"/>
        <pt x="378" y="327" on="0"/>
        <pt x="369" y="291" on="0"/>
        <pt x="369" y="283" on="1"/>
        <pt x="481" y="283" on="0"/>
        <pt x="515" y="287" on="1"/>
        <pt x="533" y="287" on="0"/>
        <pt x="533" y="307" on="1"/>
        <pt x="533" y="340" on="0"/>
        <pt x="497" y="404" on="0"/>
      </contour>
      <contour>
        <pt x="475" y="442" on="1"/>
        <pt x="519" y="442" on="0"/>
        <pt x="587" y="412" on="0"/>
        <pt x="621" y="365" on="0"/>
        <pt x="637" y="320" on="0"/>
        <pt x="637" y="299" on="1"/>
        <pt x="637" y="256" on="0"/>
        <pt x="611" y="254" on="1"/>
        <pt x="553" y="249" on="0"/>
        <pt x="365" y="245" on="1"/>
        <pt x="364" y="154" on="0"/>
        <pt x="458" y="66" on="0"/>
        <pt x="517" y="66" on="1"/>
        <pt x="582" y="66" on="0"/>
        <pt x="628" y="117" on="1"/>
        <pt x="638" y="114" on="0"/>
        <pt x="638" y="101" on="1"/>
        <pt x="638" y="92" on="0"/>
        <pt x="633" y="82" on="1"/>
        <pt x="613" y="51" on="0"/>
        <pt x="527" y="-8" on="0"/>
        <pt x="470" y="-8" on="1"/>
        <pt x="420" y="-8" on="0"/>
        <pt x="332" y="32" on="0"/>
        <pt x="307" y="70" on="1"/>
        <pt x="276" y="43" on="0"/>
        <pt x="181" y="-8" on="0"/>
        <pt x="157" y="-8" on="1"/>
        <pt x="105" y="-8" on="0"/>
        <pt x="33" y="63" on="0"/>
        <pt x="33" y="110" on="1"/>
        <pt x="33" y="138" on="0"/>
        <pt x="63" y="182" on="0"/>
        <pt x="83" y="190" on="1"/>
        <pt x="107" y="200" on="0"/>
        <pt x="251" y="254" on="0"/>
        <pt x="267" y="260" on="1"/>
        <pt x="275" y="265" on="0"/>
        <pt x="277" y="278" on="1"/>
        <pt x="278" y="293" on="0"/>
        <pt x="277" y="310" on="1"/>
        <pt x="273" y="349" on="0"/>
        <pt x="229" y="404" on="0"/>
        <pt x="198" y="404" on="1"/>
        <pt x="173" y="404" on="0"/>
        <pt x="148" y="367" on="0"/>
        <pt x="141" y="331" on="1"/>
        <pt x="131" y="286" on="0"/>
        <pt x="90" y="286" on="1"/>
        <pt x="72" y="286" on="0"/>
        <pt x="47" y="312" on="0"/>
        <pt x="47" y="348" on="0"/>
        <pt x="57" y="363" on="1"/>
        <pt x="79" y="385" on="0"/>
        <pt x="191" y="442" on="0"/>
        <pt x="243" y="442" on="1"/>
        <pt x="310" y="442" on="0"/>
        <pt x="348" y="384" on="1"/>
        <pt x="408" y="442" on="0"/>
      </contour>
    </TTGlyph>
    <TTGlyph name="aeacute" xMin="33" yMin="-8" xMax="638" yMax="665">
      <component glyphName="acutecomb" x="407" y="-20" flags="0x1004"/>
      <component glyphName="ae" x="0" y="0" flags="0x1204"/>
    </TTGlyph>
    <TTGlyph name="afii00208" xMin="26" yMin="202" xMax="1050" yMax="270">
      <contour>
        <pt x="26" y="211" on="1"/>
        <pt x="26" y="222" on="0"/>
        <pt x="33" y="270" on="0"/>
        <pt x="40" y="270" on="1"/>
        <pt x="1044" y="270" on="1"/>
        <pt x="1050" y="270" on="0"/>
        <pt x="1050" y="261" on="1"/>
        <pt x="1050" y="241" on="0"/>
        <pt x="1042" y="209" on="1"/>
        <pt x="1041" y="206" on="0"/>
        <pt x="1037" y="203" on="0"/>
        <pt x="1036" y="202" on="1"/>
        <pt x="1034" y="202" on="1"/>
        <pt x="32" y="202" on="1"/>
        <pt x="32" y="202" on="0"/>
        <pt x="28" y="204" on="1"/>
        <pt x="26" y="207" on="0"/>
      </contour>
    </TTGlyph>
    <TTGlyph name="afii57929" xMin="30" yMin="459" xMax="131" yMax="670">
      <component glyphName="uni0315" x="-53" y="0" flags="0x1004"/>
    </TTGlyph>
    <TTGlyph name="agrave" xMin="33" yMin="-8" xMax="437" yMax="666">
      <component glyphName="gravecomb" x="42" y="-19" flags="0x1004"/>
      <component glyphName="a" x="0" y="0" flags="0x1204"/>
    </TTGlyph>
    <TTGlyph name="amacron" xMin="33" yMin="-8" xMax="437" yMax="551">
      <component glyphName="uni0304" x="19" y="-51" flags="0x1004"/>
      <component glyphName="a" x="0" y="0" flags="0x1204"/>
    </TTGlyph>
    <TTGlyph name="ampersand" xMin="54" yMin="-4" xMax="669" yMax="650">
      <contour>
        <pt x="393" y="95" on="1"/>
        <pt x="373" y="118" on="0"/>
        <pt x="302" y="214" on="0"/>
        <pt x="237" y="308" on="0"/>
        <pt x="233" y="314" on="1"/>
        <pt x="199" y="289" on="0"/>
        <pt x="162" y="236" on="0"/>
        <pt x="162" y="196" on="1"/>
        <pt x="162" y="135" on="0"/>
        <pt x="238" y="56" on="0"/>
        <pt x="299" y="56" on="1"/>
        <pt x="354" y="56" on="0"/>
      </contour>
      <contour>
        <pt x="312" y="614" on="1"/>
        <pt x="282" y="614" on="0"/>
        <pt x="243" y="569" on="0"/>
        <pt x="243" y="534" on="1"/>
        <pt x="243" y="483" on="0"/>
        <pt x="295" y="396" on="1"/>
        <pt x="337" y="420" on="0"/>
        <pt x="377" y="477" on="0"/>
        <pt x="377" y="522" on="1"/>
        <pt x="377" y="555" on="0"/>
        <pt x="343" y="614" on="0"/>
      </contour>
      <contour>
        <pt x="301" y="650" on="1"/>
        <pt x="373" y="650" on="0"/>
        <pt x="463" y="588" on="0"/>
        <pt x="463" y="536" on="1"/>
        <pt x="463" y="476" on="0"/>
        <pt x="382" y="394" on="0"/>
        <pt x="317" y="362" on="1"/>
        <pt x="379" y="267" on="0"/>
        <pt x="461" y="168" on="1"/>
        <pt x="519" y="249" on="0"/>
        <pt x="519" y="266" on="1"/>
        <pt x="519" y="276" on="0"/>
        <pt x="500" y="284" on="0"/>
        <pt x="474" y="284" on="0"/>
        <pt x="473" y="284" on="1"/>
        <pt x="470" y="288" on="0"/>
        <pt x="470" y="310" on="0"/>
        <pt x="473" y="312" on="1"/>
        <pt x="547" y="312" on="1"/>
        <pt x="574" y="312" on="0"/>
        <pt x="666" y="316" on="1"/>
        <pt x="669" y="314" on="0"/>
        <pt x="668" y="287" on="0"/>
        <pt x="665" y="285" on="1"/>
        <pt x="653" y="285" on="0"/>
        <pt x="604" y="276" on="0"/>
        <pt x="595" y="269" on="1"/>
        <pt x="591" y="266" on="0"/>
        <pt x="557" y="221" on="0"/>
        <pt x="508" y="155" on="0"/>
        <pt x="489" y="134" on="1"/>
        <pt x="492" y="131" on="0"/>
        <pt x="509" y="112" on="0"/>
        <pt x="518" y="102" on="0"/>
        <pt x="534" y="86" on="0"/>
        <pt x="545" y="77" on="0"/>
        <pt x="559" y="67" on="0"/>
        <pt x="570" y="62" on="0"/>
        <pt x="575" y="62" on="1"/>
        <pt x="591" y="62" on="0"/>
        <pt x="624" y="96" on="0"/>
        <pt x="633" y="112" on="1"/>
        <pt x="640" y="112" on="0"/>
        <pt x="655" y="100" on="0"/>
        <pt x="657" y="94" on="1"/>
        <pt x="653" y="84" on="0"/>
        <pt x="624" y="44" on="0"/>
        <pt x="562" y="-2" on="0"/>
        <pt x="531" y="-2" on="1"/>
        <pt x="478" y="-2" on="0"/>
        <pt x="419" y="66" on="1"/>
        <pt x="342" y="-4" on="0"/>
        <pt x="241" y="-4" on="1"/>
        <pt x="163" y="-4" on="0"/>
        <pt x="54" y="84" on="0"/>
        <pt x="54" y="157" on="1"/>
        <pt x="54" y="195" on="0"/>
        <pt x="80" y="257" on="0"/>
        <pt x="132" y="305" on="0"/>
        <pt x="174" y="334" on="0"/>
        <pt x="207" y="352" on="1"/>
        <pt x="204" y="356" on="0"/>
        <pt x="185" y="387" on="0"/>
        <pt x="177" y="402" on="0"/>
        <pt x="162" y="432" on="0"/>
        <pt x="155" y="455" on="0"/>
        <pt x="149" y="488" on="0"/>
        <pt x="149" y="504" on="1"/>
        <pt x="149" y="567" on="0"/>
        <pt x="235" y="650" on="0"/>
      </contour>
    </TTGlyph>
    <TTGlyph name="aogonek" xMin="33" yMin="-218" xMax="437" yMax="442">
      <contour>
        <pt x="433" y="39" on="1"/>
        <pt x="409" y="18" on="0"/>
        <pt x="385" y="6" on="1"/>
        <pt x="268" y="-55" on="0"/>
        <pt x="268" y="-108" on="1"/>
        <pt x="268" y="-125" on="0"/>
        <pt x="289" y="-154" on="0"/>
        <pt x="313" y="-154" on="1"/>
        <pt x="331" y="-154" on="0"/>
        <pt x="365" y="-137" on="0"/>
        <pt x="390" y="-115" on="0"/>
        <pt x="391" y="-115" on="1"/>
        <pt x="396" y="-115" on="0"/>
        <pt x="396" y="-127" on="1"/>
        <pt x="396" y="-140" on="0"/>
        <pt x="390" y="-148" on="1"/>
        <pt x="371" y="-173" on="0"/>
        <pt x="309" y="-218" on="0"/>
        <pt x="276" y="-218" on="1"/>
        <pt x="244" y="-218" on="0"/>
        <pt x="204" y="-171" on="0"/>
        <pt x="204" y="-140" on="1"/>
        <pt x="204" y="-103" on="0"/>
        <pt x="274" y="-23" on="0"/>
        <pt x="319" y="0" on="1"/>
        <pt x="284" y="17" on="0"/>
        <pt x="275" y="52" on="1"/>
        <pt x="263" y="40" on="0"/>
        <pt x="180" y="-8" on="0"/>
        <pt x="157" y="-8" on="1"/>
        <pt x="105" y="-8" on="0"/>
        <pt x="33" y="63" on="0"/>
        <pt x="33" y="110" on="1"/>
        <pt x="33" y="138" on="0"/>
        <pt x="65" y="183" on="0"/>
        <pt x="85" y="190" on="1"/>
        <pt x="169" y="219" on="0"/>
        <pt x="265" y="257" on="1"/>
        <pt x="271" y="264" on="0"/>
        <pt x="271" y="280" on="1"/>
        <pt x="271" y="306" on="1"/>
        <pt x="271" y="343" on="0"/>
        <pt x="228" y="404" on="0"/>
        <pt x="198" y="404" on="1"/>
        <pt x="173" y="404" on="0"/>
        <pt x="148" y="367" on="0"/>
        <pt x="141" y="332" on="1"/>
        <pt x="131" y="286" on="0"/>
        <pt x="90" y="286" on="1"/>
        <pt x="72" y="286" on="0"/>
        <pt x="47" y="312" on="0"/>
        <pt x="47" y="330" on="1"/>
        <pt x="47" y="346" on="0"/>
        <pt x="57" y="363" on="1"/>
        <pt x="82" y="387" on="0"/>
        <pt x="192" y="442" on="0"/>
        <pt x="244" y="442" on="1"/>
        <pt x="298" y="442" on="0"/>
        <pt x="374" y="360" on="0"/>
        <pt x="374" y="298" on="1"/>
        <pt x="374" y="101" on="1"/>
        <pt x="374" y="57" on="0"/>
        <pt x="401" y="57" on="1"/>
        <pt x="410" y="57" on="0"/>
        <pt x="432" y="68" on="1"/>
        <pt x="437" y="67" on="0"/>
        <pt x="437" y="56" on="1"/>
        <pt x="437" y="46" on="0"/>
      </contour>
      <contour>
        <pt x="207" y="54" on="1"/>
        <pt x="228" y="54" on="0"/>
        <pt x="271" y="78" on="0"/>
        <pt x="271" y="85" on="1"/>
        <pt x="271" y="223" on="1"/>
        <pt x="198" y="195" on="0"/>
        <pt x="191" y="192" on="1"/>
        <pt x="142" y="168" on="0"/>
        <pt x="142" y="120" on="1"/>
        <pt x="143" y="91" on="0"/>
        <pt x="182" y="54" on="0"/>
      </contour>
    </TTGlyph>
    <TTGlyph name="aring" xMin="33" yMin="-8" xMax="437" yMax="714">
      <component glyphName="degree" x="87" y="73" flags="0x1004"/>
      <component glyphName="a" x="0" y="0" flags="0x1204"/>
    </TTGlyph>
    <TTGlyph name="aringacute" xMin="37" yMin="-8" xMax="441" yMax="913">
      <component glyphName="acutecomb" x="171" y="228" flags="0x1004"/>
      <component glyphName="aring" x="4" y="0" flags="0x1204"/>
    </TTGlyph>
    <TTGlyph name="asciicircum" xMin="50" yMin="421" xMax="322" yMax="657">
      <contour>
        <pt x="186" y="657" on="1"/>
        <pt x="198" y="657" on="0"/>
        <pt x="204" y="644" on="1"/>
        <pt x="263" y="537" on="0"/>
        <pt x="322" y="438" on="1"/>
        <pt x="322" y="431" on="0"/>
        <pt x="311" y="421" on="0"/>
        <pt x="305" y="421" on="1"/>
        <pt x="282" y="444" on="0"/>
        <pt x="222" y="510" on="0"/>
        <pt x="204" y="532" on="1"/>
        <pt x="186" y="554" on="1"/>
        <pt x="120" y="472" on="0"/>
        <pt x="68" y="421" on="1"/>
        <pt x="62" y="421" on="0"/>
        <pt x="50" y="431" on="0"/>
        <pt x="50" y="438" on="1"/>
        <pt x="121" y="556" on="0"/>
        <pt x="169" y="644" on="1"/>
        <pt x="176" y="657" on="0"/>
      </contour>
    </TTGlyph>
    <TTGlyph name="asciitilde" xMin="51" yMin="244" xMax="513" yMax="360">
      <contour>
        <pt x="265" y="275" on="1"/>
        <pt x="192" y="304" on="0"/>
        <pt x="102" y="304" on="0"/>
        <pt x="59" y="259" on="1"/>
        <pt x="51" y="263" on="0"/>
        <pt x="51" y="272" on="1"/>
        <pt x="51" y="301" on="0"/>
        <pt x="135" y="360" on="0"/>
        <pt x="177" y="360" on="1"/>
        <pt x="222" y="360" on="0"/>
        <pt x="299" y="330" on="1"/>
        <pt x="372" y="300" on="0"/>
        <pt x="417" y="300" on="1"/>
        <pt x="459" y="300" on="0"/>
        <pt x="505" y="346" on="1"/>
        <pt x="513" y="342" on="0"/>
        <pt x="513" y="333" on="1"/>
        <pt x="513" y="305" on="0"/>
        <pt x="432" y="244" on="0"/>
        <pt x="388" y="244" on="1"/>
        <pt x="345" y="244" on="0"/>
      </contour>
    </TTGlyph>
    <TTGlyph name="asterisk" xMin="36" yMin="300" xMax="396" yMax="662">
      <contour>
        <pt x="295" y="616" on="1"/>
        <pt x="309" y="632" on="0"/>
        <pt x="347" y="637" on="0"/>
        <pt x="358" y="626" on="1"/>
        <pt x="370" y="614" on="0"/>
        <pt x="369" y="578" on="0"/>
        <pt x="354" y="563" on="1"/>
        <pt x="336" y="545" on="0"/>
        <pt x="270" y="519" on="0"/>
        <pt x="257" y="506" on="1"/>
        <pt x="251" y="497" on="0"/>
        <pt x="251" y="487" on="0"/>
        <pt x="260" y="483" on="1"/>
        <pt x="276" y="475" on="0"/>
        <pt x="344" y="468" on="0"/>
        <pt x="367" y="458" on="1"/>
        <pt x="386" y="450" on="0"/>
        <pt x="403" y="417" on="0"/>
        <pt x="396" y="402" on="1"/>
        <pt x="388" y="387" on="0"/>
        <pt x="355" y="377" on="0"/>
        <pt x="335" y="386" on="1"/>
        <pt x="312" y="397" on="0"/>
        <pt x="266" y="452" on="0"/>
        <pt x="250" y="460" on="1"/>
        <pt x="236" y="463" on="1"/>
        <pt x="233" y="461" on="0"/>
        <pt x="231" y="452" on="1"/>
        <pt x="229" y="434" on="0"/>
        <pt x="243" y="369" on="0"/>
        <pt x="240" y="344" on="1"/>
        <pt x="238" y="324" on="0"/>
        <pt x="211" y="298" on="0"/>
        <pt x="196" y="300" on="1"/>
        <pt x="179" y="303" on="0"/>
        <pt x="159" y="332" on="0"/>
        <pt x="162" y="352" on="1"/>
        <pt x="166" y="378" on="0"/>
        <pt x="203" y="439" on="0"/>
        <pt x="206" y="456" on="1"/>
        <pt x="208" y="466" on="0"/>
        <pt x="204" y="470" on="1"/>
        <pt x="202" y="473" on="0"/>
        <pt x="193" y="472" on="1"/>
        <pt x="176" y="468" on="0"/>
        <pt x="117" y="434" on="0"/>
        <pt x="92" y="429" on="1"/>
        <pt x="72" y="425" on="0"/>
        <pt x="39" y="442" on="0"/>
        <pt x="36" y="458" on="1"/>
        <pt x="33" y="475" on="0"/>
        <pt x="54" y="502" on="0"/>
        <pt x="75" y="506" on="1"/>
        <pt x="100" y="510" on="0"/>
        <pt x="170" y="494" on="0"/>
        <pt x="188" y="496" on="1"/>
        <pt x="198" y="498" on="0"/>
        <pt x="200" y="503" on="1"/>
        <pt x="202" y="507" on="0"/>
        <pt x="197" y="516" on="1"/>
        <pt x="188" y="532" on="0"/>
        <pt x="138" y="576" on="0"/>
        <pt x="125" y="598" on="1"/>
        <pt x="115" y="616" on="0"/>
        <pt x="121" y="652" on="0"/>
        <pt x="135" y="660" on="1"/>
        <pt x="150" y="668" on="0"/>
        <pt x="183" y="656" on="0"/>
        <pt x="193" y="638" on="1"/>
        <pt x="205" y="615" on="0"/>
        <pt x="210" y="544" on="0"/>
        <pt x="218" y="528" on="1"/>
        <pt x="223" y="518" on="0"/>
        <pt x="228" y="517" on="1"/>
        <pt x="234" y="517" on="0"/>
        <pt x="239" y="522" on="1"/>
        <pt x="251" y="535" on="0"/>
        <pt x="278" y="597" on="0"/>
      </contour>
    </TTGlyph>
    <TTGlyph name="at" xMin="47" yMin="-124" xMax="721" yMax="578">
      <contour>
        <pt x="431" y="578" on="1"/>
        <pt x="502" y="578" on="0"/>
        <pt x="615" y="529" on="0"/>
        <pt x="685" y="445" on="0"/>
        <pt x="721" y="340" on="0"/>
        <pt x="721" y="280" on="1"/>
        <pt x="721" y="165" on="0"/>
        <pt x="594" y="-7" on="0"/>
        <pt x="507" y="-7" on="1"/>
        <pt x="467" y="-7" on="0"/>
        <pt x="417" y="36" on="0"/>
        <pt x="417" y="79" on="1"/>
        <pt x="417" y="100" on="0"/>
        <pt x="423" y="116" on="1"/>
        <pt x="403" y="77" on="0"/>
        <pt x="321" y="-5" on="0"/>
        <pt x="281" y="-5" on="1"/>
        <pt x="237" y="-5" on="0"/>
        <pt x="185" y="62" on="0"/>
        <pt x="185" y="125" on="1"/>
        <pt x="185" y="196" on="0"/>
        <pt x="274" y="344" on="0"/>
        <pt x="413" y="439" on="0"/>
        <pt x="481" y="439" on="1"/>
        <pt x="538" y="439" on="0"/>
        <pt x="573" y="426" on="1"/>
        <pt x="514" y="116" on="1"/>
        <pt x="511" y="104" on="0"/>
        <pt x="511" y="92" on="1"/>
        <pt x="511" y="45" on="0"/>
        <pt x="547" y="45" on="1"/>
        <pt x="592" y="45" on="0"/>
        <pt x="679" y="186" on="0"/>
        <pt x="679" y="275" on="1"/>
        <pt x="679" y="327" on="0"/>
        <pt x="650" y="419" on="0"/>
        <pt x="592" y="494" on="0"/>
        <pt x="494" y="538" on="0"/>
        <pt x="431" y="538" on="1"/>
        <pt x="333" y="538" on="0"/>
        <pt x="174" y="426" on="0"/>
        <pt x="91" y="258" on="0"/>
        <pt x="91" y="170" on="1"/>
        <pt x="91" y="87" on="0"/>
        <pt x="167" y="-44" on="0"/>
        <pt x="225" y="-78" on="1"/>
        <pt x="260" y="-99" on="0"/>
        <pt x="301" y="-105" on="1"/>
        <pt x="301" y="-111" on="0"/>
        <pt x="274" y="-124" on="0"/>
        <pt x="263" y="-124" on="1"/>
        <pt x="242" y="-124" on="0"/>
        <pt x="221" y="-116" on="1"/>
        <pt x="148" y="-89" on="0"/>
        <pt x="47" y="66" on="0"/>
        <pt x="47" y="168" on="1"/>
        <pt x="47" y="268" on="0"/>
        <pt x="140" y="454" on="0"/>
        <pt x="320" y="578" on="0"/>
      </contour>
      <contour>
        <pt x="439" y="389" on="1"/>
        <pt x="380" y="389" on="0"/>
        <pt x="283" y="238" on="0"/>
        <pt x="283" y="150" on="1"/>
        <pt x="283" y="73" on="0"/>
        <pt x="329" y="73" on="1"/>
        <pt x="363" y="73" on="0"/>
        <pt x="438" y="196" on="0"/>
        <pt x="453" y="274" on="1"/>
        <pt x="473" y="376" on="1"/>
        <pt x="461" y="389" on="0"/>
      </contour>
    </TTGlyph>
    <TTGlyph name="atilde" xMin="33" yMin="-8" xMax="437" yMax="614">
      <component glyphName="tildecomb" x="19" y="-8" flags="0x1004"/>
      <component glyphName="a" x="0" y="0" flags="0x1204"/>
    </TTGlyph>
    <TTGlyph name="b" xMin="0" yMin="-8" xMax="484" yMax="694">
      <contour>
        <pt x="226" y="-8" on="1"/>
        <pt x="206" y="-8" on="0"/>
        <pt x="132" y="11" on="0"/>
        <pt x="126" y="12" on="1"/>
        <pt x="91" y="17" on="0"/>
        <pt x="75" y="11" on="1"/>
        <pt x="72" y="11" on="0"/>
        <pt x="57" y="30" on="0"/>
        <pt x="57" y="34" on="1"/>
        <pt x="69" y="62" on="0"/>
        <pt x="69" y="131" on="1"/>
        <pt x="69" y="558" on="1"/>
        <pt x="69" y="594" on="0"/>
        <pt x="63" y="608" on="1"/>
        <pt x="55" y="626" on="0"/>
        <pt x="2" y="626" on="1"/>
        <pt x="1" y="626" on="0"/>
        <pt x="0" y="640" on="0"/>
        <pt x="1" y="654" on="0"/>
        <pt x="3" y="655" on="1"/>
        <pt x="107" y="665" on="0"/>
        <pt x="170" y="694" on="1"/>
        <pt x="174" y="694" on="0"/>
        <pt x="183" y="683" on="0"/>
        <pt x="183" y="678" on="1"/>
        <pt x="172" y="640" on="0"/>
        <pt x="172" y="584" on="1"/>
        <pt x="172" y="404" on="1"/>
        <pt x="172" y="401" on="0"/>
        <pt x="172" y="398" on="0"/>
        <pt x="173" y="392" on="0"/>
        <pt x="176" y="392" on="0"/>
        <pt x="178" y="393" on="1"/>
        <pt x="196" y="407" on="0"/>
        <pt x="264" y="443" on="0"/>
        <pt x="288" y="443" on="1"/>
        <pt x="374" y="443" on="0"/>
        <pt x="484" y="318" on="0"/>
        <pt x="484" y="234" on="1"/>
        <pt x="484" y="128" on="0"/>
        <pt x="332" y="-8" on="0"/>
      </contour>
      <contour>
        <pt x="239" y="377" on="1"/>
        <pt x="220" y="377" on="0"/>
        <pt x="184" y="361" on="0"/>
        <pt x="176" y="352" on="1"/>
        <pt x="172" y="348" on="0"/>
        <pt x="172" y="342" on="1"/>
        <pt x="172" y="98" on="1"/>
        <pt x="172" y="70" on="0"/>
        <pt x="219" y="31" on="0"/>
        <pt x="252" y="31" on="1"/>
        <pt x="301" y="31" on="0"/>
        <pt x="370" y="134" on="0"/>
        <pt x="370" y="195" on="1"/>
        <pt x="370" y="286" on="0"/>
        <pt x="299" y="377" on="0"/>
      </contour>
    </TTGlyph>
    <TTGlyph name="backslash" xMin="29" yMin="-32" xMax="379" yMax="759">
      <contour>
        <pt x="29" y="752" on="1"/>
        <pt x="35" y="759" on="0"/>
        <pt x="48" y="759" on="1"/>
        <pt x="75" y="759" on="0"/>
        <pt x="81" y="743" on="1"/>
        <pt x="379" y="-16" on="0"/>
        <pt x="379" y="-22" on="1"/>
        <pt x="376" y="-32" on="0"/>
        <pt x="353" y="-32" on="1"/>
        <pt x="334" y="-32" on="0"/>
        <pt x="328" y="-16" on="1"/>
        <pt x="286" y="91" on="0"/>
        <pt x="80" y="623" on="0"/>
      </contour>
    </TTGlyph>
    <TTGlyph name="bar" xMin="76" yMin="-123" xMax="128" yMax="771">
      <contour>
        <pt x="128" y="-107" on="1"/>
        <pt x="128" y="-112" on="0"/>
        <pt x="86" y="-123" on="0"/>
        <pt x="76" y="-123" on="0"/>
        <pt x="76" y="-115" on="1"/>
        <pt x="76" y="757" on="1"/>
        <pt x="75" y="763" on="0"/>
        <pt x="81" y="765" on="1"/>
        <pt x="101" y="771" on="0"/>
        <pt x="119" y="771" on="1"/>
        <pt x="123" y="771" on="0"/>
        <pt x="127" y="768" on="0"/>
        <pt x="127" y="766" on="1"/>
        <pt x="127" y="765" on="1"/>
      </contour>
    </TTGlyph>
    <TTGlyph name="braceleft" xMin="20" yMin="-144" xMax="226" yMax="740">
      <contour>
        <pt x="105" y="404" on="1"/>
        <pt x="105" y="423" on="0"/>
        <pt x="85" y="481" on="1"/>
        <pt x="68" y="523" on="0"/>
        <pt x="68" y="554" on="1"/>
        <pt x="68" y="621" on="0"/>
        <pt x="171" y="731" on="0"/>
        <pt x="214" y="740" on="1"/>
        <pt x="219" y="740" on="0"/>
        <pt x="228" y="724" on="0"/>
        <pt x="226" y="718" on="1"/>
        <pt x="199" y="705" on="0"/>
        <pt x="147" y="638" on="0"/>
        <pt x="147" y="599" on="1"/>
        <pt x="147" y="564" on="0"/>
        <pt x="167" y="516" on="1"/>
        <pt x="185" y="474" on="0"/>
        <pt x="185" y="432" on="1"/>
        <pt x="185" y="381" on="0"/>
        <pt x="116" y="303" on="0"/>
        <pt x="87" y="298" on="1"/>
        <pt x="116" y="293" on="0"/>
        <pt x="185" y="215" on="0"/>
        <pt x="185" y="164" on="1"/>
        <pt x="185" y="122" on="0"/>
        <pt x="167" y="80" on="1"/>
        <pt x="147" y="32" on="0"/>
        <pt x="147" y="-3" on="1"/>
        <pt x="147" y="-42" on="0"/>
        <pt x="199" y="-109" on="0"/>
        <pt x="226" y="-122" on="1"/>
        <pt x="228" y="-128" on="0"/>
        <pt x="219" y="-144" on="0"/>
        <pt x="214" y="-144" on="1"/>
        <pt x="171" y="-135" on="0"/>
        <pt x="68" y="-25" on="0"/>
        <pt x="68" y="42" on="1"/>
        <pt x="68" y="71" on="0"/>
        <pt x="87" y="122" on="1"/>
        <pt x="105" y="168" on="0"/>
        <pt x="105" y="192" on="1"/>
        <pt x="105" y="229" on="0"/>
        <pt x="57" y="277" on="0"/>
        <pt x="23" y="287" on="1"/>
        <pt x="20" y="290" on="0"/>
        <pt x="20" y="306" on="0"/>
        <pt x="23" y="309" on="1"/>
        <pt x="57" y="319" on="0"/>
        <pt x="105" y="367" on="0"/>
      </contour>
    </TTGlyph>
    <TTGlyph name="braceright" xMin="35" yMin="-144" xMax="240" yMax="740">
      <contour>
        <pt x="46" y="740" on="1"/>
        <pt x="89" y="731" on="0"/>
        <pt x="192" y="621" on="0"/>
        <pt x="192" y="554" on="1"/>
        <pt x="192" y="521" on="0"/>
        <pt x="175" y="478" on="1"/>
        <pt x="156" y="427" on="0"/>
        <pt x="156" y="404" on="1"/>
        <pt x="156" y="367" on="0"/>
        <pt x="204" y="319" on="0"/>
        <pt x="238" y="309" on="1"/>
        <pt x="240" y="307" on="0"/>
        <pt x="240" y="289" on="0"/>
        <pt x="238" y="287" on="1"/>
        <pt x="204" y="277" on="0"/>
        <pt x="156" y="229" on="0"/>
        <pt x="156" y="192" on="1"/>
        <pt x="156" y="167" on="0"/>
        <pt x="174" y="121" on="1"/>
        <pt x="192" y="73" on="0"/>
        <pt x="192" y="42" on="1"/>
        <pt x="192" y="-25" on="0"/>
        <pt x="89" y="-135" on="0"/>
        <pt x="46" y="-144" on="1"/>
        <pt x="41" y="-144" on="0"/>
        <pt x="33" y="-128" on="0"/>
        <pt x="35" y="-122" on="1"/>
        <pt x="61" y="-108" on="0"/>
        <pt x="113" y="-42" on="0"/>
        <pt x="113" y="-3" on="1"/>
        <pt x="113" y="35" on="0"/>
        <pt x="75" y="123" on="0"/>
        <pt x="75" y="164" on="1"/>
        <pt x="75" y="215" on="0"/>
        <pt x="145" y="293" on="0"/>
        <pt x="174" y="298" on="1"/>
        <pt x="145" y="303" on="0"/>
        <pt x="75" y="381" on="0"/>
        <pt x="75" y="432" on="1"/>
        <pt x="75" y="476" on="0"/>
        <pt x="95" y="522" on="1"/>
        <pt x="113" y="566" on="0"/>
        <pt x="113" y="599" on="1"/>
        <pt x="113" y="638" on="0"/>
        <pt x="61" y="704" on="0"/>
        <pt x="35" y="718" on="1"/>
        <pt x="33" y="724" on="0"/>
        <pt x="41" y="740" on="0"/>
      </contour>
    </TTGlyph>
    <TTGlyph name="bracketleft" xMin="77" yMin="-141" xMax="279" yMax="755">
      <contour>
        <pt x="96" y="744" on="1"/>
        <pt x="226" y="744" on="0"/>
        <pt x="275" y="755" on="1"/>
        <pt x="279" y="755" on="0"/>
        <pt x="279" y="746" on="1"/>
        <pt x="279" y="730" on="0"/>
        <pt x="269" y="725" on="1"/>
        <pt x="254" y="719" on="0"/>
        <pt x="205" y="708" on="0"/>
        <pt x="157" y="700" on="0"/>
        <pt x="155" y="700" on="1"/>
        <pt x="155" y="-86" on="1"/>
        <pt x="157" y="-86" on="0"/>
        <pt x="205" y="-94" on="0"/>
        <pt x="254" y="-105" on="0"/>
        <pt x="269" y="-111" on="1"/>
        <pt x="279" y="-116" on="0"/>
        <pt x="279" y="-132" on="1"/>
        <pt x="279" y="-141" on="0"/>
        <pt x="275" y="-141" on="1"/>
        <pt x="226" y="-130" on="0"/>
        <pt x="96" y="-130" on="1"/>
        <pt x="77" y="-130" on="0"/>
        <pt x="77" y="-107" on="1"/>
        <pt x="77" y="721" on="1"/>
        <pt x="77" y="744" on="0"/>
      </contour>
    </TTGlyph>
    <TTGlyph name="bracketright" xMin="4" yMin="-141" xMax="206" yMax="755">
      <contour>
        <pt x="187" y="744" on="1"/>
        <pt x="206" y="744" on="0"/>
        <pt x="206" y="721" on="1"/>
        <pt x="206" y="-107" on="1"/>
        <pt x="206" y="-130" on="0"/>
        <pt x="187" y="-130" on="1"/>
        <pt x="58" y="-130" on="0"/>
        <pt x="8" y="-141" on="1"/>
        <pt x="4" y="-141" on="0"/>
        <pt x="4" y="-132" on="1"/>
        <pt x="4" y="-116" on="0"/>
        <pt x="14" y="-111" on="1"/>
        <pt x="29" y="-105" on="0"/>
        <pt x="78" y="-94" on="0"/>
        <pt x="126" y="-86" on="0"/>
        <pt x="128" y="-86" on="1"/>
        <pt x="128" y="700" on="1"/>
        <pt x="126" y="700" on="0"/>
        <pt x="78" y="708" on="0"/>
        <pt x="29" y="719" on="0"/>
        <pt x="14" y="725" on="1"/>
        <pt x="4" y="730" on="0"/>
        <pt x="4" y="746" on="1"/>
        <pt x="4" y="755" on="0"/>
        <pt x="8" y="755" on="1"/>
        <pt x="58" y="744" on="0"/>
      </contour>
    </TTGlyph>
    <TTGlyph name="breve" xMin="299" yMin="515" xMax="523" yMax="635">
      <contour>
        <pt x="503" y="635" on="1"/>
        <pt x="508" y="635" on="0"/>
        <pt x="523" y="622" on="0"/>
        <pt x="523" y="612" on="0"/>
        <pt x="522" y="610" on="1"/>
        <pt x="511" y="567" on="0"/>
        <pt x="452" y="515" on="0"/>
        <pt x="413" y="515" on="1"/>
        <pt x="373" y="515" on="0"/>
        <pt x="310" y="567" on="0"/>
        <pt x="300" y="610" on="1"/>
        <pt x="299" y="612" on="0"/>
        <pt x="299" y="622" on="0"/>
        <pt x="313" y="635" on="0"/>
        <pt x="318" y="635" on="1"/>
        <pt x="325" y="612" on="0"/>
        <pt x="378" y="566" on="0"/>
        <pt x="413" y="566" on="1"/>
        <pt x="449" y="566" on="0"/>
        <pt x="495" y="610" on="0"/>
      </contour>
    </TTGlyph>
    <TTGlyph name="brokenbar" xMin="80" yMin="-123" xMax="132" yMax="770">
      <contour>
        <pt x="132" y="400" on="1"/>
        <pt x="132" y="395" on="0"/>
        <pt x="90" y="385" on="0"/>
        <pt x="80" y="385" on="0"/>
        <pt x="80" y="393" on="1"/>
        <pt x="80" y="757" on="1"/>
        <pt x="79" y="763" on="0"/>
        <pt x="85" y="765" on="1"/>
        <pt x="102" y="770" on="0"/>
        <pt x="124" y="770" on="1"/>
        <pt x="128" y="770" on="0"/>
        <pt x="132" y="767" on="0"/>
        <pt x="132" y="766" on="1"/>
        <pt x="132" y="764" on="1"/>
      </contour>
      <contour>
        <pt x="80" y="-115" on="1"/>
        <pt x="80" y="249" on="1"/>
        <pt x="79" y="255" on="0"/>
        <pt x="85" y="257" on="1"/>
        <pt x="102" y="262" on="0"/>
        <pt x="124" y="262" on="1"/>
        <pt x="128" y="262" on="0"/>
        <pt x="132" y="259" on="0"/>
        <pt x="132" y="258" on="1"/>
        <pt x="132" y="256" on="1"/>
        <pt x="132" y="-108" on="1"/>
        <pt x="132" y="-113" on="0"/>
        <pt x="90" y="-123" on="0"/>
        <pt x="80" y="-123" on="0"/>
      </contour>
    </TTGlyph>
    <TTGlyph name="bullet" xMin="38" yMin="139" xMax="285" yMax="387">
      <contour>
        <pt x="38" y="212" on="0"/>
        <pt x="38" y="314" on="0"/>
        <pt x="111" y="387" on="0"/>
        <pt x="213" y="387" on="0"/>
        <pt x="285" y="314" on="0"/>
        <pt x="285" y="212" on="0"/>
        <pt x="213" y="139" on="0"/>
        <pt x="111" y="139" on="0"/>
      </contour>
    </TTGlyph>
    <TTGlyph name="c" xMin="35" yMin="-8" xMax="409" yMax="443">
      <contour>
        <pt x="397" y="384" on="1"/>
        <pt x="397" y="360" on="0"/>
        <pt x="369" y="329" on="0"/>
        <pt x="349" y="329" on="1"/>
        <pt x="338" y="329" on="0"/>
        <pt x="319" y="341" on="0"/>
        <pt x="294" y="368" on="0"/>
        <pt x="291" y="370" on="1"/>
        <pt x="261" y="395" on="0"/>
        <pt x="228" y="395" on="1"/>
        <pt x="192" y="395" on="0"/>
        <pt x="137" y="304" on="0"/>
        <pt x="137" y="242" on="1"/>
        <pt x="137" y="153" on="0"/>
        <pt x="225" y="67" on="0"/>
        <pt x="290" y="67" on="1"/>
        <pt x="354" y="67" on="0"/>
        <pt x="399" y="117" on="1"/>
        <pt x="409" y="114" on="0"/>
        <pt x="409" y="101" on="1"/>
        <pt x="409" y="90" on="0"/>
        <pt x="405" y="82" on="1"/>
        <pt x="385" y="52" on="0"/>
        <pt x="298" y="-8" on="0"/>
        <pt x="241" y="-8" on="1"/>
        <pt x="154" y="-8" on="0"/>
        <pt x="35" y="109" on="0"/>
        <pt x="35" y="197" on="1"/>
        <pt x="35" y="295" on="0"/>
        <pt x="193" y="443" on="0"/>
        <pt x="287" y="443" on="1"/>
        <pt x="352" y="443" on="0"/>
        <pt x="383" y="422" on="1"/>
        <pt x="397" y="406" on="0"/>
      </contour>
    </TTGlyph>
    <TTGlyph name="cacute" xMin="35" yMin="-8" xMax="409" yMax="666">
      <component glyphName="acutecomb" x="191" y="-19" flags="0x1004"/>
      <component glyphName="c" x="0" y="0" flags="0x1204"/>
    </TTGlyph>
    <TTGlyph name="ccaron" xMin="35" yMin="-8" xMax="409" yMax="662">
      <component glyphName="uni030C" x="111" y="11" flags="0x1004"/>
      <component glyphName="c" x="0" y="0" flags="0x1204"/>
    </TTGlyph>
    <TTGlyph name="ccedilla" xMin="35" yMin="-154" xMax="409" yMax="443">
      <component glyphName="cedilla" x="-228" y="0" flags="0x1004"/>
      <component glyphName="c" x="0" y="0" flags="0x1204"/>
    </TTGlyph>
    <TTGlyph name="ccircumflex" xMin="35" yMin="-8" xMax="409" yMax="662">
      <component glyphName="uni0302" x="82" y="12" flags="0x1004"/>
      <component glyphName="c" x="0" y="0" flags="0x1204"/>
    </TTGlyph>
    <TTGlyph name="cdotaccent" xMin="35" yMin="-8" xMax="409" yMax="622">
      <component glyphName="uni0307" x="115" y="-4" flags="0x1004"/>
      <component glyphName="c" x="0" y="0" flags="0x1204"/>
    </TTGlyph>
    <TTGlyph name="cedilla" xMin="396" yMin="-154" xMax="537" yMax="-3">
      <contour>
        <pt x="466" y="-26" on="1"/>
        <pt x="468" y="-26" on="0"/>
        <pt x="488" y="-25" on="0"/>
        <pt x="490" y="-25" on="1"/>
        <pt x="509" y="-25" on="0"/>
        <pt x="537" y="-54" on="0"/>
        <pt x="537" y="-74" on="1"/>
        <pt x="537" y="-109" on="0"/>
        <pt x="486" y="-154" on="0"/>
        <pt x="447" y="-154" on="1"/>
        <pt x="417" y="-154" on="0"/>
        <pt x="402" y="-139" on="1"/>
        <pt x="396" y="-127" on="0"/>
        <pt x="396" y="-120" on="1"/>
        <pt x="396" y="-114" on="0"/>
        <pt x="398" y="-114" on="1"/>
        <pt x="426" y="-128" on="0"/>
        <pt x="470" y="-128" on="0"/>
        <pt x="491" y="-109" on="0"/>
        <pt x="491" y="-96" on="1"/>
        <pt x="491" y="-82" on="0"/>
        <pt x="475" y="-63" on="0"/>
        <pt x="462" y="-63" on="1"/>
        <pt x="454" y="-63" on="0"/>
        <pt x="436" y="-70" on="1"/>
        <pt x="434" y="-70" on="0"/>
        <pt x="424" y="-59" on="0"/>
        <pt x="425" y="-56" on="1"/>
        <pt x="446" y="-21" on="0"/>
        <pt x="455" y="-3" on="1"/>
        <pt x="482" y="-3" on="1"/>
        <pt x="468" y="-22" on="0"/>
      </contour>
    </TTGlyph>
    <TTGlyph name="cent" xMin="44" yMin="-42" xMax="418" yMax="476">
      <contour>
        <pt x="277" y="476" on="1"/>
        <pt x="309" y="476" on="0"/>
        <pt x="309" y="470" on="1"/>
        <pt x="225" y="-42" on="1"/>
        <pt x="196" y="-42" on="0"/>
        <pt x="193" y="-34" on="1"/>
      </contour>
      <contour>
        <pt x="406" y="384" on="1"/>
        <pt x="406" y="360" on="0"/>
        <pt x="378" y="329" on="0"/>
        <pt x="358" y="329" on="1"/>
        <pt x="347" y="329" on="0"/>
        <pt x="328" y="341" on="0"/>
        <pt x="303" y="368" on="0"/>
        <pt x="300" y="370" on="1"/>
        <pt x="270" y="395" on="0"/>
        <pt x="237" y="395" on="1"/>
        <pt x="201" y="395" on="0"/>
        <pt x="146" y="304" on="0"/>
        <pt x="146" y="242" on="1"/>
        <pt x="146" y="153" on="0"/>
        <pt x="234" y="67" on="0"/>
        <pt x="299" y="67" on="1"/>
        <pt x="363" y="67" on="0"/>
        <pt x="408" y="117" on="1"/>
        <pt x="418" y="114" on="0"/>
        <pt x="418" y="101" on="1"/>
        <pt x="418" y="90" on="0"/>
        <pt x="414" y="82" on="1"/>
        <pt x="394" y="52" on="0"/>
        <pt x="307" y="-8" on="0"/>
        <pt x="250" y="-8" on="1"/>
        <pt x="163" y="-8" on="0"/>
        <pt x="44" y="109" on="0"/>
        <pt x="44" y="197" on="1"/>
        <pt x="44" y="295" on="0"/>
        <pt x="202" y="443" on="0"/>
        <pt x="296" y="443" on="1"/>
        <pt x="360" y="443" on="0"/>
        <pt x="392" y="422" on="1"/>
        <pt x="406" y="406" on="0"/>
      </contour>
    </TTGlyph>
    <TTGlyph name="colon" xMin="50" yMin="-19" xMax="180" yMax="441">
      <contour>
        <pt x="50" y="48" on="1"/>
        <pt x="50" y="74" on="0"/>
        <pt x="89" y="111" on="0"/>
        <pt x="143" y="111" on="0"/>
        <pt x="180" y="73" on="0"/>
        <pt x="180" y="19" on="0"/>
        <pt x="143" y="-19" on="0"/>
        <pt x="89" y="-19" on="0"/>
        <pt x="50" y="21" on="0"/>
      </contour>
      <contour>
        <pt x="50" y="378" on="1"/>
        <pt x="50" y="404" on="0"/>
        <pt x="89" y="441" on="0"/>
        <pt x="143" y="441" on="0"/>
        <pt x="180" y="403" on="0"/>
        <pt x="180" y="349" on="0"/>
        <pt x="143" y="311" on="0"/>
        <pt x="89" y="311" on="0"/>
        <pt x="50" y="351" on="0"/>
      </contour>
    </TTGlyph>
    <TTGlyph name="comma" xMin="18" yMin="-148" xMax="163" yMax="131">
      <contour>
        <pt x="113" y="131" on="1"/>
        <pt x="130" y="131" on="0"/>
        <pt x="147" y="120" on="1"/>
        <pt x="163" y="92" on="0"/>
        <pt x="163" y="52" on="1"/>
        <pt x="163" y="-3" on="0"/>
        <pt x="83" y="-123" on="0"/>
        <pt x="36" y="-148" on="1"/>
        <pt x="30" y="-147" on="0"/>
        <pt x="18" y="-131" on="0"/>
        <pt x="18" y="-126" on="1"/>
        <pt x="85" y="-79" on="0"/>
        <pt x="85" y="-17" on="1"/>
        <pt x="85" y="-3" on="0"/>
        <pt x="45" y="43" on="0"/>
        <pt x="45" y="71" on="1"/>
        <pt x="45" y="89" on="0"/>
        <pt x="80" y="131" on="0"/>
      </contour>
    </TTGlyph>
    <TTGlyph name="copyright" xMin="55" yMin="54" xMax="601" yMax="599">
      <contour>
        <pt x="449" y="264" on="1"/>
        <pt x="449" y="259" on="0"/>
        <pt x="434" y="203" on="0"/>
        <pt x="430" y="202" on="1"/>
        <pt x="369" y="179" on="0"/>
        <pt x="329" y="179" on="1"/>
        <pt x="266" y="179" on="0"/>
        <pt x="185" y="257" on="0"/>
        <pt x="185" y="383" on="0"/>
        <pt x="271" y="469" on="0"/>
        <pt x="331" y="469" on="1"/>
        <pt x="375" y="469" on="0"/>
        <pt x="430" y="452" on="1"/>
        <pt x="430" y="451" on="0"/>
        <pt x="445" y="392" on="0"/>
        <pt x="445" y="390" on="1"/>
        <pt x="445" y="382" on="0"/>
        <pt x="429" y="382" on="1"/>
        <pt x="425" y="382" on="0"/>
        <pt x="423" y="384" on="1"/>
        <pt x="407" y="439" on="0"/>
        <pt x="338" y="439" on="1"/>
        <pt x="298" y="439" on="0"/>
        <pt x="249" y="373" on="0"/>
        <pt x="249" y="328" on="1"/>
        <pt x="249" y="275" on="0"/>
        <pt x="305" y="207" on="0"/>
        <pt x="345" y="207" on="1"/>
        <pt x="386" y="207" on="0"/>
        <pt x="407" y="226" on="1"/>
        <pt x="413" y="232" on="0"/>
        <pt x="423" y="252" on="0"/>
        <pt x="426" y="260" on="1"/>
        <pt x="429" y="268" on="1"/>
        <pt x="445" y="268" on="0"/>
      </contour>
      <contour>
        <pt x="94" y="424" on="0"/>
        <pt x="94" y="228" on="0"/>
        <pt x="230" y="92" on="0"/>
        <pt x="426" y="92" on="0"/>
        <pt x="563" y="229" on="0"/>
        <pt x="563" y="326" on="1"/>
        <pt x="563" y="424" on="0"/>
        <pt x="426" y="561" on="0"/>
        <pt x="328" y="561" on="1"/>
        <pt x="231" y="561" on="0"/>
      </contour>
      <contour>
        <pt x="55" y="213" on="0"/>
        <pt x="55" y="439" on="0"/>
        <pt x="214" y="599" on="0"/>
        <pt x="440" y="599" on="0"/>
        <pt x="601" y="439" on="0"/>
        <pt x="601" y="213" on="0"/>
        <pt x="440" y="54" on="0"/>
        <pt x="214" y="54" on="0"/>
      </contour>
    </TTGlyph>
    <TTGlyph name="currency" xMin="76" yMin="100" xMax="496" yMax="520">
      <contour>
        <pt x="292" y="156" on="1"/>
        <pt x="333" y="156" on="0"/>
        <pt x="383" y="236" on="0"/>
        <pt x="383" y="294" on="1"/>
        <pt x="383" y="363" on="0"/>
        <pt x="320" y="460" on="0"/>
        <pt x="276" y="460" on="1"/>
        <pt x="235" y="460" on="0"/>
        <pt x="183" y="377" on="0"/>
        <pt x="183" y="319" on="1"/>
        <pt x="183" y="251" on="0"/>
        <pt x="248" y="156" on="0"/>
      </contour>
      <contour>
        <pt x="396" y="455" on="1"/>
        <pt x="456" y="510" on="1"/>
        <pt x="460" y="514" on="0"/>
        <pt x="476" y="502" on="0"/>
        <pt x="493" y="478" on="0"/>
        <pt x="496" y="466" on="1"/>
        <pt x="436" y="410" on="1"/>
        <pt x="465" y="362" on="0"/>
        <pt x="465" y="307" on="1"/>
        <pt x="465" y="248" on="0"/>
        <pt x="432" y="199" on="1"/>
        <pt x="486" y="141" on="1"/>
        <pt x="490" y="137" on="0"/>
        <pt x="478" y="120" on="0"/>
        <pt x="454" y="103" on="0"/>
        <pt x="442" y="100" on="1"/>
        <pt x="390" y="155" on="1"/>
        <pt x="342" y="120" on="0"/>
        <pt x="284" y="120" on="1"/>
        <pt x="220" y="120" on="0"/>
        <pt x="170" y="160" on="1"/>
        <pt x="118" y="110" on="1"/>
        <pt x="114" y="106" on="0"/>
        <pt x="97" y="118" on="0"/>
        <pt x="79" y="142" on="0"/>
        <pt x="76" y="154" on="1"/>
        <pt x="130" y="205" on="1"/>
        <pt x="100" y="252" on="0"/>
        <pt x="100" y="307" on="1"/>
        <pt x="100" y="372" on="0"/>
        <pt x="138" y="423" on="1"/>
        <pt x="86" y="479" on="1"/>
        <pt x="82" y="483" on="0"/>
        <pt x="94" y="500" on="0"/>
        <pt x="118" y="517" on="0"/>
        <pt x="130" y="520" on="1"/>
        <pt x="182" y="465" on="1"/>
        <pt x="227" y="496" on="0"/>
        <pt x="284" y="496" on="1"/>
        <pt x="347" y="496" on="0"/>
      </contour>
    </TTGlyph>
    <TTGlyph name="d" xMin="36" yMin="-8" xMax="512" yMax="694">
      <contour>
        <pt x="286" y="442" on="1"/>
        <pt x="314" y="442" on="0"/>
        <pt x="341" y="436" on="1"/>
        <pt x="346" y="436" on="0"/>
        <pt x="346" y="458" on="1"/>
        <pt x="346" y="458" on="0"/>
        <pt x="346" y="558" on="1"/>
        <pt x="346" y="594" on="0"/>
        <pt x="340" y="608" on="1"/>
        <pt x="332" y="626" on="0"/>
        <pt x="280" y="626" on="1"/>
        <pt x="279" y="626" on="0"/>
        <pt x="277" y="640" on="0"/>
        <pt x="278" y="654" on="0"/>
        <pt x="280" y="655" on="1"/>
        <pt x="385" y="665" on="0"/>
        <pt x="448" y="694" on="1"/>
        <pt x="452" y="694" on="0"/>
        <pt x="460" y="683" on="0"/>
        <pt x="460" y="678" on="1"/>
        <pt x="450" y="640" on="0"/>
        <pt x="450" y="584" on="1"/>
        <pt x="450" y="136" on="1"/>
        <pt x="450" y="80" on="0"/>
        <pt x="458" y="68" on="1"/>
        <pt x="466" y="54" on="0"/>
        <pt x="510" y="54" on="1"/>
        <pt x="512" y="52" on="0"/>
        <pt x="512" y="41" on="1"/>
        <pt x="512" y="28" on="0"/>
        <pt x="506" y="24" on="1"/>
        <pt x="481" y="22" on="0"/>
        <pt x="409" y="6" on="0"/>
        <pt x="356" y="-8" on="0"/>
        <pt x="354" y="-8" on="1"/>
        <pt x="346" y="-8" on="0"/>
        <pt x="346" y="14" on="1"/>
        <pt x="346" y="40" on="1"/>
        <pt x="345" y="45" on="0"/>
        <pt x="343" y="45" on="1"/>
        <pt x="325" y="29" on="0"/>
        <pt x="248" y="-8" on="0"/>
        <pt x="215" y="-8" on="1"/>
        <pt x="143" y="-8" on="0"/>
        <pt x="36" y="115" on="0"/>
        <pt x="36" y="203" on="1"/>
        <pt x="36" y="256" on="0"/>
        <pt x="88" y="350" on="0"/>
        <pt x="167" y="408" on="0"/>
        <pt x="251" y="442" on="0"/>
      </contour>
      <contour>
        <pt x="254" y="396" on="1"/>
        <pt x="204" y="396" on="0"/>
        <pt x="149" y="302" on="0"/>
        <pt x="149" y="236" on="1"/>
        <pt x="149" y="157" on="0"/>
        <pt x="214" y="55" on="0"/>
        <pt x="270" y="55" on="1"/>
        <pt x="296" y="55" on="0"/>
        <pt x="346" y="83" on="0"/>
        <pt x="346" y="94" on="1"/>
        <pt x="346" y="348" on="1"/>
        <pt x="346" y="364" on="0"/>
        <pt x="289" y="396" on="0"/>
      </contour>
    </TTGlyph>
    <TTGlyph name="dagger" xMin="34" yMin="-16" xMax="362" yMax="662">
      <contour>
        <pt x="152" y="487" on="1"/>
        <pt x="168" y="487" on="0"/>
        <pt x="182" y="505" on="1"/>
        <pt x="182" y="535" on="0"/>
        <pt x="167" y="612" on="0"/>
        <pt x="154" y="625" on="1"/>
        <pt x="154" y="640" on="0"/>
        <pt x="180" y="662" on="0"/>
        <pt x="198" y="662" on="1"/>
        <pt x="214" y="662" on="0"/>
        <pt x="241" y="640" on="0"/>
        <pt x="241" y="625" on="1"/>
        <pt x="228" y="612" on="0"/>
        <pt x="212" y="535" on="0"/>
        <pt x="212" y="505" on="1"/>
        <pt x="226" y="487" on="0"/>
        <pt x="244" y="487" on="1"/>
        <pt x="291" y="487" on="0"/>
        <pt x="324" y="520" on="1"/>
        <pt x="339" y="520" on="0"/>
        <pt x="362" y="492" on="0"/>
        <pt x="362" y="460" on="0"/>
        <pt x="339" y="434" on="0"/>
        <pt x="324" y="434" on="1"/>
        <pt x="294" y="464" on="0"/>
        <pt x="244" y="464" on="1"/>
        <pt x="232" y="464" on="0"/>
        <pt x="214" y="446" on="0"/>
        <pt x="214" y="436" on="1"/>
        <pt x="217" y="429" on="0"/>
        <pt x="239" y="381" on="0"/>
        <pt x="246" y="365" on="1"/>
        <pt x="229" y="260" on="0"/>
        <pt x="206" y="-3" on="1"/>
        <pt x="202" y="-15" on="0"/>
        <pt x="198" y="-16" on="1"/>
        <pt x="196" y="-16" on="0"/>
        <pt x="190" y="-3" on="1"/>
        <pt x="168" y="246" on="0"/>
        <pt x="149" y="365" on="1"/>
        <pt x="176" y="428" on="0"/>
        <pt x="180" y="436" on="1"/>
        <pt x="180" y="446" on="0"/>
        <pt x="163" y="464" on="0"/>
        <pt x="152" y="464" on="1"/>
        <pt x="102" y="464" on="0"/>
        <pt x="72" y="434" on="1"/>
        <pt x="57" y="434" on="0"/>
        <pt x="34" y="460" on="0"/>
        <pt x="34" y="492" on="0"/>
        <pt x="57" y="520" on="0"/>
        <pt x="72" y="520" on="1"/>
        <pt x="105" y="487" on="0"/>
      </contour>
    </TTGlyph>
    <TTGlyph name="daggerdbl" xMin="42" yMin="-16" xMax="372" yMax="662">
      <contour>
        <pt x="255" y="281" on="1"/>
        <pt x="248" y="265" on="0"/>
        <pt x="227" y="217" on="0"/>
        <pt x="224" y="210" on="1"/>
        <pt x="224" y="200" on="0"/>
        <pt x="241" y="182" on="0"/>
        <pt x="252" y="182" on="1"/>
        <pt x="304" y="182" on="0"/>
        <pt x="334" y="212" on="1"/>
        <pt x="349" y="212" on="0"/>
        <pt x="372" y="186" on="0"/>
        <pt x="372" y="154" on="0"/>
        <pt x="349" y="126" on="0"/>
        <pt x="334" y="126" on="1"/>
        <pt x="301" y="159" on="0"/>
        <pt x="252" y="159" on="1"/>
        <pt x="236" y="159" on="0"/>
        <pt x="222" y="141" on="1"/>
        <pt x="222" y="111" on="0"/>
        <pt x="237" y="34" on="0"/>
        <pt x="250" y="21" on="1"/>
        <pt x="250" y="6" on="0"/>
        <pt x="224" y="-16" on="0"/>
        <pt x="208" y="-16" on="1"/>
        <pt x="190" y="-16" on="0"/>
        <pt x="163" y="6" on="0"/>
        <pt x="163" y="21" on="1"/>
        <pt x="176" y="34" on="0"/>
        <pt x="192" y="111" on="0"/>
        <pt x="192" y="141" on="1"/>
        <pt x="178" y="159" on="0"/>
        <pt x="162" y="159" on="1"/>
        <pt x="113" y="159" on="0"/>
        <pt x="80" y="126" on="1"/>
        <pt x="65" y="126" on="0"/>
        <pt x="42" y="154" on="0"/>
        <pt x="42" y="186" on="0"/>
        <pt x="65" y="212" on="0"/>
        <pt x="80" y="212" on="1"/>
        <pt x="110" y="182" on="0"/>
        <pt x="162" y="182" on="1"/>
        <pt x="173" y="182" on="0"/>
        <pt x="190" y="200" on="0"/>
        <pt x="190" y="210" on="1"/>
        <pt x="186" y="219" on="0"/>
        <pt x="163" y="270" on="0"/>
        <pt x="158" y="281" on="1"/>
        <pt x="173" y="296" on="0"/>
        <pt x="187" y="324" on="1"/>
        <pt x="184" y="331" on="0"/>
        <pt x="158" y="365" on="1"/>
        <pt x="163" y="376" on="0"/>
        <pt x="186" y="427" on="0"/>
        <pt x="190" y="436" on="1"/>
        <pt x="190" y="446" on="0"/>
        <pt x="173" y="464" on="0"/>
        <pt x="162" y="464" on="1"/>
        <pt x="110" y="464" on="0"/>
        <pt x="80" y="434" on="1"/>
        <pt x="65" y="434" on="0"/>
        <pt x="42" y="460" on="0"/>
        <pt x="42" y="492" on="0"/>
        <pt x="65" y="520" on="0"/>
        <pt x="80" y="520" on="1"/>
        <pt x="113" y="487" on="0"/>
        <pt x="162" y="487" on="1"/>
        <pt x="178" y="487" on="0"/>
        <pt x="192" y="505" on="1"/>
        <pt x="192" y="535" on="0"/>
        <pt x="176" y="612" on="0"/>
        <pt x="163" y="625" on="1"/>
        <pt x="163" y="640" on="0"/>
        <pt x="190" y="662" on="0"/>
        <pt x="208" y="662" on="1"/>
        <pt x="224" y="662" on="0"/>
        <pt x="250" y="640" on="0"/>
        <pt x="250" y="625" on="1"/>
        <pt x="237" y="612" on="0"/>
        <pt x="222" y="535" on="0"/>
        <pt x="222" y="505" on="1"/>
        <pt x="236" y="487" on="0"/>
        <pt x="252" y="487" on="1"/>
        <pt x="301" y="487" on="0"/>
        <pt x="334" y="520" on="1"/>
        <pt x="349" y="520" on="0"/>
        <pt x="372" y="492" on="0"/>
        <pt x="372" y="460" on="0"/>
        <pt x="349" y="434" on="0"/>
        <pt x="334" y="434" on="1"/>
        <pt x="304" y="464" on="0"/>
        <pt x="252" y="464" on="1"/>
        <pt x="241" y="464" on="0"/>
        <pt x="224" y="446" on="0"/>
        <pt x="224" y="436" on="1"/>
        <pt x="227" y="429" on="0"/>
        <pt x="248" y="381" on="0"/>
        <pt x="255" y="365" on="1"/>
        <pt x="235" y="341" on="0"/>
        <pt x="226" y="324" on="1"/>
        <pt x="239" y="298" on="0"/>
      </contour>
    </TTGlyph>
    <TTGlyph name="dcaron" xMin="36" yMin="-8" xMax="628" yMax="712">
      <component glyphName="uni0315" x="444" y="42" flags="0x1004"/>
      <component glyphName="d" x="0" y="0" flags="0x1004"/>
    </TTGlyph>
    <TTGlyph name="dcroat" xMin="36" yMin="-8" xMax="512" yMax="694">
      <contour>
        <pt x="204" y="562" on="1"/>
        <pt x="204" y="562" on="0"/>
        <pt x="501" y="562" on="1"/>
        <pt x="506" y="562" on="0"/>
        <pt x="506" y="554" on="1"/>
        <pt x="506" y="538" on="0"/>
        <pt x="501" y="526" on="1"/>
        <pt x="501" y="526" on="0"/>
        <pt x="204" y="526" on="1"/>
        <pt x="199" y="526" on="0"/>
        <pt x="199" y="536" on="1"/>
        <pt x="199" y="554" on="0"/>
      </contour>
      <contour>
        <pt x="286" y="442" on="1"/>
        <pt x="314" y="442" on="0"/>
        <pt x="341" y="436" on="1"/>
        <pt x="346" y="436" on="0"/>
        <pt x="346" y="458" on="1"/>
        <pt x="346" y="558" on="1"/>
        <pt x="346" y="594" on="0"/>
        <pt x="340" y="608" on="1"/>
        <pt x="332" y="626" on="0"/>
        <pt x="280" y="626" on="1"/>
        <pt x="279" y="626" on="0"/>
        <pt x="277" y="640" on="0"/>
        <pt x="278" y="654" on="0"/>
        <pt x="280" y="655" on="1"/>
        <pt x="385" y="665" on="0"/>
        <pt x="448" y="694" on="1"/>
        <pt x="452" y="694" on="0"/>
        <pt x="460" y="683" on="0"/>
        <pt x="460" y="678" on="1"/>
        <pt x="450" y="640" on="0"/>
        <pt x="450" y="584" on="1"/>
        <pt x="450" y="136" on="1"/>
        <pt x="450" y="80" on="0"/>
        <pt x="458" y="68" on="1"/>
        <pt x="466" y="54" on="0"/>
        <pt x="510" y="54" on="1"/>
        <pt x="512" y="52" on="0"/>
        <pt x="512" y="41" on="1"/>
        <pt x="512" y="28" on="0"/>
        <pt x="506" y="24" on="1"/>
        <pt x="481" y="22" on="0"/>
        <pt x="409" y="6" on="0"/>
        <pt x="356" y="-8" on="0"/>
        <pt x="354" y="-8" on="1"/>
        <pt x="346" y="-8" on="0"/>
        <pt x="346" y="14" on="1"/>
        <pt x="346" y="40" on="1"/>
        <pt x="345" y="45" on="0"/>
        <pt x="343" y="45" on="1"/>
        <pt x="325" y="29" on="0"/>
        <pt x="248" y="-8" on="0"/>
        <pt x="215" y="-8" on="1"/>
        <pt x="143" y="-8" on="0"/>
        <pt x="36" y="115" on="0"/>
        <pt x="36" y="203" on="1"/>
        <pt x="36" y="256" on="0"/>
        <pt x="88" y="350" on="0"/>
        <pt x="167" y="408" on="0"/>
        <pt x="251" y="442" on="0"/>
      </contour>
      <contour>
        <pt x="254" y="396" on="1"/>
        <pt x="204" y="396" on="0"/>
        <pt x="149" y="302" on="0"/>
        <pt x="149" y="236" on="1"/>
        <pt x="149" y="157" on="0"/>
        <pt x="214" y="55" on="0"/>
        <pt x="270" y="55" on="1"/>
        <pt x="296" y="55" on="0"/>
        <pt x="346" y="83" on="0"/>
        <pt x="346" y="94" on="1"/>
        <pt x="346" y="348" on="1"/>
        <pt x="346" y="364" on="0"/>
        <pt x="289" y="396" on="0"/>
      </contour>
    </TTGlyph>
    <TTGlyph name="degree" xMin="37" yMin="431" xMax="247" yMax="641">
      <contour>
        <pt x="79" y="562" on="0"/>
        <pt x="79" y="510" on="0"/>
        <pt x="117" y="473" on="0"/>
        <pt x="169" y="473" on="0"/>
        <pt x="205" y="510" on="0"/>
        <pt x="205" y="562" on="0"/>
        <pt x="169" y="600" on="0"/>
        <pt x="117" y="600" on="0"/>
      </contour>
      <contour>
        <pt x="37" y="493" on="0"/>
        <pt x="37" y="579" on="0"/>
        <pt x="99" y="641" on="0"/>
        <pt x="143" y="641" on="1"/>
        <pt x="186" y="641" on="0"/>
        <pt x="247" y="580" on="0"/>
        <pt x="247" y="492" on="0"/>
        <pt x="186" y="431" on="0"/>
        <pt x="143" y="431" on="1"/>
        <pt x="99" y="431" on="0"/>
      </contour>
    </TTGlyph>
    <TTGlyph name="dieresis" xMin="29" yMin="457" xMax="344" yMax="573">
      <contour>
        <pt x="261" y="573" on="0"/>
        <pt x="309" y="573" on="0"/>
        <pt x="344" y="539" on="0"/>
        <pt x="344" y="491" on="0"/>
        <pt x="308" y="457" on="0"/>
        <pt x="260" y="457" on="0"/>
        <pt x="226" y="492" on="0"/>
        <pt x="226" y="540" on="0"/>
      </contour>
      <contour>
        <pt x="64" y="573" on="0"/>
        <pt x="112" y="573" on="0"/>
        <pt x="147" y="539" on="0"/>
        <pt x="147" y="491" on="0"/>
        <pt x="112" y="457" on="0"/>
        <pt x="64" y="457" on="0"/>
        <pt x="29" y="492" on="0"/>
        <pt x="29" y="540" on="0"/>
      </contour>
    </TTGlyph>
    <TTGlyph name="divide" xMin="64" yMin="4" xMax="544" yMax="491">
      <contour>
        <pt x="248" y="412" on="0"/>
        <pt x="248" y="458" on="0"/>
        <pt x="281" y="491" on="0"/>
        <pt x="327" y="491" on="0"/>
        <pt x="360" y="458" on="0"/>
        <pt x="360" y="412" on="0"/>
        <pt x="327" y="379" on="0"/>
        <pt x="281" y="379" on="0"/>
      </contour>
      <contour>
        <pt x="248" y="37" on="0"/>
        <pt x="248" y="83" on="0"/>
        <pt x="281" y="116" on="0"/>
        <pt x="327" y="116" on="0"/>
        <pt x="360" y="83" on="0"/>
        <pt x="360" y="37" on="0"/>
        <pt x="327" y="4" on="0"/>
        <pt x="281" y="4" on="0"/>
      </contour>
      <contour>
        <pt x="70" y="221" on="1"/>
        <pt x="64" y="221" on="0"/>
        <pt x="64" y="234" on="1"/>
        <pt x="64" y="264" on="0"/>
        <pt x="78" y="278" on="1"/>
        <pt x="78" y="278" on="0"/>
        <pt x="535" y="278" on="1"/>
        <pt x="544" y="278" on="0"/>
        <pt x="544" y="265" on="1"/>
        <pt x="544" y="238" on="0"/>
        <pt x="529" y="221" on="1"/>
      </contour>
    </TTGlyph>
    <TTGlyph name="dollar" xMin="53" yMin="-46" xMax="458" yMax="676">
      <contour>
        <pt x="291" y="676" on="1"/>
        <pt x="328" y="676" on="0"/>
        <pt x="328" y="668" on="1"/>
        <pt x="322" y="634" on="1"/>
        <pt x="338" y="631" on="0"/>
        <pt x="400" y="616" on="0"/>
        <pt x="415" y="613" on="1"/>
        <pt x="421" y="577" on="0"/>
        <pt x="426" y="465" on="1"/>
        <pt x="424" y="460" on="0"/>
        <pt x="415" y="460" on="1"/>
        <pt x="391" y="460" on="0"/>
        <pt x="389" y="467" on="1"/>
        <pt x="385" y="498" on="0"/>
        <pt x="345" y="568" on="0"/>
        <pt x="315" y="586" on="1"/>
        <pt x="279" y="372" on="1"/>
        <pt x="283" y="370" on="0"/>
        <pt x="305" y="356" on="1"/>
        <pt x="311" y="352" on="0"/>
        <pt x="355" y="326" on="0"/>
        <pt x="373" y="314" on="0"/>
        <pt x="410" y="286" on="0"/>
        <pt x="427" y="263" on="0"/>
        <pt x="449" y="229" on="0"/>
        <pt x="458" y="189" on="0"/>
        <pt x="458" y="166" on="1"/>
        <pt x="458" y="89" on="0"/>
        <pt x="334" y="-10" on="0"/>
        <pt x="253" y="-10" on="1"/>
        <pt x="236" y="-10" on="0"/>
        <pt x="216" y="-8" on="1"/>
        <pt x="210" y="-46" on="1"/>
        <pt x="173" y="-46" on="0"/>
        <pt x="173" y="-37" on="1"/>
        <pt x="178" y="-4" on="1"/>
        <pt x="138" y="2" on="0"/>
        <pt x="76" y="16" on="1"/>
        <pt x="57" y="104" on="0"/>
        <pt x="53" y="172" on="1"/>
        <pt x="55" y="176" on="0"/>
        <pt x="74" y="184" on="0"/>
        <pt x="79" y="184" on="1"/>
        <pt x="91" y="184" on="0"/>
        <pt x="92" y="176" on="1"/>
        <pt x="99" y="143" on="0"/>
        <pt x="146" y="63" on="0"/>
        <pt x="186" y="43" on="1"/>
        <pt x="225" y="276" on="1"/>
        <pt x="222" y="278" on="0"/>
        <pt x="219" y="280" on="1"/>
        <pt x="138" y="330" on="0"/>
        <pt x="112" y="358" on="1"/>
        <pt x="65" y="406" on="0"/>
        <pt x="65" y="469" on="1"/>
        <pt x="65" y="542" on="0"/>
        <pt x="185" y="640" on="0"/>
        <pt x="261" y="640" on="1"/>
        <pt x="273" y="640" on="0"/>
        <pt x="285" y="639" on="1"/>
      </contour>
      <contour>
        <pt x="260" y="255" on="1"/>
        <pt x="223" y="30" on="1"/>
        <pt x="235" y="28" on="0"/>
        <pt x="249" y="28" on="1"/>
        <pt x="291" y="28" on="0"/>
        <pt x="353" y="80" on="0"/>
        <pt x="353" y="132" on="1"/>
        <pt x="353" y="173" on="0"/>
        <pt x="304" y="228" on="0"/>
      </contour>
      <contour>
        <pt x="245" y="396" on="1"/>
        <pt x="278" y="600" on="1"/>
        <pt x="270" y="602" on="0"/>
        <pt x="261" y="602" on="1"/>
        <pt x="217" y="602" on="0"/>
        <pt x="167" y="551" on="0"/>
        <pt x="167" y="509" on="1"/>
        <pt x="167" y="452" on="0"/>
      </contour>
    </TTGlyph>
    <TTGlyph name="dotbelowcomb" xMin="89" yMin="-162" xMax="213" yMax="-38">
      <contour>
        <pt x="89" y="-126" on="0"/>
        <pt x="89" y="-74" on="0"/>
        <pt x="126" y="-38" on="0"/>
        <pt x="176" y="-38" on="0"/>
        <pt x="213" y="-74" on="0"/>
        <pt x="213" y="-126" on="0"/>
        <pt x="176" y="-162" on="0"/>
        <pt x="126" y="-162" on="0"/>
      </contour>
    </TTGlyph>
    <TTGlyph name="dotlessi" xMin="28" yMin="-4" xMax="275" yMax="444">
      <contour>
        <pt x="206" y="317" on="1"/>
        <pt x="206" y="130" on="1"/>
        <pt x="206" y="64" on="0"/>
        <pt x="212" y="46" on="1"/>
        <pt x="215" y="38" on="0"/>
        <pt x="258" y="29" on="0"/>
        <pt x="272" y="29" on="1"/>
        <pt x="275" y="24" on="0"/>
        <pt x="275" y="0" on="0"/>
        <pt x="272" y="-4" on="1"/>
        <pt x="192" y="2" on="0"/>
        <pt x="153" y="2" on="1"/>
        <pt x="112" y="2" on="0"/>
        <pt x="32" y="-4" on="1"/>
        <pt x="29" y="0" on="0"/>
        <pt x="29" y="24" on="0"/>
        <pt x="32" y="29" on="1"/>
        <pt x="46" y="29" on="0"/>
        <pt x="92" y="38" on="0"/>
        <pt x="95" y="46" on="1"/>
        <pt x="102" y="67" on="0"/>
        <pt x="102" y="130" on="1"/>
        <pt x="102" y="282" on="1"/>
        <pt x="102" y="333" on="0"/>
        <pt x="95" y="349" on="1"/>
        <pt x="90" y="359" on="0"/>
        <pt x="45" y="368" on="0"/>
        <pt x="31" y="368" on="1"/>
        <pt x="29" y="370" on="0"/>
        <pt x="28" y="394" on="0"/>
        <pt x="31" y="396" on="1"/>
        <pt x="123" y="405" on="0"/>
        <pt x="200" y="444" on="1"/>
        <pt x="204" y="443" on="0"/>
        <pt x="214" y="430" on="0"/>
        <pt x="214" y="427" on="1"/>
        <pt x="206" y="395" on="0"/>
        <pt x="206" y="365" on="1"/>
      </contour>
    </TTGlyph>
    <TTGlyph name="e" xMin="36" yMin="-8" xMax="410" yMax="442">
      <contour>
        <pt x="140" y="283" on="1"/>
        <pt x="252" y="283" on="0"/>
        <pt x="286" y="287" on="1"/>
        <pt x="304" y="287" on="0"/>
        <pt x="304" y="307" on="1"/>
        <pt x="304" y="340" on="0"/>
        <pt x="268" y="404" on="0"/>
        <pt x="232" y="404" on="1"/>
        <pt x="207" y="404" on="0"/>
        <pt x="168" y="372" on="0"/>
        <pt x="149" y="327" on="0"/>
        <pt x="140" y="291" on="0"/>
      </contour>
      <contour>
        <pt x="136" y="245" on="1"/>
        <pt x="135" y="154" on="0"/>
        <pt x="229" y="66" on="0"/>
        <pt x="288" y="66" on="1"/>
        <pt x="354" y="66" on="0"/>
        <pt x="400" y="117" on="1"/>
        <pt x="410" y="114" on="0"/>
        <pt x="410" y="101" on="1"/>
        <pt x="410" y="92" on="0"/>
        <pt x="405" y="82" on="1"/>
        <pt x="385" y="51" on="0"/>
        <pt x="299" y="-8" on="0"/>
        <pt x="242" y="-8" on="1"/>
        <pt x="154" y="-8" on="0"/>
        <pt x="36" y="108" on="0"/>
        <pt x="36" y="200" on="1"/>
        <pt x="36" y="295" on="0"/>
        <pt x="168" y="442" on="0"/>
        <pt x="246" y="442" on="1"/>
        <pt x="290" y="442" on="0"/>
        <pt x="358" y="412" on="0"/>
        <pt x="392" y="365" on="0"/>
        <pt x="408" y="320" on="0"/>
        <pt x="408" y="299" on="1"/>
        <pt x="408" y="255" on="0"/>
        <pt x="383" y="254" on="1"/>
        <pt x="326" y="249" on="0"/>
      </contour>
    </TTGlyph>
    <TTGlyph name="eacute" xMin="36" yMin="-8" xMax="410" yMax="679">
      <component glyphName="acutecomb" x="164" y="-6" flags="0x1004"/>
      <component glyphName="e" x="0" y="0" flags="0x1204"/>
    </TTGlyph>
    <TTGlyph name="ebreve" xMin="36" yMin="-8" xMax="410" yMax="624">
      <component glyphName="breve" x="-171" y="-11" flags="0x1004"/>
      <component glyphName="e" x="0" y="0" flags="0x1204"/>
    </TTGlyph>
    <TTGlyph name="ecaron" xMin="36" yMin="-8" xMax="410" yMax="662">
      <component glyphName="uni030C" x="70" y="11" flags="0x1004"/>
      <component glyphName="e" x="0" y="0" flags="0x1204"/>
    </TTGlyph>
    <TTGlyph name="ecircumflex" xMin="36" yMin="-8" xMax="410" yMax="662">
      <component glyphName="uni0302" x="77" y="12" flags="0x1004"/>
      <component glyphName="e" x="0" y="0" flags="0x1204"/>
    </TTGlyph>
    <TTGlyph name="edieresis" xMin="36" yMin="-8" xMax="410" yMax="607">
      <component glyphName="dieresis" x="46" y="34" flags="0x1004"/>
      <component glyphName="e" x="0" y="0" flags="0x1204"/>
    </TTGlyph>
    <TTGlyph name="edotaccent" xMin="36" yMin="-8" xMax="410" yMax="622">
      <component glyphName="uni0307" x="96" y="-4" flags="0x1004"/>
      <component glyphName="e" x="0" y="0" flags="0x1204"/>
    </TTGlyph>
    <TTGlyph name="egrave" xMin="36" yMin="-8" xMax="410" yMax="679">
      <component glyphName="gravecomb" x="80" y="-6" flags="0x1004"/>
      <component glyphName="e" x="0" y="0" flags="0x1204"/>
    </TTGlyph>
    <TTGlyph name="eight" xMin="44" yMin="-8" xMax="443" yMax="638">
      <contour>
        <pt x="244" y="31" on="1"/>
        <pt x="287" y="31" on="0"/>
        <pt x="336" y="85" on="0"/>
        <pt x="336" y="128" on="1"/>
        <pt x="336" y="151" on="0"/>
        <pt x="313" y="198" on="0"/>
        <pt x="290" y="228" on="0"/>
        <pt x="244" y="266" on="0"/>
        <pt x="234" y="273" on="0"/>
        <pt x="216" y="285" on="1"/>
        <pt x="210" y="288" on="0"/>
        <pt x="208" y="288" on="1"/>
        <pt x="204" y="288" on="1"/>
        <pt x="150" y="243" on="0"/>
        <pt x="150" y="156" on="1"/>
        <pt x="150" y="103" on="0"/>
        <pt x="203" y="31" on="0"/>
      </contour>
      <contour>
        <pt x="240" y="600" on="1"/>
        <pt x="209" y="600" on="0"/>
        <pt x="166" y="544" on="0"/>
        <pt x="166" y="505" on="1"/>
        <pt x="166" y="429" on="0"/>
        <pt x="262" y="375" on="1"/>
        <pt x="266" y="372" on="0"/>
        <pt x="270" y="372" on="1"/>
        <pt x="274" y="372" on="0"/>
        <pt x="276" y="374" on="1"/>
        <pt x="320" y="414" on="0"/>
        <pt x="320" y="486" on="1"/>
        <pt x="320" y="529" on="0"/>
        <pt x="277" y="600" on="0"/>
      </contour>
      <contour>
        <pt x="244" y="638" on="1"/>
        <pt x="316" y="638" on="0"/>
        <pt x="418" y="559" on="0"/>
        <pt x="418" y="492" on="1"/>
        <pt x="418" y="444" on="0"/>
        <pt x="355" y="372" on="0"/>
        <pt x="308" y="349" on="1"/>
        <pt x="305" y="348" on="0"/>
        <pt x="308" y="344" on="1"/>
        <pt x="338" y="327" on="0"/>
        <pt x="393" y="281" on="0"/>
        <pt x="442" y="204" on="0"/>
        <pt x="442" y="167" on="1"/>
        <pt x="442" y="91" on="0"/>
        <pt x="320" y="-8" on="0"/>
        <pt x="238" y="-8" on="1"/>
        <pt x="155" y="-8" on="0"/>
        <pt x="44" y="76" on="0"/>
        <pt x="44" y="154" on="1"/>
        <pt x="44" y="184" on="0"/>
        <pt x="69" y="238" on="0"/>
        <pt x="111" y="277" on="0"/>
        <pt x="151" y="302" on="0"/>
        <pt x="172" y="312" on="1"/>
        <pt x="176" y="316" on="0"/>
        <pt x="172" y="318" on="1"/>
        <pt x="152" y="333" on="0"/>
        <pt x="125" y="357" on="0"/>
        <pt x="86" y="400" on="0"/>
        <pt x="64" y="453" on="0"/>
        <pt x="64" y="483" on="1"/>
        <pt x="64" y="546" on="0"/>
        <pt x="175" y="638" on="0"/>
      </contour>
    </TTGlyph>
    <TTGlyph name="eight.prop" xMin="28" yMin="-8" xMax="427" yMax="638">
      <component glyphName="eight" x="-16" y="0" flags="0x1004"/>
    </TTGlyph>
</ttFont>
